<ttFont>
    <TTGlyph name=".notdef" xMin="235" yMin="-29" xMax="1512" yMax="1489">
      <contour>
        <pt x="1227" y="937" on="1"/>
        <pt x="1227" y="1249" on="0"/>
        <pt x="980" y="1249" on="1"/>
        <pt x="772" y="1249" on="0"/>
        <pt x="644" y="1026" on="1"/>
        <pt x="519" y="805" on="0"/>
        <pt x="519" y="545" on="1"/>
        <pt x="519" y="409" on="0"/>
        <pt x="553" y="343" on="1"/>
        <pt x="621" y="213" on="0"/>
        <pt x="760" y="213" on="1"/>
        <pt x="968" y="213" on="0"/>
        <pt x="1101" y="457" on="1"/>
        <pt x="1221" y="681" on="0"/>
        <pt x="1227" y="928" on="1"/>
      </contour>
      <contour>
        <pt x="235" y="541" on="1"/>
        <pt x="237" y="742" on="0"/>
        <pt x="323" y="954" on="1"/>
        <pt x="411" y="1169" on="0"/>
        <pt x="584" y="1322" on="1"/>
        <pt x="670" y="1397" on="0"/>
        <pt x="901" y="1489" on="0"/>
        <pt x="1164" y="1489" on="0"/>
        <pt x="1258" y="1443" on="1"/>
        <pt x="1433" y="1358" on="0"/>
        <pt x="1487" y="1151" on="1"/>
        <pt x="1512" y="1054" on="0"/>
        <pt x="1512" y="964" on="1"/>
        <pt x="1512" y="954" on="1"/>
        <pt x="1510" y="756" on="0"/>
        <pt x="1424" y="542" on="1"/>
        <pt x="1332" y="311" on="0"/>
        <pt x="1157" y="148" on="1"/>
        <pt x="1073" y="70" on="0"/>
        <pt x="839" y="-29" on="0"/>
        <pt x="579" y="-29" on="0"/>
        <pt x="482" y="20" on="1"/>
        <pt x="310" y="109" on="0"/>
        <pt x="258" y="331" on="1"/>
        <pt x="235" y="431" on="0"/>
        <pt x="235" y="528" on="1"/>
      </contour>
      <contour>
        <pt x="898" y="621" on="1"/>
        <pt x="884" y="557" on="1"/>
        <pt x="753" y="557" on="1"/>
        <pt x="774" y="652" on="1"/>
        <pt x="782" y="695" on="0"/>
        <pt x="811" y="721" on="1"/>
        <pt x="856" y="761" on="0"/>
        <pt x="887" y="781" on="1"/>
        <pt x="978" y="838" on="0"/>
        <pt x="989" y="897" on="1"/>
        <pt x="1001" y="949" on="0"/>
        <pt x="952" y="968" on="1"/>
        <pt x="934" y="975" on="0"/>
        <pt x="871" y="975" on="0"/>
        <pt x="808" y="924" on="0"/>
        <pt x="796" y="885" on="1"/>
        <pt x="669" y="905" on="1"/>
        <pt x="696" y="989" on="0"/>
        <pt x="838" y="1095" on="0"/>
        <pt x="932" y="1095" on="1"/>
        <pt x="1048" y="1095" on="0"/>
        <pt x="1104" y="1024" on="1"/>
        <pt x="1131" y="992" on="0"/>
        <pt x="1131" y="954" on="1"/>
        <pt x="1131" y="826" on="0"/>
        <pt x="1027" y="742" on="1"/>
        <pt x="1010" y="729" on="0"/>
        <pt x="990" y="716" on="1"/>
        <pt x="932" y="678" on="0"/>
        <pt x="902" y="637" on="0"/>
      </contour>
      <contour>
        <pt x="808" y="345" on="0"/>
        <pt x="742" y="345" on="0"/>
        <pt x="710" y="385" on="0"/>
        <pt x="710" y="450" on="0"/>
        <pt x="776" y="506" on="0"/>
        <pt x="842" y="506" on="0"/>
        <pt x="875" y="463" on="0"/>
        <pt x="875" y="437" on="0"/>
        <pt x="866" y="393" on="0"/>
      </contour>
    </TTGlyph>
    <TTGlyph name="A" xMin="20" yMin="0" xMax="1377" yMax="1456">
      <contour>
        <pt x="939" y="1124" on="1"/>
        <pt x="658" y="621" on="1"/>
        <pt x="1005" y="621" on="1"/>
      </contour>
      <contour>
        <pt x="1163" y="1456" on="1"/>
        <pt x="1377" y="0" on="1"/>
        <pt x="1066" y="0" on="1"/>
        <pt x="1011" y="382" on="1"/>
        <pt x="1011" y="382" on="0"/>
        <pt x="548" y="382" on="1"/>
        <pt x="331" y="0" on="1"/>
        <pt x="20" y="0" on="1"/>
        <pt x="852" y="1456" on="1"/>
      </contour>
    </TTGlyph>
    <TTGlyph name="AE" xMin="10" yMin="0" xMax="1782" yMax="1456">
      <contour>
        <pt x="946" y="596" on="1"/>
        <pt x="668" y="596" on="1"/>
        <pt x="308" y="0" on="1"/>
        <pt x="10" y="0" on="1"/>
        <pt x="895" y="1456" on="1"/>
        <pt x="1782" y="1456" on="1"/>
        <pt x="1729" y="1203" on="1"/>
        <pt x="1341" y="1203" on="1"/>
        <pt x="1264" y="840" on="1"/>
        <pt x="1652" y="840" on="1"/>
        <pt x="1598" y="590" on="1"/>
        <pt x="1209" y="590" on="1"/>
        <pt x="1137" y="250" on="1"/>
        <pt x="1526" y="250" on="1"/>
        <pt x="1473" y="0" on="1"/>
        <pt x="819" y="0" on="1"/>
      </contour>
      <contour>
        <pt x="1092" y="1286" on="1"/>
        <pt x="799" y="839" on="1"/>
        <pt x="997" y="839" on="1"/>
      </contour>
    </TTGlyph>
    <TTGlyph name="Aacute" xMin="20" yMin="0" xMax="1440" yMax="1945">
      <contour>
        <pt x="1051" y="1533" on="1"/>
        <pt x="1043" y="1528" on="0"/>
        <pt x="1039" y="1528" on="1"/>
        <pt x="1005" y="1528" on="0"/>
        <pt x="971" y="1581" on="1"/>
        <pt x="963" y="1594" on="0"/>
        <pt x="960" y="1620" on="1"/>
        <pt x="955" y="1675" on="0"/>
        <pt x="977" y="1688" on="1"/>
        <pt x="1311" y="1935" on="1"/>
        <pt x="1324" y="1945" on="0"/>
        <pt x="1337" y="1945" on="1"/>
        <pt x="1392" y="1945" on="0"/>
        <pt x="1427" y="1888" on="1"/>
        <pt x="1440" y="1868" on="0"/>
        <pt x="1440" y="1842" on="1"/>
        <pt x="1440" y="1771" on="0"/>
        <pt x="1404" y="1746" on="1"/>
      </contour>
      <contour>
        <pt x="939" y="1124" on="1"/>
        <pt x="658" y="621" on="1"/>
        <pt x="1005" y="621" on="1"/>
      </contour>
      <contour>
        <pt x="1163" y="1456" on="1"/>
        <pt x="1377" y="0" on="1"/>
        <pt x="1066" y="0" on="1"/>
        <pt x="1011" y="382" on="1"/>
        <pt x="548" y="382" on="1"/>
        <pt x="331" y="0" on="1"/>
        <pt x="20" y="0" on="1"/>
        <pt x="852" y="1456" on="1"/>
      </contour>
    </TTGlyph>
    <TTGlyph name="Abreve" xMin="20" yMin="0" xMax="1490" yMax="1942">
      <contour>
        <pt x="939" y="1124" on="1"/>
        <pt x="658" y="621" on="1"/>
        <pt x="1005" y="621" on="1"/>
      </contour>
      <contour>
        <pt x="1163" y="1456" on="1"/>
        <pt x="1377" y="0" on="1"/>
        <pt x="1066" y="0" on="1"/>
        <pt x="1011" y="382" on="1"/>
        <pt x="1011" y="382" on="0"/>
        <pt x="548" y="382" on="1"/>
        <pt x="331" y="0" on="1"/>
        <pt x="20" y="0" on="1"/>
        <pt x="852" y="1456" on="1"/>
      </contour>
      <contour>
        <pt x="1364" y="1676" on="1"/>
        <pt x="1308" y="1607" on="0"/>
        <pt x="1130" y="1516" on="0"/>
        <pt x="970" y="1516" on="0"/>
        <pt x="827" y="1609" on="0"/>
        <pt x="773" y="1754" on="0"/>
        <pt x="773" y="1881" on="0"/>
        <pt x="790" y="1942" on="1"/>
        <pt x="951" y="1942" on="1"/>
        <pt x="981" y="1812" on="0"/>
        <pt x="1036" y="1769" on="1"/>
        <pt x="1056" y="1754" on="0"/>
        <pt x="1146" y="1754" on="0"/>
        <pt x="1169" y="1768" on="1"/>
        <pt x="1223" y="1801" on="0"/>
        <pt x="1333" y="1942" on="1"/>
        <pt x="1490" y="1942" on="1"/>
        <pt x="1490" y="1940" on="0"/>
        <pt x="1484" y="1911" on="1"/>
        <pt x="1458" y="1792" on="0"/>
      </contour>
    </TTGlyph>
    <TTGlyph name="Acircumflex" xMin="20" yMin="0" xMax="1436" yMax="1904">
      <contour>
        <pt x="939" y="1124" on="1"/>
        <pt x="658" y="621" on="1"/>
        <pt x="1005" y="621" on="1"/>
      </contour>
      <contour>
        <pt x="1163" y="1456" on="1"/>
        <pt x="1377" y="0" on="1"/>
        <pt x="1066" y="0" on="1"/>
        <pt x="1011" y="382" on="1"/>
        <pt x="1011" y="382" on="0"/>
        <pt x="548" y="382" on="1"/>
        <pt x="331" y="0" on="1"/>
        <pt x="20" y="0" on="1"/>
        <pt x="852" y="1456" on="1"/>
      </contour>
      <contour>
        <pt x="1436" y="1560" on="1"/>
        <pt x="1165" y="1560" on="1"/>
        <pt x="1067" y="1721" on="1"/>
        <pt x="909" y="1563" on="1"/>
        <pt x="632" y="1563" on="1"/>
        <pt x="989" y="1904" on="1"/>
        <pt x="1225" y="1904" on="1"/>
      </contour>
    </TTGlyph>
    <TTGlyph name="Adieresis" xMin="20" yMin="0" xMax="1459" yMax="1827">
      <contour>
        <pt x="939" y="1124" on="1"/>
        <pt x="658" y="621" on="1"/>
        <pt x="1005" y="621" on="1"/>
      </contour>
      <contour>
        <pt x="1163" y="1456" on="1"/>
        <pt x="1377" y="0" on="1"/>
        <pt x="1066" y="0" on="1"/>
        <pt x="1011" y="382" on="1"/>
        <pt x="1011" y="382" on="0"/>
        <pt x="548" y="382" on="1"/>
        <pt x="331" y="0" on="1"/>
        <pt x="20" y="0" on="1"/>
        <pt x="852" y="1456" on="1"/>
      </contour>
      <contour>
        <pt x="653" y="1628" on="1"/>
        <pt x="653" y="1717" on="0"/>
        <pt x="788" y="1827" on="0"/>
        <pt x="923" y="1827" on="0"/>
        <pt x="988" y="1744" on="0"/>
        <pt x="988" y="1712" on="1"/>
        <pt x="988" y="1608" on="0"/>
        <pt x="854" y="1499" on="0"/>
        <pt x="718" y="1499" on="0"/>
        <pt x="653" y="1582" on="0"/>
      </contour>
      <contour>
        <pt x="1124" y="1628" on="1"/>
        <pt x="1124" y="1717" on="0"/>
        <pt x="1258" y="1827" on="0"/>
        <pt x="1394" y="1827" on="0"/>
        <pt x="1459" y="1744" on="0"/>
        <pt x="1459" y="1712" on="1"/>
        <pt x="1459" y="1608" on="0"/>
        <pt x="1324" y="1499" on="0"/>
        <pt x="1189" y="1499" on="0"/>
        <pt x="1124" y="1582" on="0"/>
      </contour>
    </TTGlyph>
    <TTGlyph name="Agrave" xMin="20" yMin="0" xMax="1377" yMax="1945">
      <contour>
        <pt x="1077" y="1533" on="1"/>
        <pt x="815" y="1746" on="1"/>
        <pt x="802" y="1757" on="0"/>
        <pt x="802" y="1772" on="1"/>
        <pt x="802" y="1810" on="0"/>
        <pt x="816" y="1839" on="1"/>
        <pt x="856" y="1918" on="0"/>
        <pt x="942" y="1942" on="1"/>
        <pt x="952" y="1945" on="0"/>
        <pt x="977" y="1945" on="0"/>
        <pt x="987" y="1935" on="1"/>
        <pt x="1218" y="1688" on="1"/>
        <pt x="1222" y="1684" on="0"/>
        <pt x="1222" y="1676" on="1"/>
        <pt x="1222" y="1646" on="0"/>
        <pt x="1208" y="1622" on="1"/>
        <pt x="1188" y="1585" on="0"/>
        <pt x="1153" y="1560" on="1"/>
        <pt x="1109" y="1528" on="0"/>
        <pt x="1082" y="1528" on="0"/>
      </contour>
      <contour>
        <pt x="939" y="1124" on="1"/>
        <pt x="658" y="621" on="1"/>
        <pt x="1005" y="621" on="1"/>
      </contour>
      <contour>
        <pt x="1163" y="1456" on="1"/>
        <pt x="1377" y="0" on="1"/>
        <pt x="1066" y="0" on="1"/>
        <pt x="1011" y="382" on="1"/>
        <pt x="548" y="382" on="1"/>
        <pt x="331" y="0" on="1"/>
        <pt x="20" y="0" on="1"/>
        <pt x="852" y="1456" on="1"/>
      </contour>
    </TTGlyph>
    <TTGlyph name="Alpha" xMin="47" yMin="0" xMax="1374" yMax="1456">
      <contour>
        <pt x="949" y="1048" on="1"/>
        <pt x="700" y="625" on="1"/>
        <pt x="1000" y="625" on="1"/>
      </contour>
      <contour>
        <pt x="1023" y="379" on="1"/>
        <pt x="575" y="379" on="1"/>
        <pt x="358" y="0" on="1"/>
        <pt x="47" y="0" on="1"/>
        <pt x="919" y="1456" on="1"/>
        <pt x="1175" y="1456" on="1"/>
        <pt x="1374" y="0" on="1"/>
        <pt x="1067" y="0" on="1"/>
      </contour>
    </TTGlyph>
    <TTGlyph name="Alphatonos" xMin="47" yMin="0" xMax="1374" yMax="1599">
      <contour>
        <pt x="612" y="1192" on="1"/>
        <pt x="600" y="1167" on="0"/>
        <pt x="526" y="1167" on="0"/>
        <pt x="491" y="1173" on="0"/>
        <pt x="468" y="1191" on="1"/>
        <pt x="432" y="1219" on="0"/>
        <pt x="441" y="1242" on="1"/>
        <pt x="558" y="1552" on="1"/>
        <pt x="567" y="1575" on="0"/>
        <pt x="622" y="1598" on="0"/>
        <pt x="646" y="1599" on="1"/>
        <pt x="659" y="1599" on="1"/>
        <pt x="710" y="1599" on="0"/>
        <pt x="737" y="1575" on="1"/>
        <pt x="785" y="1534" on="0"/>
        <pt x="768" y="1492" on="1"/>
      </contour>
      <contour>
        <pt x="949" y="1048" on="1"/>
        <pt x="700" y="625" on="1"/>
        <pt x="1000" y="625" on="1"/>
      </contour>
      <contour>
        <pt x="1023" y="379" on="1"/>
        <pt x="575" y="379" on="1"/>
        <pt x="358" y="0" on="1"/>
        <pt x="47" y="0" on="1"/>
        <pt x="919" y="1456" on="1"/>
        <pt x="1175" y="1456" on="1"/>
        <pt x="1374" y="0" on="1"/>
        <pt x="1067" y="0" on="1"/>
      </contour>
    </TTGlyph>
    <TTGlyph name="Amacron" xMin="20" yMin="0" xMax="1491" yMax="1813">
      <contour>
        <pt x="939" y="1124" on="1"/>
        <pt x="658" y="621" on="1"/>
        <pt x="1005" y="621" on="1"/>
      </contour>
      <contour>
        <pt x="1163" y="1456" on="1"/>
        <pt x="1377" y="0" on="1"/>
        <pt x="1066" y="0" on="1"/>
        <pt x="1011" y="382" on="1"/>
        <pt x="1011" y="382" on="0"/>
        <pt x="548" y="382" on="1"/>
        <pt x="331" y="0" on="1"/>
        <pt x="20" y="0" on="1"/>
        <pt x="852" y="1456" on="1"/>
      </contour>
      <contour>
        <pt x="719" y="1813" on="1"/>
        <pt x="1491" y="1813" on="1"/>
        <pt x="1464" y="1686" on="1"/>
        <pt x="692" y="1686" on="1"/>
      </contour>
    </TTGlyph>
    <TTGlyph name="Aogonek" xMin="-4" yMin="-344" xMax="1353" yMax="1456">
      <contour>
        <pt x="915" y="1124" on="1"/>
        <pt x="634" y="621" on="1"/>
        <pt x="981" y="621" on="1"/>
      </contour>
      <contour>
        <pt x="1139" y="1456" on="1"/>
        <pt x="1353" y="0" on="1"/>
        <pt x="1042" y="0" on="1"/>
        <pt x="987" y="382" on="1"/>
        <pt x="987" y="382" on="0"/>
        <pt x="524" y="382" on="1"/>
        <pt x="307" y="0" on="1"/>
        <pt x="-4" y="0" on="1"/>
        <pt x="828" y="1456" on="1"/>
      </contour>
      <contour>
        <pt x="1352" y="-217" on="1"/>
        <pt x="1212" y="-344" on="1"/>
        <pt x="1194" y="-335" on="0"/>
        <pt x="1129" y="-293" on="0"/>
        <pt x="1097" y="-273" on="0"/>
        <pt x="1073" y="-249" on="1"/>
        <pt x="1027" y="-203" on="0"/>
        <pt x="1014" y="-151" on="0"/>
        <pt x="1014" y="-120" on="0"/>
        <pt x="1016" y="-112" on="1"/>
        <pt x="1040" y="0" on="0"/>
        <pt x="1168" y="95" on="1"/>
        <pt x="1311" y="5" on="1"/>
        <pt x="1268" y="-32" on="0"/>
        <pt x="1248" y="-85" on="0"/>
        <pt x="1241" y="-120" on="0"/>
        <pt x="1255" y="-140" on="1"/>
        <pt x="1273" y="-165" on="0"/>
        <pt x="1340" y="-211" on="0"/>
      </contour>
    </TTGlyph>
    <TTGlyph name="Aring" xMin="20" yMin="0" xMax="1410" yMax="2096">
      <contour>
        <pt x="939" y="1124" on="1"/>
        <pt x="658" y="621" on="1"/>
        <pt x="1005" y="621" on="1"/>
      </contour>
      <contour>
        <pt x="1163" y="1456" on="1"/>
        <pt x="1377" y="0" on="1"/>
        <pt x="1066" y="0" on="1"/>
        <pt x="1011" y="382" on="1"/>
        <pt x="1011" y="382" on="0"/>
        <pt x="548" y="382" on="1"/>
        <pt x="331" y="0" on="1"/>
        <pt x="20" y="0" on="1"/>
        <pt x="852" y="1456" on="1"/>
      </contour>
      <contour>
        <pt x="1234" y="1868" on="0"/>
        <pt x="1170" y="1934" on="0"/>
        <pt x="1057" y="1934" on="0"/>
        <pt x="938" y="1831" on="0"/>
        <pt x="938" y="1700" on="0"/>
        <pt x="1002" y="1634" on="0"/>
        <pt x="1115" y="1634" on="0"/>
        <pt x="1166" y="1678" on="1"/>
        <pt x="1234" y="1737" on="0"/>
        <pt x="1234" y="1817" on="1"/>
      </contour>
      <contour>
        <pt x="768" y="1784" on="1"/>
        <pt x="796" y="1914" on="0"/>
        <pt x="1021" y="2096" on="0"/>
        <pt x="1267" y="2096" on="0"/>
        <pt x="1410" y="1956" on="0"/>
        <pt x="1410" y="1849" on="1"/>
        <pt x="1410" y="1683" on="0"/>
        <pt x="1264" y="1563" on="1"/>
        <pt x="1152" y="1472" on="0"/>
        <pt x="906" y="1472" on="0"/>
        <pt x="761" y="1613" on="0"/>
        <pt x="761" y="1720" on="1"/>
        <pt x="761" y="1753" on="0"/>
      </contour>
    </TTGlyph>
    <TTGlyph name="Atilde" xMin="20" yMin="0" xMax="1416" yMax="1917">
      <contour>
        <pt x="939" y="1124" on="1"/>
        <pt x="658" y="621" on="1"/>
        <pt x="1005" y="621" on="1"/>
      </contour>
      <contour>
        <pt x="1163" y="1456" on="1"/>
        <pt x="1377" y="0" on="1"/>
        <pt x="1066" y="0" on="1"/>
        <pt x="1011" y="382" on="1"/>
        <pt x="1011" y="382" on="0"/>
        <pt x="548" y="382" on="1"/>
        <pt x="331" y="0" on="1"/>
        <pt x="20" y="0" on="1"/>
        <pt x="852" y="1456" on="1"/>
      </contour>
      <contour>
        <pt x="767" y="1814" on="1"/>
        <pt x="769" y="1815" on="0"/>
        <pt x="846" y="1872" on="0"/>
        <pt x="878" y="1891" on="0"/>
        <pt x="944" y="1917" on="0"/>
        <pt x="998" y="1917" on="0"/>
        <pt x="1049" y="1886" on="0"/>
        <pt x="1091" y="1841" on="0"/>
        <pt x="1112" y="1818" on="1"/>
        <pt x="1162" y="1765" on="0"/>
        <pt x="1247" y="1765" on="0"/>
        <pt x="1333" y="1808" on="0"/>
        <pt x="1372" y="1838" on="0"/>
        <pt x="1416" y="1872" on="1"/>
        <pt x="1361" y="1612" on="1"/>
        <pt x="1355" y="1608" on="0"/>
        <pt x="1295" y="1565" on="0"/>
        <pt x="1276" y="1554" on="1"/>
        <pt x="1217" y="1518" on="0"/>
        <pt x="1124" y="1518" on="0"/>
        <pt x="1051" y="1566" on="0"/>
        <pt x="1003" y="1622" on="0"/>
        <pt x="943" y="1670" on="0"/>
        <pt x="889" y="1670" on="0"/>
        <pt x="833" y="1650" on="0"/>
        <pt x="798" y="1629" on="0"/>
        <pt x="731" y="1583" on="0"/>
        <pt x="715" y="1573" on="1"/>
      </contour>
    </TTGlyph>
    <TTGlyph name="B" xMin="115" yMin="0" xMax="1312" yMax="1456">
      <contour>
        <pt x="519" y="638" on="1"/>
        <pt x="434" y="240" on="1"/>
        <pt x="661" y="240" on="1"/>
        <pt x="942" y="240" on="0"/>
        <pt x="984" y="439" on="1"/>
        <pt x="990" y="464" on="0"/>
        <pt x="990" y="488" on="1"/>
        <pt x="990" y="638" on="0"/>
        <pt x="746" y="638" on="1"/>
      </contour>
      <contour>
        <pt x="641" y="1216" on="1"/>
        <pt x="570" y="878" on="1"/>
        <pt x="738" y="878" on="1"/>
        <pt x="876" y="878" on="0"/>
        <pt x="945" y="926" on="1"/>
        <pt x="1033" y="988" on="0"/>
        <pt x="1033" y="1079" on="1"/>
        <pt x="1033" y="1138" on="0"/>
        <pt x="929" y="1216" on="0"/>
        <pt x="809" y="1216" on="1"/>
      </contour>
      <contour>
        <pt x="424" y="1456" on="1"/>
        <pt x="860" y="1456" on="1"/>
        <pt x="1157" y="1456" on="0"/>
        <pt x="1259" y="1321" on="1"/>
        <pt x="1312" y="1251" on="0"/>
        <pt x="1312" y="1155" on="1"/>
        <pt x="1312" y="1113" on="0"/>
        <pt x="1302" y="1070" on="1"/>
        <pt x="1279" y="961" on="0"/>
        <pt x="1136" y="826" on="0"/>
        <pt x="1035" y="797" on="1"/>
        <pt x="1148" y="768" on="0"/>
        <pt x="1258" y="596" on="0"/>
        <pt x="1258" y="499" on="1"/>
        <pt x="1258" y="405" on="0"/>
        <pt x="1194" y="285" on="1"/>
        <pt x="1080" y="71" on="0"/>
        <pt x="812" y="16" on="1"/>
        <pt x="732" y="0" on="0"/>
        <pt x="640" y="0" on="1"/>
        <pt x="115" y="0" on="1"/>
      </contour>
    </TTGlyph>
    <TTGlyph name="Bdotaccent" xMin="115" yMin="0" xMax="1312" yMax="1921">
      <contour>
        <pt x="810" y="1722" on="1"/>
        <pt x="810" y="1811" on="0"/>
        <pt x="944" y="1921" on="0"/>
        <pt x="1080" y="1921" on="0"/>
        <pt x="1145" y="1839" on="0"/>
        <pt x="1145" y="1806" on="1"/>
        <pt x="1145" y="1702" on="0"/>
        <pt x="1010" y="1593" on="0"/>
        <pt x="875" y="1593" on="0"/>
        <pt x="810" y="1677" on="0"/>
      </contour>
      <contour>
        <pt x="519" y="638" on="1"/>
        <pt x="434" y="240" on="1"/>
        <pt x="661" y="240" on="1"/>
        <pt x="942" y="240" on="0"/>
        <pt x="984" y="439" on="1"/>
        <pt x="990" y="464" on="0"/>
        <pt x="990" y="488" on="1"/>
        <pt x="990" y="638" on="0"/>
        <pt x="746" y="638" on="1"/>
      </contour>
      <contour>
        <pt x="641" y="1216" on="1"/>
        <pt x="570" y="878" on="1"/>
        <pt x="738" y="878" on="1"/>
        <pt x="876" y="878" on="0"/>
        <pt x="945" y="926" on="1"/>
        <pt x="1033" y="988" on="0"/>
        <pt x="1033" y="1079" on="1"/>
        <pt x="1033" y="1138" on="0"/>
        <pt x="929" y="1216" on="0"/>
        <pt x="809" y="1216" on="1"/>
      </contour>
      <contour>
        <pt x="424" y="1456" on="1"/>
        <pt x="860" y="1456" on="1"/>
        <pt x="1157" y="1456" on="0"/>
        <pt x="1259" y="1321" on="1"/>
        <pt x="1312" y="1251" on="0"/>
        <pt x="1312" y="1155" on="1"/>
        <pt x="1312" y="1113" on="0"/>
        <pt x="1302" y="1070" on="1"/>
        <pt x="1279" y="961" on="0"/>
        <pt x="1136" y="826" on="0"/>
        <pt x="1035" y="797" on="1"/>
        <pt x="1148" y="768" on="0"/>
        <pt x="1258" y="596" on="0"/>
        <pt x="1258" y="499" on="1"/>
        <pt x="1258" y="405" on="0"/>
        <pt x="1194" y="285" on="1"/>
        <pt x="1080" y="71" on="0"/>
        <pt x="812" y="16" on="1"/>
        <pt x="732" y="0" on="0"/>
        <pt x="640" y="0" on="1"/>
        <pt x="115" y="0" on="1"/>
      </contour>
    </TTGlyph>
    <TTGlyph name="Beta" xMin="119" yMin="0" xMax="1313" yMax="1456">
      <contour>
        <pt x="523" y="639" on="1"/>
        <pt x="438" y="240" on="1"/>
        <pt x="665" y="240" on="1"/>
        <pt x="820" y="240" on="0"/>
        <pt x="897" y="298" on="1"/>
        <pt x="999" y="375" on="0"/>
        <pt x="999" y="492" on="1"/>
        <pt x="999" y="639" on="0"/>
        <pt x="750" y="639" on="1"/>
      </contour>
      <contour>
        <pt x="646" y="1219" on="1"/>
        <pt x="573" y="877" on="1"/>
        <pt x="741" y="877" on="1"/>
        <pt x="878" y="877" on="0"/>
        <pt x="949" y="928" on="1"/>
        <pt x="1038" y="993" on="0"/>
        <pt x="1038" y="1082" on="1"/>
        <pt x="1038" y="1131" on="0"/>
        <pt x="950" y="1219" on="0"/>
        <pt x="814" y="1219" on="1"/>
      </contour>
      <contour>
        <pt x="1313" y="1156" on="1"/>
        <pt x="1303" y="984" on="0"/>
        <pt x="1209" y="894" on="1"/>
        <pt x="1137" y="825" on="0"/>
        <pt x="1039" y="797" on="1"/>
        <pt x="1130" y="775" on="0"/>
        <pt x="1243" y="640" on="0"/>
        <pt x="1263" y="538" on="0"/>
        <pt x="1263" y="506" on="1"/>
        <pt x="1263" y="359" on="0"/>
        <pt x="1154" y="218" on="1"/>
        <pt x="1054" y="87" on="0"/>
        <pt x="875" y="32" on="1"/>
        <pt x="770" y="0" on="0"/>
        <pt x="644" y="0" on="1"/>
        <pt x="119" y="0" on="1"/>
        <pt x="428" y="1456" on="1"/>
        <pt x="864" y="1456" on="1"/>
        <pt x="1199" y="1456" on="0"/>
        <pt x="1285" y="1284" on="1"/>
        <pt x="1313" y="1228" on="0"/>
      </contour>
    </TTGlyph>
    <TTGlyph name="C" xMin="231" yMin="-29" xMax="1505" yMax="1485">
      <contour>
        <pt x="1208" y="969" on="1"/>
        <pt x="1208" y="1119" on="0"/>
        <pt x="1108" y="1201" on="1"/>
        <pt x="1055" y="1245" on="0"/>
        <pt x="906" y="1245" on="0"/>
        <pt x="777" y="1184" on="0"/>
        <pt x="682" y="1084" on="0"/>
        <pt x="643" y="1015" on="1"/>
        <pt x="573" y="891" on="0"/>
        <pt x="514" y="616" on="0"/>
        <pt x="514" y="385" on="0"/>
        <pt x="631" y="211" on="0"/>
        <pt x="870" y="211" on="0"/>
        <pt x="1059" y="377" on="0"/>
        <pt x="1105" y="483" on="1"/>
        <pt x="1399" y="483" on="1"/>
        <pt x="1337" y="298" on="0"/>
        <pt x="1156" y="140" on="1"/>
        <pt x="1069" y="65" on="0"/>
        <pt x="834" y="-29" on="0"/>
        <pt x="605" y="-29" on="0"/>
        <pt x="440" y="30" on="0"/>
        <pt x="333" y="131" on="0"/>
        <pt x="297" y="201" on="1"/>
        <pt x="231" y="329" on="0"/>
        <pt x="231" y="509" on="1"/>
        <pt x="231" y="849" on="0"/>
        <pt x="430" y="1140" on="1"/>
        <pt x="575" y="1354" on="0"/>
        <pt x="785" y="1438" on="1"/>
        <pt x="901" y="1485" on="0"/>
        <pt x="1126" y="1485" on="0"/>
        <pt x="1286" y="1429" on="0"/>
        <pt x="1394" y="1335" on="0"/>
        <pt x="1432" y="1273" on="1"/>
        <pt x="1505" y="1154" on="0"/>
        <pt x="1505" y="1010" on="1"/>
        <pt x="1505" y="995" on="0"/>
        <pt x="1503" y="969" on="1"/>
      </contour>
    </TTGlyph>
    <TTGlyph name="Cacute" xMin="231" yMin="-29" xMax="1505" yMax="1945">
      <contour>
        <pt x="1208" y="969" on="1"/>
        <pt x="1208" y="1119" on="0"/>
        <pt x="1108" y="1201" on="1"/>
        <pt x="1055" y="1245" on="0"/>
        <pt x="906" y="1245" on="0"/>
        <pt x="777" y="1184" on="0"/>
        <pt x="682" y="1084" on="0"/>
        <pt x="643" y="1015" on="1"/>
        <pt x="573" y="891" on="0"/>
        <pt x="514" y="616" on="0"/>
        <pt x="514" y="385" on="0"/>
        <pt x="631" y="211" on="0"/>
        <pt x="870" y="211" on="0"/>
        <pt x="1059" y="377" on="0"/>
        <pt x="1105" y="483" on="1"/>
        <pt x="1399" y="483" on="1"/>
        <pt x="1337" y="298" on="0"/>
        <pt x="1156" y="140" on="1"/>
        <pt x="1069" y="65" on="0"/>
        <pt x="834" y="-29" on="0"/>
        <pt x="605" y="-29" on="0"/>
        <pt x="440" y="30" on="0"/>
        <pt x="333" y="131" on="0"/>
        <pt x="297" y="201" on="1"/>
        <pt x="231" y="329" on="0"/>
        <pt x="231" y="509" on="1"/>
        <pt x="231" y="849" on="0"/>
        <pt x="430" y="1140" on="1"/>
        <pt x="575" y="1354" on="0"/>
        <pt x="785" y="1438" on="1"/>
        <pt x="901" y="1485" on="0"/>
        <pt x="1126" y="1485" on="0"/>
        <pt x="1286" y="1429" on="0"/>
        <pt x="1394" y="1335" on="0"/>
        <pt x="1432" y="1273" on="1"/>
        <pt x="1505" y="1154" on="0"/>
        <pt x="1505" y="1010" on="1"/>
        <pt x="1505" y="995" on="0"/>
        <pt x="1503" y="969" on="1"/>
      </contour>
      <contour>
        <pt x="1007" y="1528" on="1"/>
        <pt x="975" y="1528" on="0"/>
        <pt x="942" y="1580" on="1"/>
        <pt x="915" y="1622" on="0"/>
        <pt x="936" y="1675" on="1"/>
        <pt x="939" y="1683" on="0"/>
        <pt x="947" y="1688" on="1"/>
        <pt x="1281" y="1935" on="1"/>
        <pt x="1294" y="1945" on="0"/>
        <pt x="1307" y="1945" on="1"/>
        <pt x="1362" y="1945" on="0"/>
        <pt x="1397" y="1888" on="1"/>
        <pt x="1410" y="1868" on="0"/>
        <pt x="1410" y="1842" on="1"/>
        <pt x="1410" y="1771" on="0"/>
        <pt x="1374" y="1746" on="1"/>
        <pt x="1021" y="1533" on="1"/>
        <pt x="1013" y="1528" on="0"/>
      </contour>
    </TTGlyph>
    <TTGlyph name="Ccaron" xMin="231" yMin="-29" xMax="1526" yMax="1906">
      <contour>
        <pt x="1208" y="969" on="1"/>
        <pt x="1208" y="1119" on="0"/>
        <pt x="1108" y="1201" on="1"/>
        <pt x="1055" y="1245" on="0"/>
        <pt x="906" y="1245" on="0"/>
        <pt x="777" y="1184" on="0"/>
        <pt x="682" y="1084" on="0"/>
        <pt x="643" y="1015" on="1"/>
        <pt x="573" y="891" on="0"/>
        <pt x="514" y="616" on="0"/>
        <pt x="514" y="385" on="0"/>
        <pt x="631" y="211" on="0"/>
        <pt x="870" y="211" on="0"/>
        <pt x="1059" y="377" on="0"/>
        <pt x="1105" y="483" on="1"/>
        <pt x="1399" y="483" on="1"/>
        <pt x="1337" y="298" on="0"/>
        <pt x="1156" y="140" on="1"/>
        <pt x="1069" y="65" on="0"/>
        <pt x="834" y="-29" on="0"/>
        <pt x="605" y="-29" on="0"/>
        <pt x="440" y="30" on="0"/>
        <pt x="333" y="131" on="0"/>
        <pt x="297" y="201" on="1"/>
        <pt x="231" y="329" on="0"/>
        <pt x="231" y="509" on="1"/>
        <pt x="231" y="849" on="0"/>
        <pt x="430" y="1140" on="1"/>
        <pt x="575" y="1354" on="0"/>
        <pt x="785" y="1438" on="1"/>
        <pt x="901" y="1485" on="0"/>
        <pt x="1126" y="1485" on="0"/>
        <pt x="1286" y="1429" on="0"/>
        <pt x="1394" y="1335" on="0"/>
        <pt x="1432" y="1273" on="1"/>
        <pt x="1505" y="1154" on="0"/>
        <pt x="1505" y="1010" on="1"/>
        <pt x="1505" y="995" on="0"/>
        <pt x="1503" y="969" on="1"/>
      </contour>
      <contour>
        <pt x="1526" y="1906" on="1"/>
        <pt x="1169" y="1562" on="1"/>
        <pt x="933" y="1562" on="1"/>
        <pt x="721" y="1903" on="1"/>
        <pt x="998" y="1903" on="1"/>
        <pt x="1089" y="1745" on="1"/>
        <pt x="1255" y="1906" on="1"/>
      </contour>
    </TTGlyph>
    <TTGlyph name="Ccedilla" xMin="241" yMin="-474" xMax="1515" yMax="1485">
      <contour>
        <pt x="1218" y="969" on="1"/>
        <pt x="1218" y="1119" on="0"/>
        <pt x="1118" y="1201" on="1"/>
        <pt x="1065" y="1245" on="0"/>
        <pt x="916" y="1245" on="0"/>
        <pt x="787" y="1184" on="0"/>
        <pt x="692" y="1084" on="0"/>
        <pt x="653" y="1015" on="1"/>
        <pt x="583" y="891" on="0"/>
        <pt x="524" y="616" on="0"/>
        <pt x="524" y="385" on="0"/>
        <pt x="641" y="211" on="0"/>
        <pt x="880" y="211" on="0"/>
        <pt x="1069" y="377" on="0"/>
        <pt x="1115" y="483" on="1"/>
        <pt x="1409" y="483" on="1"/>
        <pt x="1347" y="298" on="0"/>
        <pt x="1166" y="140" on="1"/>
        <pt x="1079" y="65" on="0"/>
        <pt x="844" y="-29" on="0"/>
        <pt x="615" y="-29" on="0"/>
        <pt x="450" y="30" on="0"/>
        <pt x="343" y="131" on="0"/>
        <pt x="307" y="201" on="1"/>
        <pt x="241" y="329" on="0"/>
        <pt x="241" y="509" on="1"/>
        <pt x="241" y="849" on="0"/>
        <pt x="440" y="1140" on="1"/>
        <pt x="585" y="1354" on="0"/>
        <pt x="795" y="1438" on="1"/>
        <pt x="911" y="1485" on="0"/>
        <pt x="1136" y="1485" on="0"/>
        <pt x="1296" y="1429" on="0"/>
        <pt x="1404" y="1335" on="0"/>
        <pt x="1442" y="1273" on="1"/>
        <pt x="1515" y="1154" on="0"/>
        <pt x="1515" y="1010" on="1"/>
        <pt x="1515" y="995" on="0"/>
        <pt x="1513" y="969" on="1"/>
      </contour>
      <contour>
        <pt x="429" y="-347" on="1"/>
        <pt x="433" y="-345" on="0"/>
        <pt x="460" y="-331" on="0"/>
        <pt x="475" y="-324" on="0"/>
        <pt x="503" y="-309" on="0"/>
        <pt x="520" y="-299" on="0"/>
        <pt x="543" y="-284" on="0"/>
        <pt x="559" y="-271" on="0"/>
        <pt x="566" y="-264" on="1"/>
        <pt x="590" y="-242" on="0"/>
        <pt x="590" y="-159" on="0"/>
        <pt x="564" y="-125" on="1"/>
        <pt x="746" y="-35" on="1"/>
        <pt x="814" y="-109" on="0"/>
        <pt x="814" y="-199" on="1"/>
        <pt x="814" y="-222" on="0"/>
        <pt x="810" y="-242" on="1"/>
        <pt x="787" y="-347" on="0"/>
        <pt x="531" y="-466" on="1"/>
        <pt x="520" y="-472" on="0"/>
        <pt x="515" y="-474" on="1"/>
      </contour>
    </TTGlyph>
    <TTGlyph name="Ccircumflex" xMin="231" yMin="-29" xMax="1505" yMax="1906">
      <contour>
        <pt x="1208" y="969" on="1"/>
        <pt x="1208" y="1119" on="0"/>
        <pt x="1108" y="1201" on="1"/>
        <pt x="1055" y="1245" on="0"/>
        <pt x="906" y="1245" on="0"/>
        <pt x="777" y="1184" on="0"/>
        <pt x="682" y="1084" on="0"/>
        <pt x="643" y="1015" on="1"/>
        <pt x="573" y="891" on="0"/>
        <pt x="514" y="616" on="0"/>
        <pt x="514" y="385" on="0"/>
        <pt x="631" y="211" on="0"/>
        <pt x="870" y="211" on="0"/>
        <pt x="1059" y="377" on="0"/>
        <pt x="1105" y="483" on="1"/>
        <pt x="1399" y="483" on="1"/>
        <pt x="1337" y="298" on="0"/>
        <pt x="1156" y="140" on="1"/>
        <pt x="1069" y="65" on="0"/>
        <pt x="834" y="-29" on="0"/>
        <pt x="605" y="-29" on="0"/>
        <pt x="440" y="30" on="0"/>
        <pt x="333" y="131" on="0"/>
        <pt x="297" y="201" on="1"/>
        <pt x="231" y="329" on="0"/>
        <pt x="231" y="509" on="1"/>
        <pt x="231" y="849" on="0"/>
        <pt x="430" y="1140" on="1"/>
        <pt x="575" y="1354" on="0"/>
        <pt x="785" y="1438" on="1"/>
        <pt x="901" y="1485" on="0"/>
        <pt x="1126" y="1485" on="0"/>
        <pt x="1286" y="1429" on="0"/>
        <pt x="1394" y="1335" on="0"/>
        <pt x="1432" y="1273" on="1"/>
        <pt x="1505" y="1154" on="0"/>
        <pt x="1505" y="1010" on="1"/>
        <pt x="1505" y="995" on="0"/>
        <pt x="1503" y="969" on="1"/>
      </contour>
      <contour>
        <pt x="1453" y="1562" on="1"/>
        <pt x="1182" y="1562" on="1"/>
        <pt x="1084" y="1723" on="1"/>
        <pt x="927" y="1565" on="1"/>
        <pt x="650" y="1565" on="1"/>
        <pt x="1006" y="1906" on="1"/>
        <pt x="1242" y="1906" on="1"/>
      </contour>
    </TTGlyph>
    <TTGlyph name="Cdotaccent" xMin="231" yMin="-29" xMax="1505" yMax="1870">
      <contour>
        <pt x="1208" y="969" on="1"/>
        <pt x="1208" y="1119" on="0"/>
        <pt x="1108" y="1201" on="1"/>
        <pt x="1055" y="1245" on="0"/>
        <pt x="906" y="1245" on="0"/>
        <pt x="777" y="1184" on="0"/>
        <pt x="682" y="1084" on="0"/>
        <pt x="643" y="1015" on="1"/>
        <pt x="573" y="891" on="0"/>
        <pt x="514" y="616" on="0"/>
        <pt x="514" y="385" on="0"/>
        <pt x="631" y="211" on="0"/>
        <pt x="870" y="211" on="0"/>
        <pt x="1059" y="377" on="0"/>
        <pt x="1105" y="483" on="1"/>
        <pt x="1399" y="483" on="1"/>
        <pt x="1337" y="298" on="0"/>
        <pt x="1156" y="140" on="1"/>
        <pt x="1069" y="65" on="0"/>
        <pt x="834" y="-29" on="0"/>
        <pt x="605" y="-29" on="0"/>
        <pt x="440" y="30" on="0"/>
        <pt x="333" y="131" on="0"/>
        <pt x="297" y="201" on="1"/>
        <pt x="231" y="329" on="0"/>
        <pt x="231" y="509" on="1"/>
        <pt x="231" y="849" on="0"/>
        <pt x="430" y="1140" on="1"/>
        <pt x="575" y="1354" on="0"/>
        <pt x="785" y="1438" on="1"/>
        <pt x="901" y="1485" on="0"/>
        <pt x="1126" y="1485" on="0"/>
        <pt x="1286" y="1429" on="0"/>
        <pt x="1394" y="1335" on="0"/>
        <pt x="1432" y="1273" on="1"/>
        <pt x="1505" y="1154" on="0"/>
        <pt x="1505" y="1010" on="1"/>
        <pt x="1505" y="995" on="0"/>
        <pt x="1503" y="969" on="1"/>
      </contour>
      <contour>
        <pt x="918" y="1671" on="1"/>
        <pt x="918" y="1761" on="0"/>
        <pt x="1052" y="1870" on="0"/>
        <pt x="1188" y="1870" on="0"/>
        <pt x="1254" y="1786" on="0"/>
        <pt x="1254" y="1754" on="1"/>
        <pt x="1254" y="1652" on="0"/>
        <pt x="1118" y="1542" on="0"/>
        <pt x="983" y="1542" on="0"/>
        <pt x="918" y="1626" on="0"/>
      </contour>
    </TTGlyph>
    <TTGlyph name="Chi" xMin="53" yMin="0" xMax="1528" yMax="1456">
      <contour>
        <pt x="368" y="1456" on="1"/>
        <pt x="677" y="1456" on="1"/>
        <pt x="840" y="955" on="1"/>
        <pt x="1218" y="1456" on="1"/>
        <pt x="1528" y="1456" on="1"/>
        <pt x="950" y="727" on="1"/>
        <pt x="1225" y="0" on="1"/>
        <pt x="888" y="0" on="1"/>
        <pt x="735" y="460" on="1"/>
        <pt x="390" y="0" on="1"/>
        <pt x="53" y="0" on="1"/>
        <pt x="635" y="727" on="1"/>
      </contour>
    </TTGlyph>
    <TTGlyph name="D" xMin="115" yMin="0" xMax="1376" yMax="1456">
      <contour>
        <pt x="1073" y="752" on="1"/>
        <pt x="1088" y="822" on="0"/>
        <pt x="1088" y="885" on="1"/>
        <pt x="1088" y="1036" on="0"/>
        <pt x="927" y="1217" on="0"/>
        <pt x="781" y="1217" on="1"/>
        <pt x="642" y="1217" on="1"/>
        <pt x="434" y="240" on="1"/>
        <pt x="573" y="240" on="1"/>
        <pt x="752" y="240" on="0"/>
        <pt x="1023" y="519" on="0"/>
      </contour>
      <contour>
        <pt x="1376" y="935" on="1"/>
        <pt x="1376" y="849" on="0"/>
        <pt x="1322" y="593" on="0"/>
        <pt x="1173" y="315" on="0"/>
        <pt x="971" y="115" on="0"/>
        <pt x="716" y="0" on="0"/>
        <pt x="582" y="0" on="1"/>
        <pt x="115" y="0" on="1"/>
        <pt x="424" y="1456" on="1"/>
        <pt x="891" y="1456" on="1"/>
        <pt x="1118" y="1456" on="0"/>
        <pt x="1376" y="1166" on="0"/>
      </contour>
    </TTGlyph>
    <TTGlyph name="Dcaron" xMin="115" yMin="0" xMax="1412" yMax="1906">
      <contour>
        <pt x="1073" y="752" on="1"/>
        <pt x="1088" y="822" on="0"/>
        <pt x="1088" y="885" on="1"/>
        <pt x="1088" y="1036" on="0"/>
        <pt x="927" y="1217" on="0"/>
        <pt x="781" y="1217" on="1"/>
        <pt x="642" y="1217" on="1"/>
        <pt x="434" y="240" on="1"/>
        <pt x="573" y="240" on="1"/>
        <pt x="752" y="240" on="0"/>
        <pt x="1023" y="519" on="0"/>
      </contour>
      <contour>
        <pt x="1376" y="935" on="1"/>
        <pt x="1376" y="849" on="0"/>
        <pt x="1322" y="593" on="0"/>
        <pt x="1173" y="315" on="0"/>
        <pt x="971" y="115" on="0"/>
        <pt x="716" y="0" on="0"/>
        <pt x="582" y="0" on="1"/>
        <pt x="115" y="0" on="1"/>
        <pt x="424" y="1456" on="1"/>
        <pt x="891" y="1456" on="1"/>
        <pt x="1118" y="1456" on="0"/>
        <pt x="1376" y="1166" on="0"/>
      </contour>
      <contour>
        <pt x="1412" y="1906" on="1"/>
        <pt x="1055" y="1562" on="1"/>
        <pt x="819" y="1562" on="1"/>
        <pt x="607" y="1903" on="1"/>
        <pt x="884" y="1903" on="1"/>
        <pt x="975" y="1745" on="1"/>
        <pt x="1141" y="1906" on="1"/>
      </contour>
    </TTGlyph>
    <TTGlyph name="Dcroat" xMin="260" yMin="0" xMax="1532" yMax="1456">
      <contour>
        <pt x="390" y="612" on="1"/>
        <pt x="265" y="612" on="1"/>
        <pt x="316" y="851" on="1"/>
        <pt x="441" y="851" on="1"/>
        <pt x="569" y="1456" on="1"/>
        <pt x="1005" y="1456" on="1"/>
        <pt x="1152" y="1456" on="0"/>
        <pt x="1266" y="1398" on="1"/>
        <pt x="1484" y="1288" on="0"/>
        <pt x="1525" y="1012" on="1"/>
        <pt x="1532" y="966" on="0"/>
        <pt x="1532" y="818" on="0"/>
        <pt x="1482" y="581" on="0"/>
        <pt x="1403" y="444" on="1"/>
        <pt x="1245" y="168" on="0"/>
        <pt x="977" y="56" on="1"/>
        <pt x="843" y="0" on="0"/>
        <pt x="696" y="0" on="1"/>
        <pt x="260" y="0" on="1"/>
      </contour>
      <contour>
        <pt x="658" y="612" on="1"/>
        <pt x="580" y="243" on="1"/>
        <pt x="748" y="243" on="1"/>
        <pt x="919" y="243" on="0"/>
        <pt x="1201" y="515" on="0"/>
        <pt x="1245" y="727" on="1"/>
        <pt x="1260" y="795" on="0"/>
        <pt x="1260" y="991" on="0"/>
        <pt x="1207" y="1076" on="1"/>
        <pt x="1124" y="1211" on="0"/>
        <pt x="953" y="1211" on="1"/>
        <pt x="784" y="1211" on="1"/>
        <pt x="708" y="851" on="1"/>
        <pt x="955" y="851" on="1"/>
        <pt x="904" y="612" on="1"/>
      </contour>
    </TTGlyph>
    <TTGlyph name="Ddotaccent" xMin="115" yMin="0" xMax="1376" yMax="1921">
      <contour>
        <pt x="822" y="1722" on="1"/>
        <pt x="822" y="1811" on="0"/>
        <pt x="956" y="1921" on="0"/>
        <pt x="1092" y="1921" on="0"/>
        <pt x="1157" y="1839" on="0"/>
        <pt x="1157" y="1806" on="1"/>
        <pt x="1157" y="1702" on="0"/>
        <pt x="1022" y="1593" on="0"/>
        <pt x="887" y="1593" on="0"/>
        <pt x="822" y="1677" on="0"/>
      </contour>
      <contour>
        <pt x="1073" y="752" on="1"/>
        <pt x="1088" y="822" on="0"/>
        <pt x="1088" y="885" on="1"/>
        <pt x="1088" y="1036" on="0"/>
        <pt x="927" y="1217" on="0"/>
        <pt x="781" y="1217" on="1"/>
        <pt x="642" y="1217" on="1"/>
        <pt x="434" y="240" on="1"/>
        <pt x="573" y="240" on="1"/>
        <pt x="752" y="240" on="0"/>
        <pt x="1023" y="519" on="0"/>
      </contour>
      <contour>
        <pt x="1376" y="935" on="1"/>
        <pt x="1376" y="849" on="0"/>
        <pt x="1322" y="593" on="0"/>
        <pt x="1173" y="315" on="0"/>
        <pt x="971" y="115" on="0"/>
        <pt x="716" y="0" on="0"/>
        <pt x="582" y="0" on="1"/>
        <pt x="115" y="0" on="1"/>
        <pt x="424" y="1456" on="1"/>
        <pt x="891" y="1456" on="1"/>
        <pt x="1118" y="1456" on="0"/>
        <pt x="1376" y="1166" on="0"/>
      </contour>
    </TTGlyph>
    <TTGlyph name="Delta" xMin="108" yMin="0" xMax="1440" yMax="1456">
      <contour>
        <pt x="108" y="0" on="1"/>
        <pt x="950" y="1456" on="1"/>
        <pt x="1220" y="1456" on="1"/>
        <pt x="1440" y="0" on="1"/>
      </contour>
      <contour>
        <pt x="558" y="240" on="1"/>
        <pt x="1100" y="240" on="1"/>
        <pt x="994" y="1032" on="1"/>
      </contour>
    </TTGlyph>
    <TTGlyph name="E" xMin="115" yMin="0" xMax="1406" yMax="1456">
      <contour>
        <pt x="424" y="1456" on="1"/>
        <pt x="1406" y="1456" on="1"/>
        <pt x="1355" y="1216" on="1"/>
        <pt x="641" y="1216" on="1"/>
        <pt x="567" y="866" on="1"/>
        <pt x="1218" y="866" on="1"/>
        <pt x="1167" y="626" on="1"/>
        <pt x="516" y="626" on="1"/>
        <pt x="434" y="240" on="1"/>
        <pt x="1148" y="240" on="1"/>
        <pt x="1097" y="0" on="1"/>
        <pt x="115" y="0" on="1"/>
      </contour>
    </TTGlyph>
    <TTGlyph name="Eacute" xMin="115" yMin="0" xMax="1406" yMax="1945">
      <contour>
        <pt x="961" y="1533" on="1"/>
        <pt x="953" y="1528" on="0"/>
        <pt x="949" y="1528" on="1"/>
        <pt x="915" y="1528" on="0"/>
        <pt x="881" y="1581" on="1"/>
        <pt x="873" y="1594" on="0"/>
        <pt x="870" y="1620" on="1"/>
        <pt x="865" y="1675" on="0"/>
        <pt x="887" y="1688" on="1"/>
        <pt x="1221" y="1935" on="1"/>
        <pt x="1234" y="1945" on="0"/>
        <pt x="1247" y="1945" on="1"/>
        <pt x="1302" y="1945" on="0"/>
        <pt x="1337" y="1888" on="1"/>
        <pt x="1350" y="1867" on="0"/>
        <pt x="1350" y="1842" on="1"/>
        <pt x="1350" y="1771" on="0"/>
        <pt x="1314" y="1746" on="1"/>
      </contour>
      <contour>
        <pt x="424" y="1456" on="1"/>
        <pt x="1406" y="1456" on="1"/>
        <pt x="1355" y="1216" on="1"/>
        <pt x="641" y="1216" on="1"/>
        <pt x="567" y="866" on="1"/>
        <pt x="1218" y="866" on="1"/>
        <pt x="1167" y="626" on="1"/>
        <pt x="516" y="626" on="1"/>
        <pt x="434" y="240" on="1"/>
        <pt x="1148" y="240" on="1"/>
        <pt x="1097" y="0" on="1"/>
        <pt x="115" y="0" on="1"/>
      </contour>
    </TTGlyph>
    <TTGlyph name="Ebreve" xMin="115" yMin="0" xMax="1406" yMax="1942">
      <contour>
        <pt x="424" y="1456" on="1"/>
        <pt x="1406" y="1456" on="1"/>
        <pt x="1355" y="1216" on="1"/>
        <pt x="641" y="1216" on="1"/>
        <pt x="567" y="866" on="1"/>
        <pt x="1218" y="866" on="1"/>
        <pt x="1167" y="626" on="1"/>
        <pt x="516" y="626" on="1"/>
        <pt x="434" y="240" on="1"/>
        <pt x="1148" y="240" on="1"/>
        <pt x="1097" y="0" on="1"/>
        <pt x="115" y="0" on="1"/>
      </contour>
      <contour>
        <pt x="1224" y="1676" on="1"/>
        <pt x="1168" y="1607" on="0"/>
        <pt x="990" y="1516" on="0"/>
        <pt x="830" y="1516" on="0"/>
        <pt x="687" y="1609" on="0"/>
        <pt x="633" y="1754" on="0"/>
        <pt x="633" y="1881" on="0"/>
        <pt x="650" y="1942" on="1"/>
        <pt x="811" y="1942" on="1"/>
        <pt x="841" y="1812" on="0"/>
        <pt x="896" y="1769" on="1"/>
        <pt x="916" y="1754" on="0"/>
        <pt x="1006" y="1754" on="0"/>
        <pt x="1029" y="1768" on="1"/>
        <pt x="1083" y="1801" on="0"/>
        <pt x="1193" y="1942" on="1"/>
        <pt x="1350" y="1942" on="1"/>
        <pt x="1350" y="1940" on="0"/>
        <pt x="1344" y="1911" on="1"/>
        <pt x="1318" y="1792" on="0"/>
      </contour>
    </TTGlyph>
    <TTGlyph name="Ecaron" xMin="115" yMin="0" xMax="1442" yMax="1906">
      <contour>
        <pt x="424" y="1456" on="1"/>
        <pt x="1406" y="1456" on="1"/>
        <pt x="1355" y="1216" on="1"/>
        <pt x="641" y="1216" on="1"/>
        <pt x="567" y="866" on="1"/>
        <pt x="1218" y="866" on="1"/>
        <pt x="1167" y="626" on="1"/>
        <pt x="516" y="626" on="1"/>
        <pt x="434" y="240" on="1"/>
        <pt x="1148" y="240" on="1"/>
        <pt x="1097" y="0" on="1"/>
        <pt x="115" y="0" on="1"/>
      </contour>
      <contour>
        <pt x="1442" y="1906" on="1"/>
        <pt x="1085" y="1562" on="1"/>
        <pt x="849" y="1562" on="1"/>
        <pt x="637" y="1903" on="1"/>
        <pt x="914" y="1903" on="1"/>
        <pt x="1005" y="1745" on="1"/>
        <pt x="1171" y="1906" on="1"/>
      </contour>
    </TTGlyph>
    <TTGlyph name="Ecircumflex" xMin="115" yMin="0" xMax="1406" yMax="1881">
      <contour>
        <pt x="424" y="1456" on="1"/>
        <pt x="1406" y="1456" on="1"/>
        <pt x="1355" y="1216" on="1"/>
        <pt x="641" y="1216" on="1"/>
        <pt x="567" y="866" on="1"/>
        <pt x="1218" y="866" on="1"/>
        <pt x="1167" y="626" on="1"/>
        <pt x="516" y="626" on="1"/>
        <pt x="434" y="240" on="1"/>
        <pt x="1148" y="240" on="1"/>
        <pt x="1097" y="0" on="1"/>
        <pt x="115" y="0" on="1"/>
      </contour>
      <contour>
        <pt x="1376" y="1537" on="1"/>
        <pt x="1105" y="1537" on="1"/>
        <pt x="1007" y="1698" on="1"/>
        <pt x="849" y="1540" on="1"/>
        <pt x="572" y="1540" on="1"/>
        <pt x="929" y="1881" on="1"/>
        <pt x="1165" y="1881" on="1"/>
      </contour>
    </TTGlyph>
    <TTGlyph name="Edieresis" xMin="115" yMin="0" xMax="1412" yMax="1847">
      <contour>
        <pt x="424" y="1456" on="1"/>
        <pt x="1406" y="1456" on="1"/>
        <pt x="1355" y="1216" on="1"/>
        <pt x="641" y="1216" on="1"/>
        <pt x="567" y="866" on="1"/>
        <pt x="1218" y="866" on="1"/>
        <pt x="1167" y="626" on="1"/>
        <pt x="516" y="626" on="1"/>
        <pt x="434" y="240" on="1"/>
        <pt x="1148" y="240" on="1"/>
        <pt x="1097" y="0" on="1"/>
        <pt x="115" y="0" on="1"/>
      </contour>
      <contour>
        <pt x="605" y="1648" on="1"/>
        <pt x="605" y="1738" on="0"/>
        <pt x="740" y="1847" on="0"/>
        <pt x="876" y="1847" on="0"/>
        <pt x="941" y="1763" on="0"/>
        <pt x="941" y="1731" on="1"/>
        <pt x="941" y="1629" on="0"/>
        <pt x="806" y="1519" on="0"/>
        <pt x="670" y="1519" on="0"/>
        <pt x="605" y="1602" on="0"/>
      </contour>
      <contour>
        <pt x="1076" y="1648" on="1"/>
        <pt x="1076" y="1738" on="0"/>
        <pt x="1210" y="1847" on="0"/>
        <pt x="1346" y="1847" on="0"/>
        <pt x="1412" y="1763" on="0"/>
        <pt x="1412" y="1731" on="1"/>
        <pt x="1412" y="1629" on="0"/>
        <pt x="1276" y="1519" on="0"/>
        <pt x="1141" y="1519" on="0"/>
        <pt x="1076" y="1603" on="0"/>
      </contour>
    </TTGlyph>
    <TTGlyph name="Edotaccent" xMin="115" yMin="0" xMax="1406" yMax="1921">
      <contour>
        <pt x="424" y="1456" on="1"/>
        <pt x="1406" y="1456" on="1"/>
        <pt x="1355" y="1216" on="1"/>
        <pt x="641" y="1216" on="1"/>
        <pt x="567" y="866" on="1"/>
        <pt x="1218" y="866" on="1"/>
        <pt x="1167" y="626" on="1"/>
        <pt x="516" y="626" on="1"/>
        <pt x="434" y="240" on="1"/>
        <pt x="1148" y="240" on="1"/>
        <pt x="1097" y="0" on="1"/>
        <pt x="115" y="0" on="1"/>
      </contour>
      <contour>
        <pt x="870" y="1722" on="1"/>
        <pt x="870" y="1811" on="0"/>
        <pt x="1004" y="1921" on="0"/>
        <pt x="1140" y="1921" on="0"/>
        <pt x="1205" y="1839" on="0"/>
        <pt x="1205" y="1806" on="1"/>
        <pt x="1205" y="1702" on="0"/>
        <pt x="1070" y="1593" on="0"/>
        <pt x="935" y="1593" on="0"/>
        <pt x="870" y="1677" on="0"/>
      </contour>
    </TTGlyph>
    <TTGlyph name="Egrave" xMin="115" yMin="0" xMax="1406" yMax="1945">
      <contour>
        <pt x="1032" y="1533" on="1"/>
        <pt x="770" y="1746" on="1"/>
        <pt x="758" y="1756" on="0"/>
        <pt x="758" y="1775" on="1"/>
        <pt x="758" y="1812" on="0"/>
        <pt x="772" y="1840" on="1"/>
        <pt x="811" y="1918" on="0"/>
        <pt x="897" y="1942" on="1"/>
        <pt x="907" y="1945" on="0"/>
        <pt x="932" y="1945" on="0"/>
        <pt x="942" y="1935" on="1"/>
        <pt x="1173" y="1688" on="1"/>
        <pt x="1177" y="1684" on="0"/>
        <pt x="1177" y="1676" on="1"/>
        <pt x="1177" y="1646" on="0"/>
        <pt x="1164" y="1622" on="1"/>
        <pt x="1143" y="1585" on="0"/>
        <pt x="1108" y="1560" on="1"/>
        <pt x="1064" y="1528" on="0"/>
        <pt x="1037" y="1528" on="0"/>
      </contour>
      <contour>
        <pt x="424" y="1456" on="1"/>
        <pt x="1406" y="1456" on="1"/>
        <pt x="1355" y="1216" on="1"/>
        <pt x="641" y="1216" on="1"/>
        <pt x="567" y="866" on="1"/>
        <pt x="1218" y="866" on="1"/>
        <pt x="1167" y="626" on="1"/>
        <pt x="516" y="626" on="1"/>
        <pt x="434" y="240" on="1"/>
        <pt x="1148" y="240" on="1"/>
        <pt x="1097" y="0" on="1"/>
        <pt x="115" y="0" on="1"/>
      </contour>
    </TTGlyph>
    <TTGlyph name="Emacron" xMin="115" yMin="0" xMax="1407" yMax="1813">
      <contour>
        <pt x="424" y="1456" on="1"/>
        <pt x="1406" y="1456" on="1"/>
        <pt x="1355" y="1216" on="1"/>
        <pt x="641" y="1216" on="1"/>
        <pt x="567" y="866" on="1"/>
        <pt x="1218" y="866" on="1"/>
        <pt x="1167" y="626" on="1"/>
        <pt x="516" y="626" on="1"/>
        <pt x="434" y="240" on="1"/>
        <pt x="1148" y="240" on="1"/>
        <pt x="1097" y="0" on="1"/>
        <pt x="115" y="0" on="1"/>
      </contour>
      <contour>
        <pt x="635" y="1813" on="1"/>
        <pt x="1407" y="1813" on="1"/>
        <pt x="1380" y="1686" on="1"/>
        <pt x="608" y="1686" on="1"/>
      </contour>
    </TTGlyph>
    <TTGlyph name="Eng" xMin="119" yMin="0" xMax="1456" yMax="1483">
      <contour>
        <pt x="816" y="271" on="1"/>
        <pt x="839" y="229" on="0"/>
        <pt x="948" y="229" on="0"/>
        <pt x="1025" y="292" on="0"/>
        <pt x="1036" y="340" on="1"/>
        <pt x="1056" y="432" on="1"/>
        <pt x="1053" y="432" on="1"/>
        <pt x="1156" y="918" on="1"/>
        <pt x="1178" y="1029" on="0"/>
        <pt x="1178" y="1133" on="0"/>
        <pt x="1166" y="1189" on="0"/>
        <pt x="1146" y="1212" on="1"/>
        <pt x="1112" y="1248" on="0"/>
        <pt x="1046" y="1248" on="1"/>
        <pt x="918" y="1248" on="0"/>
        <pt x="723" y="1156" on="0"/>
        <pt x="612" y="1056" on="1"/>
        <pt x="599" y="1044" on="0"/>
        <pt x="572" y="917" on="1"/>
        <pt x="377" y="0" on="1"/>
        <pt x="119" y="0" on="1"/>
        <pt x="428" y="1455" on="1"/>
        <pt x="686" y="1455" on="1"/>
        <pt x="652" y="1293" on="1"/>
        <pt x="872" y="1404" on="0"/>
        <pt x="943" y="1431" on="1"/>
        <pt x="1077" y="1483" on="0"/>
        <pt x="1220" y="1483" on="1"/>
        <pt x="1274" y="1483" on="0"/>
        <pt x="1324" y="1454" on="1"/>
        <pt x="1456" y="1376" on="0"/>
        <pt x="1456" y="1177" on="1"/>
        <pt x="1456" y="1113" on="0"/>
        <pt x="1442" y="1049" on="1"/>
        <pt x="1306" y="397" on="1"/>
        <pt x="1285" y="298" on="0"/>
        <pt x="1133" y="110" on="0"/>
        <pt x="931" y="0" on="0"/>
        <pt x="756" y="0" on="0"/>
        <pt x="652" y="39" on="0"/>
        <pt x="610" y="99" on="1"/>
      </contour>
    </TTGlyph>
    <TTGlyph name="Eogonek" xMin="115" yMin="-344" xMax="1406" yMax="1456">
      <contour>
        <pt x="424" y="1456" on="1"/>
        <pt x="1406" y="1456" on="1"/>
        <pt x="1355" y="1216" on="1"/>
        <pt x="641" y="1216" on="1"/>
        <pt x="567" y="866" on="1"/>
        <pt x="1218" y="866" on="1"/>
        <pt x="1167" y="626" on="1"/>
        <pt x="516" y="626" on="1"/>
        <pt x="434" y="240" on="1"/>
        <pt x="1148" y="240" on="1"/>
        <pt x="1097" y="0" on="1"/>
        <pt x="115" y="0" on="1"/>
      </contour>
      <contour>
        <pt x="1055" y="-217" on="1"/>
        <pt x="915" y="-344" on="1"/>
        <pt x="897" y="-335" on="0"/>
        <pt x="832" y="-293" on="0"/>
        <pt x="800" y="-273" on="0"/>
        <pt x="776" y="-249" on="1"/>
        <pt x="730" y="-203" on="0"/>
        <pt x="717" y="-151" on="0"/>
        <pt x="717" y="-120" on="0"/>
        <pt x="719" y="-112" on="1"/>
        <pt x="743" y="0" on="0"/>
        <pt x="871" y="95" on="1"/>
        <pt x="1014" y="5" on="1"/>
        <pt x="971" y="-32" on="0"/>
        <pt x="951" y="-85" on="0"/>
        <pt x="944" y="-120" on="0"/>
        <pt x="958" y="-140" on="1"/>
        <pt x="976" y="-165" on="0"/>
        <pt x="1043" y="-211" on="0"/>
      </contour>
    </TTGlyph>
    <TTGlyph name="Epsilon" xMin="114" yMin="0" xMax="1405" yMax="1456">
      <contour>
        <pt x="423" y="1456" on="1"/>
        <pt x="1405" y="1456" on="1"/>
        <pt x="1355" y="1217" on="1"/>
        <pt x="641" y="1217" on="1"/>
        <pt x="566" y="866" on="1"/>
        <pt x="1218" y="866" on="1"/>
        <pt x="1167" y="627" on="1"/>
        <pt x="515" y="627" on="1"/>
        <pt x="433" y="240" on="1"/>
        <pt x="1147" y="240" on="1"/>
        <pt x="1096" y="0" on="1"/>
        <pt x="114" y="0" on="1"/>
      </contour>
    </TTGlyph>
    <TTGlyph name="Epsilontonos" xMin="316" yMin="0" xMax="1649" yMax="1599">
      <contour>
        <pt x="488" y="1192" on="1"/>
        <pt x="476" y="1167" on="0"/>
        <pt x="402" y="1167" on="0"/>
        <pt x="367" y="1173" on="0"/>
        <pt x="321" y="1209" on="0"/>
        <pt x="316" y="1230" on="0"/>
        <pt x="316" y="1240" on="0"/>
        <pt x="317" y="1242" on="1"/>
        <pt x="434" y="1552" on="1"/>
        <pt x="443" y="1575" on="0"/>
        <pt x="498" y="1598" on="0"/>
        <pt x="522" y="1599" on="1"/>
        <pt x="535" y="1599" on="1"/>
        <pt x="586" y="1599" on="0"/>
        <pt x="613" y="1575" on="1"/>
        <pt x="661" y="1534" on="0"/>
        <pt x="644" y="1492" on="1"/>
      </contour>
      <contour>
        <pt x="667" y="1456" on="1"/>
        <pt x="1649" y="1456" on="1"/>
        <pt x="1599" y="1217" on="1"/>
        <pt x="885" y="1217" on="1"/>
        <pt x="810" y="866" on="1"/>
        <pt x="1462" y="866" on="1"/>
        <pt x="1411" y="627" on="1"/>
        <pt x="759" y="627" on="1"/>
        <pt x="677" y="240" on="1"/>
        <pt x="1391" y="240" on="1"/>
        <pt x="1340" y="0" on="1"/>
        <pt x="358" y="0" on="1"/>
      </contour>
    </TTGlyph>
    <TTGlyph name="Eta" xMin="115" yMin="0" xMax="1446" yMax="1456">
      <contour>
        <pt x="424" y="1456" on="1"/>
        <pt x="692" y="1456" on="1"/>
        <pt x="567" y="864" on="1"/>
        <pt x="1052" y="864" on="1"/>
        <pt x="1177" y="1456" on="1"/>
        <pt x="1446" y="1456" on="1"/>
        <pt x="1137" y="0" on="1"/>
        <pt x="868" y="0" on="1"/>
        <pt x="1001" y="625" on="1"/>
        <pt x="516" y="625" on="1"/>
        <pt x="383" y="0" on="1"/>
        <pt x="115" y="0" on="1"/>
      </contour>
    </TTGlyph>
    <TTGlyph name="Etatonos" xMin="300" yMin="0" xMax="1670" yMax="1599">
      <contour>
        <pt x="472" y="1192" on="1"/>
        <pt x="460" y="1167" on="0"/>
        <pt x="386" y="1167" on="0"/>
        <pt x="351" y="1173" on="0"/>
        <pt x="305" y="1209" on="0"/>
        <pt x="300" y="1230" on="0"/>
        <pt x="300" y="1240" on="0"/>
        <pt x="301" y="1242" on="1"/>
        <pt x="418" y="1552" on="1"/>
        <pt x="427" y="1575" on="0"/>
        <pt x="482" y="1598" on="0"/>
        <pt x="506" y="1599" on="1"/>
        <pt x="519" y="1599" on="1"/>
        <pt x="570" y="1599" on="0"/>
        <pt x="597" y="1575" on="1"/>
        <pt x="645" y="1534" on="0"/>
        <pt x="628" y="1492" on="1"/>
      </contour>
      <contour>
        <pt x="648" y="1456" on="1"/>
        <pt x="916" y="1456" on="1"/>
        <pt x="791" y="864" on="1"/>
        <pt x="1276" y="864" on="1"/>
        <pt x="1401" y="1456" on="1"/>
        <pt x="1670" y="1456" on="1"/>
        <pt x="1361" y="0" on="1"/>
        <pt x="1092" y="0" on="1"/>
        <pt x="1225" y="625" on="1"/>
        <pt x="740" y="625" on="1"/>
        <pt x="607" y="0" on="1"/>
        <pt x="339" y="0" on="1"/>
      </contour>
    </TTGlyph>
    <TTGlyph name="Eth" xMin="260" yMin="0" xMax="1532" yMax="1456">
      <contour>
        <pt x="390" y="612" on="1"/>
        <pt x="265" y="612" on="1"/>
        <pt x="316" y="851" on="1"/>
        <pt x="441" y="851" on="1"/>
        <pt x="569" y="1456" on="1"/>
        <pt x="1005" y="1456" on="1"/>
        <pt x="1252" y="1456" on="0"/>
        <pt x="1532" y="1155" on="0"/>
        <pt x="1532" y="913" on="1"/>
        <pt x="1532" y="666" on="0"/>
        <pt x="1403" y="442" on="1"/>
        <pt x="1246" y="168" on="0"/>
        <pt x="977" y="56" on="1"/>
        <pt x="841" y="0" on="0"/>
        <pt x="696" y="0" on="1"/>
        <pt x="260" y="0" on="1"/>
      </contour>
      <contour>
        <pt x="658" y="612" on="1"/>
        <pt x="580" y="243" on="1"/>
        <pt x="748" y="243" on="1"/>
        <pt x="920" y="243" on="0"/>
        <pt x="1200" y="513" on="0"/>
        <pt x="1245" y="727" on="1"/>
        <pt x="1260" y="800" on="0"/>
        <pt x="1260" y="865" on="1"/>
        <pt x="1260" y="1023" on="0"/>
        <pt x="1094" y="1211" on="0"/>
        <pt x="953" y="1211" on="1"/>
        <pt x="784" y="1211" on="1"/>
        <pt x="708" y="851" on="1"/>
        <pt x="955" y="851" on="1"/>
        <pt x="904" y="612" on="1"/>
      </contour>
    </TTGlyph>
    <TTGlyph name="Euro" xMin="227" yMin="164" xMax="1322" yMax="1282">
      <contour>
        <pt x="423" y="760" on="1"/>
        <pt x="293" y="760" on="1"/>
        <pt x="328" y="926" on="1"/>
        <pt x="478" y="926" on="1"/>
        <pt x="559" y="1077" on="0"/>
        <pt x="846" y="1282" on="0"/>
        <pt x="999" y="1282" on="1"/>
        <pt x="1108" y="1282" on="0"/>
        <pt x="1261" y="1190" on="0"/>
        <pt x="1322" y="1083" on="1"/>
        <pt x="1138" y="950" on="1"/>
        <pt x="1078" y="1053" on="0"/>
        <pt x="951" y="1053" on="1"/>
        <pt x="897" y="1053" on="0"/>
        <pt x="757" y="977" on="0"/>
        <pt x="739" y="926" on="1"/>
        <pt x="1008" y="926" on="1"/>
        <pt x="973" y="760" on="1"/>
        <pt x="682" y="760" on="1"/>
        <pt x="673" y="753" on="0"/>
        <pt x="667" y="722" on="1"/>
        <pt x="657" y="647" on="1"/>
        <pt x="943" y="647" on="1"/>
        <pt x="907" y="481" on="1"/>
        <pt x="645" y="481" on="1"/>
        <pt x="652" y="444" on="0"/>
        <pt x="766" y="393" on="0"/>
        <pt x="863" y="393" on="0"/>
        <pt x="888" y="396" on="1"/>
        <pt x="950" y="403" on="0"/>
        <pt x="1021" y="467" on="1"/>
        <pt x="1167" y="334" on="1"/>
        <pt x="1032" y="202" on="0"/>
        <pt x="899" y="176" on="1"/>
        <pt x="837" y="164" on="0"/>
        <pt x="762" y="164" on="1"/>
        <pt x="593" y="164" on="0"/>
        <pt x="383" y="348" on="0"/>
        <pt x="378" y="481" on="1"/>
        <pt x="227" y="481" on="1"/>
        <pt x="263" y="647" on="1"/>
        <pt x="399" y="647" on="1"/>
        <pt x="413" y="746" on="0"/>
      </contour>
    </TTGlyph>
    <TTGlyph name="F" xMin="115" yMin="0" xMax="1406" yMax="1456">
      <contour>
        <pt x="424" y="1456" on="1"/>
        <pt x="1406" y="1456" on="1"/>
        <pt x="1356" y="1217" on="1"/>
        <pt x="642" y="1217" on="1"/>
        <pt x="567" y="866" on="1"/>
        <pt x="1218" y="866" on="1"/>
        <pt x="1167" y="627" on="1"/>
        <pt x="516" y="627" on="1"/>
        <pt x="383" y="0" on="1"/>
        <pt x="115" y="0" on="1"/>
      </contour>
    </TTGlyph>
    <TTGlyph name="Fdotaccent" xMin="115" yMin="0" xMax="1406" yMax="1921">
      <contour>
        <pt x="834" y="1722" on="1"/>
        <pt x="834" y="1811" on="0"/>
        <pt x="968" y="1921" on="0"/>
        <pt x="1104" y="1921" on="0"/>
        <pt x="1169" y="1839" on="0"/>
        <pt x="1169" y="1806" on="1"/>
        <pt x="1169" y="1702" on="0"/>
        <pt x="1034" y="1593" on="0"/>
        <pt x="899" y="1593" on="0"/>
        <pt x="834" y="1677" on="0"/>
      </contour>
      <contour>
        <pt x="424" y="1456" on="1"/>
        <pt x="1406" y="1456" on="1"/>
        <pt x="1356" y="1217" on="1"/>
        <pt x="642" y="1217" on="1"/>
        <pt x="567" y="866" on="1"/>
        <pt x="1218" y="866" on="1"/>
        <pt x="1167" y="627" on="1"/>
        <pt x="516" y="627" on="1"/>
        <pt x="383" y="0" on="1"/>
        <pt x="115" y="0" on="1"/>
      </contour>
    </TTGlyph>
    <TTGlyph name="G" xMin="226" yMin="-27" xMax="1460" yMax="1497">
      <contour>
        <pt x="941" y="14" on="1"/>
        <pt x="832" y="-27" on="0"/>
        <pt x="603" y="-27" on="0"/>
        <pt x="437" y="32" on="0"/>
        <pt x="329" y="134" on="0"/>
        <pt x="293" y="205" on="1"/>
        <pt x="226" y="337" on="0"/>
        <pt x="226" y="522" on="1"/>
        <pt x="226" y="879" on="0"/>
        <pt x="427" y="1166" on="1"/>
        <pt x="571" y="1372" on="0"/>
        <pt x="784" y="1452" on="1"/>
        <pt x="901" y="1497" on="0"/>
        <pt x="1187" y="1497" on="0"/>
        <pt x="1408" y="1338" on="0"/>
        <pt x="1439" y="1200" on="1"/>
        <pt x="1163" y="1114" on="1"/>
        <pt x="1160" y="1166" on="0"/>
        <pt x="1031" y="1257" on="0"/>
        <pt x="898" y="1257" on="0"/>
        <pt x="743" y="1167" on="0"/>
        <pt x="688" y="1094" on="1"/>
        <pt x="514" y="866" on="0"/>
        <pt x="514" y="571" on="1"/>
        <pt x="514" y="355" on="0"/>
        <pt x="618" y="262" on="1"/>
        <pt x="674" y="211" on="0"/>
        <pt x="829" y="211" on="0"/>
        <pt x="948" y="259" on="0"/>
        <pt x="1027" y="332" on="0"/>
        <pt x="1058" y="382" on="1"/>
        <pt x="1110" y="468" on="0"/>
        <pt x="1131" y="567" on="1"/>
        <pt x="828" y="567" on="1"/>
        <pt x="879" y="807" on="1"/>
        <pt x="1460" y="807" on="1"/>
        <pt x="1428" y="661" on="1"/>
        <pt x="1384" y="450" on="0"/>
        <pt x="1269" y="281" on="1"/>
        <pt x="1137" y="88" on="0"/>
      </contour>
    </TTGlyph>
    <TTGlyph name="Gamma" xMin="115" yMin="0" xMax="1406" yMax="1456">
      <contour>
        <pt x="642" y="1217" on="1"/>
        <pt x="383" y="0" on="1"/>
        <pt x="115" y="0" on="1"/>
        <pt x="424" y="1456" on="1"/>
        <pt x="1406" y="1456" on="1"/>
        <pt x="1356" y="1217" on="1"/>
      </contour>
    </TTGlyph>
    <TTGlyph name="Gbreve" xMin="226" yMin="-27" xMax="1477" yMax="1942">
      <contour>
        <pt x="941" y="14" on="1"/>
        <pt x="832" y="-27" on="0"/>
        <pt x="603" y="-27" on="0"/>
        <pt x="437" y="32" on="0"/>
        <pt x="329" y="134" on="0"/>
        <pt x="293" y="205" on="1"/>
        <pt x="226" y="337" on="0"/>
        <pt x="226" y="522" on="1"/>
        <pt x="226" y="879" on="0"/>
        <pt x="427" y="1166" on="1"/>
        <pt x="571" y="1372" on="0"/>
        <pt x="784" y="1452" on="1"/>
        <pt x="901" y="1497" on="0"/>
        <pt x="1187" y="1497" on="0"/>
        <pt x="1408" y="1338" on="0"/>
        <pt x="1439" y="1200" on="1"/>
        <pt x="1163" y="1114" on="1"/>
        <pt x="1160" y="1166" on="0"/>
        <pt x="1031" y="1257" on="0"/>
        <pt x="898" y="1257" on="0"/>
        <pt x="743" y="1167" on="0"/>
        <pt x="688" y="1094" on="1"/>
        <pt x="514" y="866" on="0"/>
        <pt x="514" y="571" on="1"/>
        <pt x="514" y="355" on="0"/>
        <pt x="618" y="262" on="1"/>
        <pt x="674" y="211" on="0"/>
        <pt x="829" y="211" on="0"/>
        <pt x="948" y="259" on="0"/>
        <pt x="1027" y="332" on="0"/>
        <pt x="1058" y="382" on="1"/>
        <pt x="1110" y="468" on="0"/>
        <pt x="1131" y="567" on="1"/>
        <pt x="828" y="567" on="1"/>
        <pt x="879" y="807" on="1"/>
        <pt x="1460" y="807" on="1"/>
        <pt x="1428" y="661" on="1"/>
        <pt x="1384" y="450" on="0"/>
        <pt x="1269" y="281" on="1"/>
        <pt x="1137" y="88" on="0"/>
      </contour>
      <contour>
        <pt x="1351" y="1676" on="1"/>
        <pt x="1295" y="1607" on="0"/>
        <pt x="1117" y="1516" on="0"/>
        <pt x="957" y="1516" on="0"/>
        <pt x="814" y="1609" on="0"/>
        <pt x="760" y="1754" on="0"/>
        <pt x="760" y="1881" on="0"/>
        <pt x="777" y="1942" on="1"/>
        <pt x="938" y="1942" on="1"/>
        <pt x="968" y="1812" on="0"/>
        <pt x="1023" y="1769" on="1"/>
        <pt x="1043" y="1754" on="0"/>
        <pt x="1133" y="1754" on="0"/>
        <pt x="1156" y="1768" on="1"/>
        <pt x="1210" y="1801" on="0"/>
        <pt x="1320" y="1942" on="1"/>
        <pt x="1477" y="1942" on="1"/>
        <pt x="1477" y="1940" on="0"/>
        <pt x="1471" y="1911" on="1"/>
        <pt x="1445" y="1792" on="0"/>
      </contour>
    </TTGlyph>
    <TTGlyph name="Gcircumflex" xMin="226" yMin="-27" xMax="1460" yMax="1906">
      <contour>
        <pt x="941" y="14" on="1"/>
        <pt x="832" y="-27" on="0"/>
        <pt x="603" y="-27" on="0"/>
        <pt x="437" y="32" on="0"/>
        <pt x="329" y="134" on="0"/>
        <pt x="293" y="205" on="1"/>
        <pt x="226" y="337" on="0"/>
        <pt x="226" y="522" on="1"/>
        <pt x="226" y="879" on="0"/>
        <pt x="427" y="1166" on="1"/>
        <pt x="571" y="1372" on="0"/>
        <pt x="784" y="1452" on="1"/>
        <pt x="901" y="1497" on="0"/>
        <pt x="1187" y="1497" on="0"/>
        <pt x="1408" y="1338" on="0"/>
        <pt x="1439" y="1200" on="1"/>
        <pt x="1163" y="1114" on="1"/>
        <pt x="1160" y="1166" on="0"/>
        <pt x="1031" y="1257" on="0"/>
        <pt x="898" y="1257" on="0"/>
        <pt x="743" y="1167" on="0"/>
        <pt x="688" y="1094" on="1"/>
        <pt x="514" y="866" on="0"/>
        <pt x="514" y="571" on="1"/>
        <pt x="514" y="355" on="0"/>
        <pt x="618" y="262" on="1"/>
        <pt x="674" y="211" on="0"/>
        <pt x="829" y="211" on="0"/>
        <pt x="948" y="259" on="0"/>
        <pt x="1027" y="332" on="0"/>
        <pt x="1058" y="382" on="1"/>
        <pt x="1110" y="468" on="0"/>
        <pt x="1131" y="567" on="1"/>
        <pt x="828" y="567" on="1"/>
        <pt x="879" y="807" on="1"/>
        <pt x="1460" y="807" on="1"/>
        <pt x="1428" y="661" on="1"/>
        <pt x="1384" y="450" on="0"/>
        <pt x="1269" y="281" on="1"/>
        <pt x="1137" y="88" on="0"/>
      </contour>
      <contour>
        <pt x="1453" y="1562" on="1"/>
        <pt x="1182" y="1562" on="1"/>
        <pt x="1084" y="1723" on="1"/>
        <pt x="927" y="1565" on="1"/>
        <pt x="650" y="1565" on="1"/>
        <pt x="1006" y="1906" on="1"/>
        <pt x="1242" y="1906" on="1"/>
      </contour>
    </TTGlyph>
    <TTGlyph name="Gcommaaccent" xMin="226" yMin="-27" xMax="1460" yMax="1497">
      <contour>
        <pt x="941" y="14" on="1"/>
        <pt x="832" y="-27" on="0"/>
        <pt x="603" y="-27" on="0"/>
        <pt x="437" y="32" on="0"/>
        <pt x="329" y="134" on="0"/>
        <pt x="293" y="205" on="1"/>
        <pt x="226" y="337" on="0"/>
        <pt x="226" y="522" on="1"/>
        <pt x="226" y="879" on="0"/>
        <pt x="427" y="1166" on="1"/>
        <pt x="571" y="1372" on="0"/>
        <pt x="784" y="1452" on="1"/>
        <pt x="901" y="1497" on="0"/>
        <pt x="1187" y="1497" on="0"/>
        <pt x="1408" y="1338" on="0"/>
        <pt x="1439" y="1200" on="1"/>
        <pt x="1163" y="1114" on="1"/>
        <pt x="1160" y="1166" on="0"/>
        <pt x="1031" y="1257" on="0"/>
        <pt x="898" y="1257" on="0"/>
        <pt x="743" y="1167" on="0"/>
        <pt x="688" y="1094" on="1"/>
        <pt x="514" y="866" on="0"/>
        <pt x="514" y="571" on="1"/>
        <pt x="514" y="355" on="0"/>
        <pt x="618" y="262" on="1"/>
        <pt x="674" y="211" on="0"/>
        <pt x="829" y="211" on="0"/>
        <pt x="948" y="259" on="0"/>
        <pt x="1027" y="332" on="0"/>
        <pt x="1058" y="382" on="1"/>
        <pt x="1110" y="468" on="0"/>
        <pt x="1131" y="567" on="1"/>
        <pt x="828" y="567" on="1"/>
        <pt x="879" y="807" on="1"/>
        <pt x="1460" y="807" on="1"/>
        <pt x="1428" y="661" on="1"/>
        <pt x="1384" y="450" on="0"/>
        <pt x="1269" y="281" on="1"/>
        <pt x="1137" y="88" on="0"/>
      </contour>
    </TTGlyph>
    <TTGlyph name="Gdotaccent" xMin="226" yMin="-27" xMax="1460" yMax="1921">
      <contour>
        <pt x="941" y="14" on="1"/>
        <pt x="832" y="-27" on="0"/>
        <pt x="603" y="-27" on="0"/>
        <pt x="437" y="32" on="0"/>
        <pt x="329" y="134" on="0"/>
        <pt x="293" y="205" on="1"/>
        <pt x="226" y="337" on="0"/>
        <pt x="226" y="522" on="1"/>
        <pt x="226" y="879" on="0"/>
        <pt x="427" y="1166" on="1"/>
        <pt x="571" y="1372" on="0"/>
        <pt x="784" y="1452" on="1"/>
        <pt x="901" y="1497" on="0"/>
        <pt x="1187" y="1497" on="0"/>
        <pt x="1408" y="1338" on="0"/>
        <pt x="1439" y="1200" on="1"/>
        <pt x="1163" y="1114" on="1"/>
        <pt x="1160" y="1166" on="0"/>
        <pt x="1031" y="1257" on="0"/>
        <pt x="898" y="1257" on="0"/>
        <pt x="743" y="1167" on="0"/>
        <pt x="688" y="1094" on="1"/>
        <pt x="514" y="866" on="0"/>
        <pt x="514" y="571" on="1"/>
        <pt x="514" y="355" on="0"/>
        <pt x="618" y="262" on="1"/>
        <pt x="674" y="211" on="0"/>
        <pt x="829" y="211" on="0"/>
        <pt x="948" y="259" on="0"/>
        <pt x="1027" y="332" on="0"/>
        <pt x="1058" y="382" on="1"/>
        <pt x="1110" y="468" on="0"/>
        <pt x="1131" y="567" on="1"/>
        <pt x="828" y="567" on="1"/>
        <pt x="879" y="807" on="1"/>
        <pt x="1460" y="807" on="1"/>
        <pt x="1428" y="661" on="1"/>
        <pt x="1384" y="450" on="0"/>
        <pt x="1269" y="281" on="1"/>
        <pt x="1137" y="88" on="0"/>
      </contour>
      <contour>
        <pt x="918" y="1722" on="1"/>
        <pt x="918" y="1811" on="0"/>
        <pt x="1052" y="1921" on="0"/>
        <pt x="1188" y="1921" on="0"/>
        <pt x="1253" y="1839" on="0"/>
        <pt x="1253" y="1806" on="1"/>
        <pt x="1253" y="1702" on="0"/>
        <pt x="1118" y="1593" on="0"/>
        <pt x="983" y="1593" on="0"/>
        <pt x="918" y="1677" on="0"/>
      </contour>
    </TTGlyph>
    <TTGlyph name="H" xMin="115" yMin="0" xMax="1447" yMax="1456">
      <contour>
        <pt x="424" y="1456" on="1"/>
        <pt x="692" y="1456" on="1"/>
        <pt x="567" y="864" on="1"/>
        <pt x="1052" y="864" on="1"/>
        <pt x="1177" y="1456" on="1"/>
        <pt x="1447" y="1456" on="1"/>
        <pt x="1138" y="0" on="1"/>
        <pt x="868" y="0" on="1"/>
        <pt x="1001" y="624" on="1"/>
        <pt x="516" y="624" on="1"/>
        <pt x="383" y="0" on="1"/>
        <pt x="115" y="0" on="1"/>
      </contour>
    </TTGlyph>
    <TTGlyph name="Hbar" xMin="115" yMin="0" xMax="1488" yMax="1456">
      <contour>
        <pt x="424" y="1456" on="1"/>
        <pt x="692" y="1456" on="1"/>
        <pt x="662" y="1314" on="1"/>
        <pt x="1147" y="1314" on="1"/>
        <pt x="1177" y="1456" on="1"/>
        <pt x="1447" y="1456" on="1"/>
        <pt x="1417" y="1314" on="1"/>
        <pt x="1488" y="1314" on="1"/>
        <pt x="1437" y="1074" on="1"/>
        <pt x="1366" y="1074" on="1"/>
        <pt x="1138" y="0" on="1"/>
        <pt x="868" y="0" on="1"/>
        <pt x="1001" y="624" on="1"/>
        <pt x="516" y="624" on="1"/>
        <pt x="383" y="0" on="1"/>
        <pt x="115" y="0" on="1"/>
        <pt x="343" y="1074" on="1"/>
        <pt x="272" y="1074" on="1"/>
        <pt x="323" y="1314" on="1"/>
        <pt x="394" y="1314" on="1"/>
      </contour>
      <contour>
        <pt x="1096" y="1074" on="1"/>
        <pt x="611" y="1074" on="1"/>
        <pt x="567" y="864" on="1"/>
        <pt x="1052" y="864" on="1"/>
      </contour>
    </TTGlyph>
    <TTGlyph name="Hcircumflex" xMin="115" yMin="0" xMax="1447" yMax="1906">
      <contour>
        <pt x="424" y="1456" on="1"/>
        <pt x="692" y="1456" on="1"/>
        <pt x="567" y="864" on="1"/>
        <pt x="1052" y="864" on="1"/>
        <pt x="1177" y="1456" on="1"/>
        <pt x="1447" y="1456" on="1"/>
        <pt x="1138" y="0" on="1"/>
        <pt x="868" y="0" on="1"/>
        <pt x="1001" y="624" on="1"/>
        <pt x="516" y="624" on="1"/>
        <pt x="383" y="0" on="1"/>
        <pt x="115" y="0" on="1"/>
      </contour>
      <contour>
        <pt x="1357" y="1562" on="1"/>
        <pt x="1086" y="1562" on="1"/>
        <pt x="988" y="1723" on="1"/>
        <pt x="831" y="1565" on="1"/>
        <pt x="554" y="1565" on="1"/>
        <pt x="910" y="1906" on="1"/>
        <pt x="1146" y="1906" on="1"/>
      </contour>
    </TTGlyph>
    <TTGlyph name="I" xMin="143" yMin="0" xMax="720" yMax="1456">
      <contour>
        <pt x="143" y="0" on="1"/>
        <pt x="452" y="1456" on="1"/>
        <pt x="720" y="1456" on="1"/>
        <pt x="411" y="0" on="1"/>
      </contour>
    </TTGlyph>
    <TTGlyph name="IJ" xMin="143" yMin="-35" xMax="1893" yMax="1456">
      <contour>
        <pt x="143" y="0" on="1"/>
        <pt x="452" y="1456" on="1"/>
        <pt x="720" y="1456" on="1"/>
        <pt x="411" y="0" on="1"/>
      </contour>
      <contour>
        <pt x="909" y="457" on="1"/>
        <pt x="909" y="219" on="0"/>
        <pt x="1119" y="219" on="1"/>
        <pt x="1258" y="219" on="0"/>
        <pt x="1338" y="336" on="1"/>
        <pt x="1410" y="437" on="0"/>
        <pt x="1441" y="586" on="1"/>
        <pt x="1625" y="1456" on="1"/>
        <pt x="1893" y="1456" on="1"/>
        <pt x="1709" y="586" on="1"/>
        <pt x="1627" y="201" on="0"/>
        <pt x="1365" y="45" on="1"/>
        <pt x="1231" y="-35" on="0"/>
        <pt x="1065" y="-35" on="1"/>
        <pt x="759" y="-35" on="0"/>
        <pt x="682" y="216" on="1"/>
        <pt x="659" y="289" on="0"/>
        <pt x="659" y="471" on="0"/>
        <pt x="683" y="586" on="1"/>
        <pt x="924" y="586" on="1"/>
        <pt x="909" y="517" on="0"/>
      </contour>
    </TTGlyph>
    <TTGlyph name="Iacute" xMin="143" yMin="0" xMax="976" yMax="1945">
      <contour>
        <pt x="587" y="1533" on="1"/>
        <pt x="579" y="1528" on="0"/>
        <pt x="575" y="1528" on="1"/>
        <pt x="538" y="1528" on="0"/>
        <pt x="507" y="1581" on="1"/>
        <pt x="499" y="1594" on="0"/>
        <pt x="496" y="1620" on="1"/>
        <pt x="491" y="1675" on="0"/>
        <pt x="513" y="1688" on="1"/>
        <pt x="847" y="1935" on="1"/>
        <pt x="860" y="1945" on="0"/>
        <pt x="873" y="1945" on="1"/>
        <pt x="928" y="1945" on="0"/>
        <pt x="963" y="1888" on="1"/>
        <pt x="976" y="1868" on="0"/>
        <pt x="976" y="1842" on="1"/>
        <pt x="976" y="1771" on="0"/>
        <pt x="940" y="1746" on="1"/>
      </contour>
      <contour>
        <pt x="143" y="0" on="1"/>
        <pt x="452" y="1456" on="1"/>
        <pt x="720" y="1456" on="1"/>
        <pt x="411" y="0" on="1"/>
      </contour>
    </TTGlyph>
    <TTGlyph name="Ibreve" xMin="143" yMin="0" xMax="1037" yMax="1942">
      <contour>
        <pt x="143" y="0" on="1"/>
        <pt x="452" y="1456" on="1"/>
        <pt x="720" y="1456" on="1"/>
        <pt x="411" y="0" on="1"/>
      </contour>
      <contour>
        <pt x="911" y="1676" on="1"/>
        <pt x="855" y="1607" on="0"/>
        <pt x="677" y="1516" on="0"/>
        <pt x="517" y="1516" on="0"/>
        <pt x="374" y="1609" on="0"/>
        <pt x="320" y="1754" on="0"/>
        <pt x="320" y="1881" on="0"/>
        <pt x="337" y="1942" on="1"/>
        <pt x="498" y="1942" on="1"/>
        <pt x="528" y="1812" on="0"/>
        <pt x="583" y="1769" on="1"/>
        <pt x="603" y="1754" on="0"/>
        <pt x="693" y="1754" on="0"/>
        <pt x="716" y="1768" on="1"/>
        <pt x="770" y="1801" on="0"/>
        <pt x="880" y="1942" on="1"/>
        <pt x="1037" y="1942" on="1"/>
        <pt x="1037" y="1940" on="0"/>
        <pt x="1031" y="1911" on="1"/>
        <pt x="1005" y="1792" on="0"/>
      </contour>
    </TTGlyph>
    <TTGlyph name="Icircumflex" xMin="143" yMin="0" xMax="1001" yMax="1881">
      <contour>
        <pt x="143" y="0" on="1"/>
        <pt x="452" y="1456" on="1"/>
        <pt x="720" y="1456" on="1"/>
        <pt x="411" y="0" on="1"/>
      </contour>
      <contour>
        <pt x="1001" y="1537" on="1"/>
        <pt x="730" y="1537" on="1"/>
        <pt x="632" y="1698" on="1"/>
        <pt x="474" y="1540" on="1"/>
        <pt x="197" y="1540" on="1"/>
        <pt x="554" y="1881" on="1"/>
        <pt x="790" y="1881" on="1"/>
      </contour>
    </TTGlyph>
    <TTGlyph name="Idieresis" xMin="143" yMin="0" xMax="1041" yMax="1862">
      <contour>
        <pt x="143" y="0" on="1"/>
        <pt x="452" y="1456" on="1"/>
        <pt x="720" y="1456" on="1"/>
        <pt x="411" y="0" on="1"/>
      </contour>
      <contour>
        <pt x="234" y="1663" on="1"/>
        <pt x="234" y="1752" on="0"/>
        <pt x="370" y="1862" on="0"/>
        <pt x="505" y="1862" on="0"/>
        <pt x="570" y="1780" on="0"/>
        <pt x="570" y="1747" on="1"/>
        <pt x="570" y="1644" on="0"/>
        <pt x="434" y="1534" on="0"/>
        <pt x="299" y="1534" on="0"/>
        <pt x="234" y="1617" on="0"/>
      </contour>
      <contour>
        <pt x="705" y="1663" on="1"/>
        <pt x="705" y="1752" on="0"/>
        <pt x="840" y="1862" on="0"/>
        <pt x="976" y="1862" on="0"/>
        <pt x="1041" y="1780" on="0"/>
        <pt x="1041" y="1747" on="1"/>
        <pt x="1041" y="1644" on="0"/>
        <pt x="906" y="1534" on="0"/>
        <pt x="770" y="1534" on="0"/>
        <pt x="705" y="1617" on="0"/>
      </contour>
    </TTGlyph>
    <TTGlyph name="Idotaccent" xMin="143" yMin="0" xMax="819" yMax="1921">
      <contour>
        <pt x="143" y="0" on="1"/>
        <pt x="452" y="1456" on="1"/>
        <pt x="720" y="1456" on="1"/>
        <pt x="411" y="0" on="1"/>
      </contour>
      <contour>
        <pt x="484" y="1722" on="1"/>
        <pt x="484" y="1811" on="0"/>
        <pt x="618" y="1921" on="0"/>
        <pt x="754" y="1921" on="0"/>
        <pt x="819" y="1839" on="0"/>
        <pt x="819" y="1806" on="1"/>
        <pt x="819" y="1702" on="0"/>
        <pt x="684" y="1593" on="0"/>
        <pt x="549" y="1593" on="0"/>
        <pt x="484" y="1677" on="0"/>
      </contour>
    </TTGlyph>
    <TTGlyph name="Igrave" xMin="143" yMin="0" xMax="760" yMax="1945">
      <contour>
        <pt x="615" y="1533" on="1"/>
        <pt x="353" y="1746" on="1"/>
        <pt x="340" y="1757" on="0"/>
        <pt x="340" y="1772" on="1"/>
        <pt x="340" y="1810" on="0"/>
        <pt x="354" y="1839" on="1"/>
        <pt x="394" y="1918" on="0"/>
        <pt x="480" y="1942" on="1"/>
        <pt x="490" y="1945" on="0"/>
        <pt x="515" y="1945" on="0"/>
        <pt x="525" y="1935" on="1"/>
        <pt x="756" y="1688" on="1"/>
        <pt x="760" y="1684" on="0"/>
        <pt x="760" y="1676" on="1"/>
        <pt x="760" y="1646" on="0"/>
        <pt x="746" y="1622" on="1"/>
        <pt x="726" y="1585" on="0"/>
        <pt x="691" y="1560" on="1"/>
        <pt x="647" y="1528" on="0"/>
        <pt x="620" y="1528" on="0"/>
      </contour>
      <contour>
        <pt x="143" y="0" on="1"/>
        <pt x="452" y="1456" on="1"/>
        <pt x="720" y="1456" on="1"/>
        <pt x="411" y="0" on="1"/>
      </contour>
    </TTGlyph>
    <TTGlyph name="Imacron" xMin="143" yMin="0" xMax="1051" yMax="1813">
      <contour>
        <pt x="143" y="0" on="1"/>
        <pt x="452" y="1456" on="1"/>
        <pt x="720" y="1456" on="1"/>
        <pt x="411" y="0" on="1"/>
      </contour>
      <contour>
        <pt x="279" y="1813" on="1"/>
        <pt x="1051" y="1813" on="1"/>
        <pt x="1024" y="1686" on="1"/>
        <pt x="252" y="1686" on="1"/>
      </contour>
    </TTGlyph>
    <TTGlyph name="Iogonek" xMin="111" yMin="-344" xMax="720" yMax="1456">
      <contour>
        <pt x="143" y="0" on="1"/>
        <pt x="452" y="1456" on="1"/>
        <pt x="720" y="1456" on="1"/>
        <pt x="411" y="0" on="1"/>
      </contour>
      <contour>
        <pt x="449" y="-217" on="1"/>
        <pt x="309" y="-344" on="1"/>
        <pt x="291" y="-335" on="0"/>
        <pt x="226" y="-293" on="0"/>
        <pt x="194" y="-273" on="0"/>
        <pt x="170" y="-249" on="1"/>
        <pt x="124" y="-203" on="0"/>
        <pt x="111" y="-150" on="0"/>
        <pt x="111" y="-120" on="0"/>
        <pt x="113" y="-112" on="1"/>
        <pt x="137" y="0" on="0"/>
        <pt x="265" y="95" on="1"/>
        <pt x="408" y="5" on="1"/>
        <pt x="365" y="-32" on="0"/>
        <pt x="345" y="-85" on="0"/>
        <pt x="338" y="-120" on="0"/>
        <pt x="352" y="-140" on="1"/>
        <pt x="370" y="-165" on="0"/>
        <pt x="437" y="-211" on="0"/>
      </contour>
    </TTGlyph>
    <TTGlyph name="Iota" xMin="143" yMin="0" xMax="721" yMax="1456">
      <contour>
        <pt x="143" y="0" on="1"/>
        <pt x="452" y="1456" on="1"/>
        <pt x="721" y="1456" on="1"/>
        <pt x="412" y="0" on="1"/>
      </contour>
    </TTGlyph>
    <TTGlyph name="Iotadieresis" xMin="143" yMin="0" xMax="1054" yMax="1921">
      <contour>
        <pt x="248" y="1722" on="1"/>
        <pt x="248" y="1811" on="0"/>
        <pt x="382" y="1921" on="0"/>
        <pt x="518" y="1921" on="0"/>
        <pt x="583" y="1838" on="0"/>
        <pt x="583" y="1806" on="1"/>
        <pt x="583" y="1702" on="0"/>
        <pt x="448" y="1593" on="0"/>
        <pt x="313" y="1593" on="0"/>
        <pt x="248" y="1677" on="0"/>
      </contour>
      <contour>
        <pt x="719" y="1722" on="1"/>
        <pt x="719" y="1811" on="0"/>
        <pt x="854" y="1921" on="0"/>
        <pt x="989" y="1921" on="0"/>
        <pt x="1054" y="1839" on="0"/>
        <pt x="1054" y="1806" on="1"/>
        <pt x="1054" y="1702" on="0"/>
        <pt x="920" y="1593" on="0"/>
        <pt x="784" y="1593" on="0"/>
        <pt x="719" y="1677" on="0"/>
      </contour>
      <contour>
        <pt x="143" y="0" on="1"/>
        <pt x="452" y="1456" on="1"/>
        <pt x="721" y="1456" on="1"/>
        <pt x="412" y="0" on="1"/>
      </contour>
    </TTGlyph>
    <TTGlyph name="Iotatonos" xMin="300" yMin="0" xMax="921" yMax="1599">
      <contour>
        <pt x="472" y="1192" on="1"/>
        <pt x="460" y="1167" on="0"/>
        <pt x="386" y="1167" on="0"/>
        <pt x="351" y="1173" on="0"/>
        <pt x="305" y="1209" on="0"/>
        <pt x="300" y="1230" on="0"/>
        <pt x="300" y="1240" on="0"/>
        <pt x="301" y="1242" on="1"/>
        <pt x="418" y="1552" on="1"/>
        <pt x="427" y="1575" on="0"/>
        <pt x="482" y="1598" on="0"/>
        <pt x="506" y="1599" on="1"/>
        <pt x="519" y="1599" on="1"/>
        <pt x="570" y="1599" on="0"/>
        <pt x="597" y="1575" on="1"/>
        <pt x="645" y="1534" on="0"/>
        <pt x="628" y="1492" on="1"/>
      </contour>
      <contour>
        <pt x="343" y="0" on="1"/>
        <pt x="652" y="1456" on="1"/>
        <pt x="921" y="1456" on="1"/>
        <pt x="612" y="0" on="1"/>
      </contour>
    </TTGlyph>
    <TTGlyph name="Itilde" xMin="143" yMin="0" xMax="988" yMax="1913">
      <contour>
        <pt x="143" y="0" on="1"/>
        <pt x="452" y="1456" on="1"/>
        <pt x="720" y="1456" on="1"/>
        <pt x="411" y="0" on="1"/>
      </contour>
      <contour>
        <pt x="339" y="1810" on="1"/>
        <pt x="346" y="1814" on="0"/>
        <pt x="367" y="1830" on="1"/>
        <pt x="473" y="1913" on="0"/>
        <pt x="544" y="1913" on="1"/>
        <pt x="595" y="1913" on="0"/>
        <pt x="643" y="1860" on="1"/>
        <pt x="653" y="1849" on="0"/>
        <pt x="664" y="1837" on="1"/>
        <pt x="730" y="1761" on="0"/>
        <pt x="787" y="1761" on="1"/>
        <pt x="849" y="1761" on="0"/>
        <pt x="965" y="1850" on="0"/>
        <pt x="988" y="1868" on="1"/>
        <pt x="933" y="1608" on="1"/>
        <pt x="923" y="1598" on="0"/>
        <pt x="874" y="1567" on="1"/>
        <pt x="788" y="1514" on="0"/>
        <pt x="742" y="1514" on="1"/>
        <pt x="665" y="1514" on="0"/>
        <pt x="599" y="1590" on="1"/>
        <pt x="534" y="1666" on="0"/>
        <pt x="497" y="1666" on="1"/>
        <pt x="438" y="1666" on="0"/>
        <pt x="371" y="1625" on="0"/>
        <pt x="348" y="1610" on="1"/>
        <pt x="301" y="1577" on="0"/>
        <pt x="288" y="1569" on="1"/>
      </contour>
    </TTGlyph>
    <TTGlyph name="J" xMin="203" yMin="-35" xMax="1437" yMax="1456">
      <contour>
        <pt x="227" y="586" on="1"/>
        <pt x="495" y="586" on="1"/>
        <pt x="475" y="494" on="0"/>
        <pt x="475" y="421" on="1"/>
        <pt x="475" y="205" on="0"/>
        <pt x="660" y="205" on="1"/>
        <pt x="816" y="205" on="0"/>
        <pt x="909" y="374" on="1"/>
        <pt x="961" y="468" on="0"/>
        <pt x="985" y="586" on="1"/>
        <pt x="1169" y="1456" on="1"/>
        <pt x="1437" y="1456" on="1"/>
        <pt x="1253" y="586" on="1"/>
        <pt x="1193" y="304" on="0"/>
        <pt x="857" y="-35" on="0"/>
        <pt x="609" y="-35" on="1"/>
        <pt x="403" y="-35" on="0"/>
        <pt x="203" y="189" on="0"/>
        <pt x="203" y="382" on="1"/>
        <pt x="203" y="471" on="0"/>
      </contour>
    </TTGlyph>
    <TTGlyph name="Jcircumflex" xMin="203" yMin="-35" xMax="1722" yMax="1902">
      <contour>
        <pt x="227" y="586" on="1"/>
        <pt x="495" y="586" on="1"/>
        <pt x="475" y="494" on="0"/>
        <pt x="475" y="421" on="1"/>
        <pt x="475" y="205" on="0"/>
        <pt x="660" y="205" on="1"/>
        <pt x="816" y="205" on="0"/>
        <pt x="909" y="374" on="1"/>
        <pt x="961" y="468" on="0"/>
        <pt x="985" y="586" on="1"/>
        <pt x="1169" y="1456" on="1"/>
        <pt x="1437" y="1456" on="1"/>
        <pt x="1253" y="586" on="1"/>
        <pt x="1193" y="304" on="0"/>
        <pt x="857" y="-35" on="0"/>
        <pt x="609" y="-35" on="1"/>
        <pt x="403" y="-35" on="0"/>
        <pt x="203" y="189" on="0"/>
        <pt x="203" y="382" on="1"/>
        <pt x="203" y="471" on="0"/>
      </contour>
      <contour>
        <pt x="1722" y="1558" on="1"/>
        <pt x="1451" y="1558" on="1"/>
        <pt x="1353" y="1719" on="1"/>
        <pt x="1196" y="1561" on="1"/>
        <pt x="919" y="1561" on="1"/>
        <pt x="1275" y="1902" on="1"/>
        <pt x="1511" y="1902" on="1"/>
      </contour>
    </TTGlyph>
    <TTGlyph name="K" xMin="115" yMin="0" xMax="1570" yMax="1456">
      <contour>
        <pt x="424" y="1456" on="1"/>
        <pt x="692" y="1456" on="1"/>
        <pt x="560" y="833" on="1"/>
        <pt x="1235" y="1456" on="1"/>
        <pt x="1570" y="1456" on="1"/>
        <pt x="877" y="808" on="1"/>
        <pt x="1290" y="0" on="1"/>
        <pt x="954" y="0" on="1"/>
        <pt x="633" y="628" on="1"/>
        <pt x="488" y="496" on="1"/>
        <pt x="383" y="0" on="1"/>
        <pt x="115" y="0" on="1"/>
      </contour>
    </TTGlyph>
    <TTGlyph name="Kappa" xMin="115" yMin="0" xMax="1570" yMax="1456">
      <contour>
        <pt x="424" y="1456" on="1"/>
        <pt x="692" y="1456" on="1"/>
        <pt x="560" y="833" on="1"/>
        <pt x="1235" y="1456" on="1"/>
        <pt x="1570" y="1456" on="1"/>
        <pt x="877" y="808" on="1"/>
        <pt x="1290" y="0" on="1"/>
        <pt x="954" y="0" on="1"/>
        <pt x="633" y="628" on="1"/>
        <pt x="488" y="496" on="1"/>
        <pt x="383" y="0" on="1"/>
        <pt x="115" y="0" on="1"/>
      </contour>
    </TTGlyph>
    <TTGlyph name="Kcommaaccent" xMin="115" yMin="0" xMax="1570" yMax="1456">
      <contour>
        <pt x="424" y="1456" on="1"/>
        <pt x="692" y="1456" on="1"/>
        <pt x="560" y="833" on="1"/>
        <pt x="1235" y="1456" on="1"/>
        <pt x="1570" y="1456" on="1"/>
        <pt x="877" y="808" on="1"/>
        <pt x="1290" y="0" on="1"/>
        <pt x="954" y="0" on="1"/>
        <pt x="633" y="628" on="1"/>
        <pt x="488" y="496" on="1"/>
        <pt x="383" y="0" on="1"/>
        <pt x="115" y="0" on="1"/>
      </contour>
    </TTGlyph>
    <TTGlyph name="L" xMin="115" yMin="0" xMax="1150" yMax="1456">
      <contour>
        <pt x="424" y="1456" on="1"/>
        <pt x="692" y="1456" on="1"/>
        <pt x="434" y="240" on="1"/>
        <pt x="1150" y="240" on="1"/>
        <pt x="1099" y="0" on="1"/>
        <pt x="115" y="0" on="1"/>
      </contour>
    </TTGlyph>
    <TTGlyph name="Lacute" xMin="115" yMin="0" xMax="1214" yMax="1945">
      <contour>
        <pt x="424" y="1456" on="1"/>
        <pt x="692" y="1456" on="1"/>
        <pt x="434" y="240" on="1"/>
        <pt x="1150" y="240" on="1"/>
        <pt x="1099" y="0" on="1"/>
        <pt x="115" y="0" on="1"/>
      </contour>
      <contour>
        <pt x="811" y="1528" on="1"/>
        <pt x="779" y="1528" on="0"/>
        <pt x="746" y="1580" on="1"/>
        <pt x="719" y="1622" on="0"/>
        <pt x="740" y="1675" on="1"/>
        <pt x="743" y="1683" on="0"/>
        <pt x="751" y="1688" on="1"/>
        <pt x="1085" y="1935" on="1"/>
        <pt x="1098" y="1945" on="0"/>
        <pt x="1111" y="1945" on="1"/>
        <pt x="1166" y="1945" on="0"/>
        <pt x="1201" y="1888" on="1"/>
        <pt x="1214" y="1868" on="0"/>
        <pt x="1214" y="1842" on="1"/>
        <pt x="1214" y="1771" on="0"/>
        <pt x="1178" y="1746" on="1"/>
        <pt x="825" y="1533" on="1"/>
        <pt x="817" y="1528" on="0"/>
      </contour>
    </TTGlyph>
    <TTGlyph name="Lambda" xMin="70" yMin="0" xMax="1232" yMax="1456">
      <contour>
        <pt x="954" y="0" on="1"/>
        <pt x="876" y="1045" on="1"/>
        <pt x="360" y="0" on="1"/>
        <pt x="70" y="0" on="1"/>
        <pt x="807" y="1456" on="1"/>
        <pt x="1123" y="1456" on="1"/>
        <pt x="1232" y="0" on="1"/>
      </contour>
    </TTGlyph>
    <TTGlyph name="Lcaron" xMin="115" yMin="0" xMax="1150" yMax="1514">
      <contour>
        <pt x="424" y="1456" on="1"/>
        <pt x="692" y="1456" on="1"/>
        <pt x="434" y="240" on="1"/>
        <pt x="1150" y="240" on="1"/>
        <pt x="1099" y="0" on="1"/>
        <pt x="115" y="0" on="1"/>
      </contour>
      <contour>
        <pt x="928" y="1514" on="1"/>
        <pt x="1021" y="1514" on="0"/>
        <pt x="1021" y="1403" on="1"/>
        <pt x="1021" y="1362" on="0"/>
        <pt x="989" y="1303" on="1"/>
        <pt x="941" y="1215" on="0"/>
        <pt x="850" y="1124" on="0"/>
        <pt x="834" y="1112" on="1"/>
        <pt x="790" y="1146" on="1"/>
        <pt x="831" y="1208" on="0"/>
        <pt x="843" y="1251" on="0"/>
        <pt x="842" y="1252" on="1"/>
        <pt x="785" y="1268" on="0"/>
        <pt x="785" y="1343" on="1"/>
        <pt x="785" y="1419" on="0"/>
        <pt x="882" y="1514" on="0"/>
      </contour>
    </TTGlyph>
    <TTGlyph name="Lcommaaccent" xMin="115" yMin="-365" xMax="1150" yMax="1456">
      <contour>
        <pt x="424" y="1456" on="1"/>
        <pt x="692" y="1456" on="1"/>
        <pt x="434" y="240" on="1"/>
        <pt x="1150" y="240" on="1"/>
        <pt x="1099" y="0" on="1"/>
        <pt x="115" y="0" on="1"/>
      </contour>
      <contour>
        <pt x="351" y="-238" on="1"/>
        <pt x="355" y="-236" on="0"/>
        <pt x="382" y="-222" on="0"/>
        <pt x="397" y="-215" on="0"/>
        <pt x="425" y="-200" on="0"/>
        <pt x="442" y="-190" on="0"/>
        <pt x="465" y="-175" on="0"/>
        <pt x="481" y="-162" on="0"/>
        <pt x="488" y="-155" on="1"/>
        <pt x="512" y="-133" on="0"/>
        <pt x="512" y="-48" on="0"/>
        <pt x="487" y="-16" on="1"/>
        <pt x="668" y="74" on="1"/>
        <pt x="736" y="0" on="0"/>
        <pt x="736" y="-90" on="1"/>
        <pt x="736" y="-113" on="0"/>
        <pt x="732" y="-133" on="1"/>
        <pt x="709" y="-238" on="0"/>
        <pt x="453" y="-357" on="1"/>
        <pt x="442" y="-363" on="0"/>
        <pt x="437" y="-365" on="1"/>
      </contour>
    </TTGlyph>
    <TTGlyph name="Ldot" xMin="115" yMin="0" xMax="1150" yMax="1456">
      <contour>
        <pt x="424" y="1456" on="1"/>
        <pt x="692" y="1456" on="1"/>
        <pt x="434" y="240" on="1"/>
        <pt x="1150" y="240" on="1"/>
        <pt x="1099" y="0" on="1"/>
        <pt x="115" y="0" on="1"/>
      </contour>
      <contour>
        <pt x="759" y="732" on="1"/>
        <pt x="759" y="819" on="0"/>
        <pt x="894" y="930" on="0"/>
        <pt x="1021" y="930" on="0"/>
        <pt x="1095" y="857" on="0"/>
        <pt x="1095" y="801" on="1"/>
        <pt x="1095" y="713" on="0"/>
        <pt x="960" y="602" on="0"/>
        <pt x="834" y="602" on="0"/>
        <pt x="759" y="676" on="0"/>
      </contour>
    </TTGlyph>
    <TTGlyph name="Lslash" xMin="85" yMin="0" xMax="1200" yMax="1456">
      <contour>
        <pt x="85" y="400" on="1"/>
        <pt x="134" y="630" on="1"/>
        <pt x="270" y="730" on="1"/>
        <pt x="424" y="1456" on="1"/>
        <pt x="692" y="1456" on="1"/>
        <pt x="588" y="965" on="1"/>
        <pt x="894" y="1190" on="1"/>
        <pt x="843" y="956" on="1"/>
        <pt x="539" y="733" on="1"/>
        <pt x="434" y="240" on="1"/>
        <pt x="1200" y="240" on="1"/>
        <pt x="1149" y="0" on="1"/>
        <pt x="115" y="0" on="1"/>
        <pt x="221" y="500" on="1"/>
      </contour>
    </TTGlyph>
    <TTGlyph name="M" xMin="115" yMin="0" xMax="1849" yMax="1456">
      <contour>
        <pt x="115" y="0" on="1"/>
        <pt x="424" y="1456" on="1"/>
        <pt x="784" y="1456" on="1"/>
        <pt x="915" y="424" on="1"/>
        <pt x="1490" y="1456" on="1"/>
        <pt x="1849" y="1456" on="1"/>
        <pt x="1540" y="0" on="1"/>
        <pt x="1272" y="0" on="1"/>
        <pt x="1476" y="962" on="1"/>
        <pt x="960" y="0" on="1"/>
        <pt x="690" y="0" on="1"/>
        <pt x="587" y="962" on="1"/>
        <pt x="383" y="0" on="1"/>
      </contour>
    </TTGlyph>
    <TTGlyph name="Mdotaccent" xMin="115" yMin="0" xMax="1849" yMax="1921">
      <contour>
        <pt x="982" y="1722" on="1"/>
        <pt x="982" y="1811" on="0"/>
        <pt x="1116" y="1921" on="0"/>
        <pt x="1252" y="1921" on="0"/>
        <pt x="1317" y="1839" on="0"/>
        <pt x="1317" y="1806" on="1"/>
        <pt x="1317" y="1702" on="0"/>
        <pt x="1182" y="1593" on="0"/>
        <pt x="1047" y="1593" on="0"/>
        <pt x="982" y="1677" on="0"/>
      </contour>
      <contour>
        <pt x="115" y="0" on="1"/>
        <pt x="424" y="1456" on="1"/>
        <pt x="784" y="1456" on="1"/>
        <pt x="915" y="424" on="1"/>
        <pt x="1490" y="1456" on="1"/>
        <pt x="1849" y="1456" on="1"/>
        <pt x="1540" y="0" on="1"/>
        <pt x="1272" y="0" on="1"/>
        <pt x="1476" y="962" on="1"/>
        <pt x="960" y="0" on="1"/>
        <pt x="690" y="0" on="1"/>
        <pt x="587" y="962" on="1"/>
        <pt x="383" y="0" on="1"/>
      </contour>
    </TTGlyph>
    <TTGlyph name="Mu" xMin="66" yMin="0" xMax="1800" yMax="1456">
      <contour>
        <pt x="66" y="0" on="1"/>
        <pt x="375" y="1456" on="1"/>
        <pt x="735" y="1456" on="1"/>
        <pt x="865" y="424" on="1"/>
        <pt x="1441" y="1456" on="1"/>
        <pt x="1800" y="1456" on="1"/>
        <pt x="1491" y="0" on="1"/>
        <pt x="1229" y="0" on="1"/>
        <pt x="1441" y="999" on="1"/>
        <pt x="911" y="0" on="1"/>
        <pt x="641" y="0" on="1"/>
        <pt x="538" y="988" on="1"/>
        <pt x="328" y="0" on="1"/>
      </contour>
    </TTGlyph>
    <TTGlyph name="N" xMin="115" yMin="0" xMax="1525" yMax="1456">
      <contour>
        <pt x="115" y="0" on="1"/>
        <pt x="424" y="1456" on="1"/>
        <pt x="684" y="1456" on="1"/>
        <pt x="1058" y="516" on="1"/>
        <pt x="1257" y="1456" on="1"/>
        <pt x="1525" y="1456" on="1"/>
        <pt x="1216" y="0" on="1"/>
        <pt x="952" y="0" on="1"/>
        <pt x="590" y="973" on="1"/>
        <pt x="383" y="0" on="1"/>
      </contour>
    </TTGlyph>
    <TTGlyph name="Nacute" xMin="115" yMin="0" xMax="1525" yMax="1945">
      <contour>
        <pt x="115" y="0" on="1"/>
        <pt x="424" y="1456" on="1"/>
        <pt x="684" y="1456" on="1"/>
        <pt x="1058" y="516" on="1"/>
        <pt x="1257" y="1456" on="1"/>
        <pt x="1525" y="1456" on="1"/>
        <pt x="1216" y="0" on="1"/>
        <pt x="952" y="0" on="1"/>
        <pt x="590" y="973" on="1"/>
        <pt x="383" y="0" on="1"/>
      </contour>
      <contour>
        <pt x="902" y="1528" on="1"/>
        <pt x="870" y="1528" on="0"/>
        <pt x="837" y="1580" on="1"/>
        <pt x="810" y="1622" on="0"/>
        <pt x="831" y="1675" on="1"/>
        <pt x="834" y="1683" on="0"/>
        <pt x="842" y="1688" on="1"/>
        <pt x="1176" y="1935" on="1"/>
        <pt x="1189" y="1945" on="0"/>
        <pt x="1202" y="1945" on="1"/>
        <pt x="1257" y="1945" on="0"/>
        <pt x="1292" y="1888" on="1"/>
        <pt x="1305" y="1868" on="0"/>
        <pt x="1305" y="1842" on="1"/>
        <pt x="1305" y="1773" on="0"/>
        <pt x="1269" y="1746" on="1"/>
        <pt x="916" y="1533" on="1"/>
        <pt x="908" y="1528" on="0"/>
      </contour>
    </TTGlyph>
    <TTGlyph name="Ncaron" xMin="115" yMin="0" xMax="1526" yMax="1906">
      <contour>
        <pt x="115" y="0" on="1"/>
        <pt x="424" y="1456" on="1"/>
        <pt x="684" y="1456" on="1"/>
        <pt x="1058" y="516" on="1"/>
        <pt x="1257" y="1456" on="1"/>
        <pt x="1525" y="1456" on="1"/>
        <pt x="1216" y="0" on="1"/>
        <pt x="952" y="0" on="1"/>
        <pt x="590" y="973" on="1"/>
        <pt x="383" y="0" on="1"/>
      </contour>
      <contour>
        <pt x="1526" y="1906" on="1"/>
        <pt x="1169" y="1562" on="1"/>
        <pt x="933" y="1562" on="1"/>
        <pt x="721" y="1903" on="1"/>
        <pt x="998" y="1903" on="1"/>
        <pt x="1089" y="1745" on="1"/>
        <pt x="1255" y="1906" on="1"/>
      </contour>
    </TTGlyph>
    <TTGlyph name="Ncommaaccent" xMin="115" yMin="0" xMax="1525" yMax="1456">
      <contour>
        <pt x="115" y="0" on="1"/>
        <pt x="424" y="1456" on="1"/>
        <pt x="684" y="1456" on="1"/>
        <pt x="1058" y="516" on="1"/>
        <pt x="1257" y="1456" on="1"/>
        <pt x="1525" y="1456" on="1"/>
        <pt x="1216" y="0" on="1"/>
        <pt x="952" y="0" on="1"/>
        <pt x="590" y="973" on="1"/>
        <pt x="383" y="0" on="1"/>
      </contour>
    </TTGlyph>
    <TTGlyph name="Ntilde" xMin="115" yMin="0" xMax="1525" yMax="1896">
      <contour>
        <pt x="115" y="0" on="1"/>
        <pt x="424" y="1456" on="1"/>
        <pt x="684" y="1456" on="1"/>
        <pt x="1058" y="516" on="1"/>
        <pt x="1257" y="1456" on="1"/>
        <pt x="1525" y="1456" on="1"/>
        <pt x="1216" y="0" on="1"/>
        <pt x="952" y="0" on="1"/>
        <pt x="590" y="973" on="1"/>
        <pt x="383" y="0" on="1"/>
      </contour>
      <contour>
        <pt x="702" y="1793" on="1"/>
        <pt x="710" y="1798" on="0"/>
        <pt x="760" y="1836" on="0"/>
        <pt x="791" y="1856" on="0"/>
        <pt x="815" y="1870" on="1"/>
        <pt x="862" y="1896" on="0"/>
        <pt x="940" y="1896" on="0"/>
        <pt x="1004" y="1848" on="0"/>
        <pt x="1026" y="1820" on="1"/>
        <pt x="1088" y="1744" on="0"/>
        <pt x="1151" y="1744" on="1"/>
        <pt x="1185" y="1744" on="0"/>
        <pt x="1229" y="1766" on="0"/>
        <pt x="1244" y="1773" on="0"/>
        <pt x="1272" y="1792" on="0"/>
        <pt x="1284" y="1799" on="0"/>
        <pt x="1313" y="1821" on="0"/>
        <pt x="1316" y="1824" on="1"/>
        <pt x="1341" y="1841" on="0"/>
        <pt x="1351" y="1851" on="1"/>
        <pt x="1296" y="1591" on="1"/>
        <pt x="1290" y="1587" on="0"/>
        <pt x="1230" y="1544" on="0"/>
        <pt x="1211" y="1532" on="1"/>
        <pt x="1152" y="1497" on="0"/>
        <pt x="1066" y="1497" on="0"/>
        <pt x="1007" y="1528" on="0"/>
        <pt x="962" y="1573" on="0"/>
        <pt x="942" y="1596" on="1"/>
        <pt x="893" y="1649" on="0"/>
        <pt x="825" y="1649" on="0"/>
        <pt x="769" y="1629" on="0"/>
        <pt x="734" y="1608" on="0"/>
        <pt x="667" y="1562" on="0"/>
        <pt x="651" y="1552" on="1"/>
      </contour>
    </TTGlyph>
    <TTGlyph name="Nu" xMin="119" yMin="0" xMax="1530" yMax="1456">
      <contour>
        <pt x="119" y="0" on="1"/>
        <pt x="428" y="1456" on="1"/>
        <pt x="688" y="1456" on="1"/>
        <pt x="1062" y="516" on="1"/>
        <pt x="1261" y="1456" on="1"/>
        <pt x="1530" y="1456" on="1"/>
        <pt x="1221" y="0" on="1"/>
        <pt x="956" y="0" on="1"/>
        <pt x="594" y="973" on="1"/>
        <pt x="387" y="0" on="1"/>
      </contour>
    </TTGlyph>
    <TTGlyph name="O" xMin="231" yMin="-29" xMax="1507" yMax="1485">
      <contour>
        <pt x="1160" y="579" on="1"/>
        <pt x="1225" y="761" on="0"/>
        <pt x="1225" y="917" on="1"/>
        <pt x="1225" y="1245" on="0"/>
        <pt x="980" y="1245" on="1"/>
        <pt x="773" y="1245" on="0"/>
        <pt x="643" y="1015" on="1"/>
        <pt x="573" y="891" on="0"/>
        <pt x="514" y="616" on="0"/>
        <pt x="514" y="385" on="0"/>
        <pt x="631" y="211" on="0"/>
        <pt x="760" y="211" on="1"/>
        <pt x="968" y="211" on="0"/>
        <pt x="1096" y="440" on="1"/>
        <pt x="1135" y="509" on="0"/>
      </contour>
      <contour>
        <pt x="231" y="509" on="1"/>
        <pt x="231" y="849" on="0"/>
        <pt x="430" y="1140" on="1"/>
        <pt x="575" y="1354" on="0"/>
        <pt x="785" y="1438" on="1"/>
        <pt x="901" y="1485" on="0"/>
        <pt x="1134" y="1485" on="0"/>
        <pt x="1299" y="1426" on="0"/>
        <pt x="1406" y="1326" on="0"/>
        <pt x="1442" y="1256" on="1"/>
        <pt x="1507" y="1128" on="0"/>
        <pt x="1507" y="948" on="1"/>
        <pt x="1507" y="736" on="0"/>
        <pt x="1418" y="518" on="1"/>
        <pt x="1328" y="293" on="0"/>
        <pt x="1156" y="140" on="1"/>
        <pt x="1071" y="64" on="0"/>
        <pt x="839" y="-29" on="0"/>
        <pt x="605" y="-29" on="0"/>
        <pt x="440" y="30" on="0"/>
        <pt x="333" y="131" on="0"/>
        <pt x="297" y="201" on="1"/>
        <pt x="231" y="329" on="0"/>
      </contour>
    </TTGlyph>
    <TTGlyph name="OE" xMin="231" yMin="-29" xMax="1894" yMax="1489">
      <contour>
        <pt x="823" y="0" on="1"/>
        <pt x="824" y="7" on="1"/>
        <pt x="729" y="-29" on="0"/>
        <pt x="529" y="-29" on="0"/>
        <pt x="390" y="31" on="0"/>
        <pt x="305" y="128" on="0"/>
        <pt x="278" y="196" on="1"/>
        <pt x="231" y="316" on="0"/>
        <pt x="231" y="615" on="0"/>
        <pt x="272" y="810" on="0"/>
        <pt x="308" y="929" on="0"/>
        <pt x="370" y="1076" on="0"/>
        <pt x="447" y="1209" on="0"/>
        <pt x="557" y="1338" on="0"/>
        <pt x="620" y="1385" on="1"/>
        <pt x="759" y="1489" on="0"/>
        <pt x="941" y="1489" on="1"/>
        <pt x="1053" y="1489" on="0"/>
        <pt x="1132" y="1455" on="1"/>
        <pt x="1894" y="1456" on="1"/>
        <pt x="1844" y="1217" on="1"/>
        <pt x="1350" y="1217" on="1"/>
        <pt x="1275" y="866" on="1"/>
        <pt x="1706" y="866" on="1"/>
        <pt x="1655" y="627" on="1"/>
        <pt x="1224" y="627" on="1"/>
        <pt x="1142" y="240" on="1"/>
        <pt x="1636" y="240" on="1"/>
        <pt x="1585" y="0" on="1"/>
      </contour>
      <contour>
        <pt x="1061" y="1118" on="1"/>
        <pt x="1043" y="1249" on="0"/>
        <pt x="890" y="1249" on="1"/>
        <pt x="784" y="1249" on="0"/>
        <pt x="708" y="1149" on="1"/>
        <pt x="636" y="1054" on="0"/>
        <pt x="605" y="967" on="1"/>
        <pt x="511" y="695" on="0"/>
        <pt x="511" y="479" on="1"/>
        <pt x="511" y="213" on="0"/>
        <pt x="670" y="213" on="1"/>
        <pt x="822" y="213" on="0"/>
        <pt x="899" y="359" on="1"/>
      </contour>
    </TTGlyph>
    <TTGlyph name="Oacute" xMin="231" yMin="-29" xMax="1507" yMax="1945">
      <contour>
        <pt x="1036" y="1533" on="1"/>
        <pt x="774" y="1746" on="1"/>
        <pt x="762" y="1756" on="0"/>
        <pt x="762" y="1775" on="1"/>
        <pt x="762" y="1812" on="0"/>
        <pt x="776" y="1840" on="1"/>
        <pt x="815" y="1918" on="0"/>
        <pt x="901" y="1942" on="1"/>
        <pt x="911" y="1945" on="0"/>
        <pt x="936" y="1945" on="0"/>
        <pt x="946" y="1935" on="1"/>
        <pt x="1177" y="1688" on="1"/>
        <pt x="1181" y="1684" on="0"/>
        <pt x="1181" y="1676" on="1"/>
        <pt x="1181" y="1646" on="0"/>
        <pt x="1168" y="1622" on="1"/>
        <pt x="1147" y="1585" on="0"/>
        <pt x="1112" y="1560" on="1"/>
        <pt x="1068" y="1528" on="0"/>
        <pt x="1041" y="1528" on="0"/>
      </contour>
      <contour>
        <pt x="1160" y="579" on="1"/>
        <pt x="1225" y="761" on="0"/>
        <pt x="1225" y="917" on="1"/>
        <pt x="1225" y="1245" on="0"/>
        <pt x="980" y="1245" on="1"/>
        <pt x="773" y="1245" on="0"/>
        <pt x="643" y="1015" on="1"/>
        <pt x="573" y="891" on="0"/>
        <pt x="514" y="616" on="0"/>
        <pt x="514" y="385" on="0"/>
        <pt x="631" y="211" on="0"/>
        <pt x="760" y="211" on="1"/>
        <pt x="968" y="211" on="0"/>
        <pt x="1096" y="440" on="1"/>
        <pt x="1135" y="509" on="0"/>
      </contour>
      <contour>
        <pt x="231" y="509" on="1"/>
        <pt x="231" y="849" on="0"/>
        <pt x="430" y="1140" on="1"/>
        <pt x="575" y="1354" on="0"/>
        <pt x="785" y="1438" on="1"/>
        <pt x="901" y="1485" on="0"/>
        <pt x="1134" y="1485" on="0"/>
        <pt x="1299" y="1426" on="0"/>
        <pt x="1406" y="1326" on="0"/>
        <pt x="1442" y="1256" on="1"/>
        <pt x="1507" y="1128" on="0"/>
        <pt x="1507" y="948" on="1"/>
        <pt x="1507" y="736" on="0"/>
        <pt x="1418" y="518" on="1"/>
        <pt x="1328" y="293" on="0"/>
        <pt x="1156" y="140" on="1"/>
        <pt x="1071" y="64" on="0"/>
        <pt x="839" y="-29" on="0"/>
        <pt x="605" y="-29" on="0"/>
        <pt x="440" y="30" on="0"/>
        <pt x="333" y="131" on="0"/>
        <pt x="297" y="201" on="1"/>
        <pt x="231" y="329" on="0"/>
      </contour>
    </TTGlyph>
    <TTGlyph name="Obreve" xMin="231" yMin="-29" xMax="1507" yMax="1942">
      <contour>
        <pt x="1160" y="579" on="1"/>
        <pt x="1225" y="761" on="0"/>
        <pt x="1225" y="917" on="1"/>
        <pt x="1225" y="1245" on="0"/>
        <pt x="980" y="1245" on="1"/>
        <pt x="773" y="1245" on="0"/>
        <pt x="643" y="1015" on="1"/>
        <pt x="573" y="891" on="0"/>
        <pt x="514" y="616" on="0"/>
        <pt x="514" y="385" on="0"/>
        <pt x="631" y="211" on="0"/>
        <pt x="760" y="211" on="1"/>
        <pt x="968" y="211" on="0"/>
        <pt x="1096" y="440" on="1"/>
        <pt x="1135" y="509" on="0"/>
      </contour>
      <contour>
        <pt x="231" y="509" on="1"/>
        <pt x="231" y="849" on="0"/>
        <pt x="430" y="1140" on="1"/>
        <pt x="575" y="1354" on="0"/>
        <pt x="785" y="1438" on="1"/>
        <pt x="901" y="1485" on="0"/>
        <pt x="1134" y="1485" on="0"/>
        <pt x="1299" y="1426" on="0"/>
        <pt x="1406" y="1326" on="0"/>
        <pt x="1442" y="1256" on="1"/>
        <pt x="1507" y="1128" on="0"/>
        <pt x="1507" y="948" on="1"/>
        <pt x="1507" y="736" on="0"/>
        <pt x="1418" y="518" on="1"/>
        <pt x="1328" y="293" on="0"/>
        <pt x="1156" y="140" on="1"/>
        <pt x="1071" y="64" on="0"/>
        <pt x="839" y="-29" on="0"/>
        <pt x="605" y="-29" on="0"/>
        <pt x="440" y="30" on="0"/>
        <pt x="333" y="131" on="0"/>
        <pt x="297" y="201" on="1"/>
        <pt x="231" y="329" on="0"/>
      </contour>
      <contour>
        <pt x="1364" y="1676" on="1"/>
        <pt x="1308" y="1607" on="0"/>
        <pt x="1130" y="1516" on="0"/>
        <pt x="970" y="1516" on="0"/>
        <pt x="827" y="1609" on="0"/>
        <pt x="773" y="1754" on="0"/>
        <pt x="773" y="1881" on="0"/>
        <pt x="790" y="1942" on="1"/>
        <pt x="951" y="1942" on="1"/>
        <pt x="981" y="1812" on="0"/>
        <pt x="1036" y="1769" on="1"/>
        <pt x="1056" y="1754" on="0"/>
        <pt x="1146" y="1754" on="0"/>
        <pt x="1169" y="1768" on="1"/>
        <pt x="1223" y="1801" on="0"/>
        <pt x="1333" y="1942" on="1"/>
        <pt x="1490" y="1942" on="1"/>
        <pt x="1490" y="1940" on="0"/>
        <pt x="1484" y="1911" on="1"/>
        <pt x="1458" y="1792" on="0"/>
      </contour>
    </TTGlyph>
    <TTGlyph name="Ocircumflex" xMin="231" yMin="-29" xMax="1507" yMax="1945">
      <contour>
        <pt x="1045" y="1533" on="1"/>
        <pt x="1037" y="1528" on="0"/>
        <pt x="1033" y="1528" on="1"/>
        <pt x="999" y="1528" on="0"/>
        <pt x="965" y="1581" on="1"/>
        <pt x="957" y="1594" on="0"/>
        <pt x="954" y="1620" on="1"/>
        <pt x="949" y="1675" on="0"/>
        <pt x="971" y="1688" on="1"/>
        <pt x="1305" y="1935" on="1"/>
        <pt x="1318" y="1945" on="0"/>
        <pt x="1331" y="1945" on="1"/>
        <pt x="1386" y="1945" on="0"/>
        <pt x="1421" y="1888" on="1"/>
        <pt x="1434" y="1867" on="0"/>
        <pt x="1434" y="1842" on="1"/>
        <pt x="1434" y="1771" on="0"/>
        <pt x="1398" y="1746" on="1"/>
      </contour>
      <contour>
        <pt x="1160" y="579" on="1"/>
        <pt x="1225" y="761" on="0"/>
        <pt x="1225" y="917" on="1"/>
        <pt x="1225" y="1245" on="0"/>
        <pt x="980" y="1245" on="1"/>
        <pt x="773" y="1245" on="0"/>
        <pt x="643" y="1015" on="1"/>
        <pt x="573" y="891" on="0"/>
        <pt x="514" y="616" on="0"/>
        <pt x="514" y="385" on="0"/>
        <pt x="631" y="211" on="0"/>
        <pt x="760" y="211" on="1"/>
        <pt x="968" y="211" on="0"/>
        <pt x="1096" y="440" on="1"/>
        <pt x="1135" y="509" on="0"/>
      </contour>
      <contour>
        <pt x="231" y="509" on="1"/>
        <pt x="231" y="849" on="0"/>
        <pt x="430" y="1140" on="1"/>
        <pt x="575" y="1354" on="0"/>
        <pt x="785" y="1438" on="1"/>
        <pt x="901" y="1485" on="0"/>
        <pt x="1134" y="1485" on="0"/>
        <pt x="1299" y="1426" on="0"/>
        <pt x="1406" y="1326" on="0"/>
        <pt x="1442" y="1256" on="1"/>
        <pt x="1507" y="1128" on="0"/>
        <pt x="1507" y="948" on="1"/>
        <pt x="1507" y="736" on="0"/>
        <pt x="1418" y="518" on="1"/>
        <pt x="1328" y="293" on="0"/>
        <pt x="1156" y="140" on="1"/>
        <pt x="1071" y="64" on="0"/>
        <pt x="839" y="-29" on="0"/>
        <pt x="605" y="-29" on="0"/>
        <pt x="440" y="30" on="0"/>
        <pt x="333" y="131" on="0"/>
        <pt x="297" y="201" on="1"/>
        <pt x="231" y="329" on="0"/>
      </contour>
    </TTGlyph>
    <TTGlyph name="Odieresis" xMin="231" yMin="-29" xMax="1507" yMax="1902">
      <contour>
        <pt x="1160" y="579" on="1"/>
        <pt x="1225" y="761" on="0"/>
        <pt x="1225" y="917" on="1"/>
        <pt x="1225" y="1245" on="0"/>
        <pt x="980" y="1245" on="1"/>
        <pt x="773" y="1245" on="0"/>
        <pt x="643" y="1015" on="1"/>
        <pt x="573" y="891" on="0"/>
        <pt x="514" y="616" on="0"/>
        <pt x="514" y="385" on="0"/>
        <pt x="631" y="211" on="0"/>
        <pt x="760" y="211" on="1"/>
        <pt x="968" y="211" on="0"/>
        <pt x="1096" y="440" on="1"/>
        <pt x="1135" y="509" on="0"/>
      </contour>
      <contour>
        <pt x="231" y="509" on="1"/>
        <pt x="231" y="849" on="0"/>
        <pt x="430" y="1140" on="1"/>
        <pt x="575" y="1354" on="0"/>
        <pt x="785" y="1438" on="1"/>
        <pt x="901" y="1485" on="0"/>
        <pt x="1134" y="1485" on="0"/>
        <pt x="1299" y="1426" on="0"/>
        <pt x="1406" y="1326" on="0"/>
        <pt x="1442" y="1256" on="1"/>
        <pt x="1507" y="1128" on="0"/>
        <pt x="1507" y="948" on="1"/>
        <pt x="1507" y="736" on="0"/>
        <pt x="1418" y="518" on="1"/>
        <pt x="1328" y="293" on="0"/>
        <pt x="1156" y="140" on="1"/>
        <pt x="1071" y="64" on="0"/>
        <pt x="839" y="-29" on="0"/>
        <pt x="605" y="-29" on="0"/>
        <pt x="440" y="30" on="0"/>
        <pt x="333" y="131" on="0"/>
        <pt x="297" y="201" on="1"/>
        <pt x="231" y="329" on="0"/>
      </contour>
      <contour>
        <pt x="676" y="1703" on="1"/>
        <pt x="676" y="1792" on="0"/>
        <pt x="812" y="1902" on="0"/>
        <pt x="948" y="1902" on="0"/>
        <pt x="1012" y="1820" on="0"/>
        <pt x="1012" y="1787" on="1"/>
        <pt x="1012" y="1683" on="0"/>
        <pt x="878" y="1574" on="0"/>
        <pt x="742" y="1574" on="0"/>
        <pt x="676" y="1659" on="0"/>
      </contour>
      <contour>
        <pt x="1147" y="1703" on="1"/>
        <pt x="1147" y="1792" on="0"/>
        <pt x="1282" y="1902" on="0"/>
        <pt x="1418" y="1902" on="0"/>
        <pt x="1483" y="1820" on="0"/>
        <pt x="1483" y="1787" on="1"/>
        <pt x="1483" y="1683" on="0"/>
        <pt x="1348" y="1574" on="0"/>
        <pt x="1213" y="1574" on="0"/>
        <pt x="1147" y="1659" on="0"/>
      </contour>
    </TTGlyph>
    <TTGlyph name="Ograve" xMin="231" yMin="-29" xMax="1507" yMax="2340">
      <contour>
        <pt x="1160" y="579" on="1"/>
        <pt x="1225" y="761" on="0"/>
        <pt x="1225" y="917" on="1"/>
        <pt x="1225" y="1245" on="0"/>
        <pt x="980" y="1245" on="1"/>
        <pt x="773" y="1245" on="0"/>
        <pt x="643" y="1015" on="1"/>
        <pt x="573" y="891" on="0"/>
        <pt x="514" y="616" on="0"/>
        <pt x="514" y="385" on="0"/>
        <pt x="631" y="211" on="0"/>
        <pt x="760" y="211" on="1"/>
        <pt x="968" y="211" on="0"/>
        <pt x="1096" y="440" on="1"/>
        <pt x="1135" y="509" on="0"/>
      </contour>
      <contour>
        <pt x="231" y="509" on="1"/>
        <pt x="231" y="849" on="0"/>
        <pt x="430" y="1140" on="1"/>
        <pt x="575" y="1354" on="0"/>
        <pt x="785" y="1438" on="1"/>
        <pt x="901" y="1485" on="0"/>
        <pt x="1134" y="1485" on="0"/>
        <pt x="1299" y="1426" on="0"/>
        <pt x="1406" y="1326" on="0"/>
        <pt x="1442" y="1256" on="1"/>
        <pt x="1507" y="1128" on="0"/>
        <pt x="1507" y="948" on="1"/>
        <pt x="1507" y="736" on="0"/>
        <pt x="1418" y="518" on="1"/>
        <pt x="1328" y="293" on="0"/>
        <pt x="1156" y="140" on="1"/>
        <pt x="1071" y="64" on="0"/>
        <pt x="839" y="-29" on="0"/>
        <pt x="605" y="-29" on="0"/>
        <pt x="440" y="30" on="0"/>
        <pt x="333" y="131" on="0"/>
        <pt x="297" y="201" on="1"/>
        <pt x="231" y="329" on="0"/>
      </contour>
      <contour>
        <pt x="1140" y="1928" on="1"/>
        <pt x="878" y="2141" on="1"/>
        <pt x="865" y="2154" on="0"/>
        <pt x="865" y="2185" on="0"/>
        <pt x="868" y="2200" on="1"/>
        <pt x="881" y="2269" on="0"/>
        <pt x="957" y="2316" on="1"/>
        <pt x="996" y="2340" on="0"/>
        <pt x="1040" y="2340" on="0"/>
        <pt x="1050" y="2330" on="1"/>
        <pt x="1281" y="2083" on="1"/>
        <pt x="1285" y="2079" on="0"/>
        <pt x="1285" y="2072" on="1"/>
        <pt x="1285" y="2041" on="0"/>
        <pt x="1272" y="2017" on="1"/>
        <pt x="1251" y="1980" on="0"/>
        <pt x="1216" y="1955" on="1"/>
        <pt x="1172" y="1923" on="0"/>
        <pt x="1145" y="1923" on="0"/>
      </contour>
    </TTGlyph>
    <TTGlyph name="Ohungarumlaut" xMin="231" yMin="-29" xMax="1598" yMax="1946">
      <contour>
        <pt x="1160" y="579" on="1"/>
        <pt x="1225" y="761" on="0"/>
        <pt x="1225" y="917" on="1"/>
        <pt x="1225" y="1245" on="0"/>
        <pt x="980" y="1245" on="1"/>
        <pt x="773" y="1245" on="0"/>
        <pt x="643" y="1015" on="1"/>
        <pt x="573" y="891" on="0"/>
        <pt x="514" y="616" on="0"/>
        <pt x="514" y="385" on="0"/>
        <pt x="631" y="211" on="0"/>
        <pt x="760" y="211" on="1"/>
        <pt x="968" y="211" on="0"/>
        <pt x="1096" y="440" on="1"/>
        <pt x="1135" y="509" on="0"/>
      </contour>
      <contour>
        <pt x="231" y="509" on="1"/>
        <pt x="231" y="849" on="0"/>
        <pt x="430" y="1140" on="1"/>
        <pt x="575" y="1354" on="0"/>
        <pt x="785" y="1438" on="1"/>
        <pt x="901" y="1485" on="0"/>
        <pt x="1134" y="1485" on="0"/>
        <pt x="1299" y="1426" on="0"/>
        <pt x="1406" y="1326" on="0"/>
        <pt x="1442" y="1256" on="1"/>
        <pt x="1507" y="1128" on="0"/>
        <pt x="1507" y="948" on="1"/>
        <pt x="1507" y="736" on="0"/>
        <pt x="1418" y="518" on="1"/>
        <pt x="1328" y="293" on="0"/>
        <pt x="1156" y="140" on="1"/>
        <pt x="1071" y="64" on="0"/>
        <pt x="839" y="-29" on="0"/>
        <pt x="605" y="-29" on="0"/>
        <pt x="440" y="30" on="0"/>
        <pt x="333" y="131" on="0"/>
        <pt x="297" y="201" on="1"/>
        <pt x="231" y="329" on="0"/>
      </contour>
      <contour>
        <pt x="1276" y="1493" on="1"/>
        <pt x="1267" y="1484" on="0"/>
        <pt x="1251" y="1484" on="1"/>
        <pt x="1222" y="1484" on="0"/>
        <pt x="1181" y="1516" on="1"/>
        <pt x="1169" y="1525" on="0"/>
        <pt x="1158" y="1554" on="1"/>
        <pt x="1141" y="1598" on="0"/>
        <pt x="1158" y="1615" on="1"/>
        <pt x="1434" y="1927" on="1"/>
        <pt x="1452" y="1946" on="0"/>
        <pt x="1476" y="1946" on="1"/>
        <pt x="1532" y="1946" on="0"/>
        <pt x="1564" y="1914" on="1"/>
        <pt x="1580" y="1902" on="0"/>
        <pt x="1598" y="1847" on="0"/>
        <pt x="1598" y="1826" on="0"/>
        <pt x="1591" y="1791" on="0"/>
        <pt x="1579" y="1779" on="1"/>
      </contour>
      <contour>
        <pt x="887" y="1493" on="1"/>
        <pt x="878" y="1484" on="0"/>
        <pt x="862" y="1484" on="1"/>
        <pt x="833" y="1484" on="0"/>
        <pt x="792" y="1516" on="1"/>
        <pt x="779" y="1526" on="0"/>
        <pt x="761" y="1572" on="0"/>
        <pt x="761" y="1584" on="1"/>
        <pt x="761" y="1607" on="0"/>
        <pt x="769" y="1615" on="1"/>
        <pt x="1045" y="1927" on="1"/>
        <pt x="1063" y="1946" on="0"/>
        <pt x="1087" y="1946" on="1"/>
        <pt x="1143" y="1946" on="0"/>
        <pt x="1175" y="1914" on="1"/>
        <pt x="1192" y="1901" on="0"/>
        <pt x="1210" y="1849" on="0"/>
        <pt x="1210" y="1836" on="1"/>
        <pt x="1210" y="1799" on="0"/>
        <pt x="1190" y="1779" on="1"/>
      </contour>
    </TTGlyph>
    <TTGlyph name="Omacron" xMin="231" yMin="-29" xMax="1507" yMax="1813">
      <contour>
        <pt x="1160" y="579" on="1"/>
        <pt x="1225" y="761" on="0"/>
        <pt x="1225" y="917" on="1"/>
        <pt x="1225" y="1245" on="0"/>
        <pt x="980" y="1245" on="1"/>
        <pt x="773" y="1245" on="0"/>
        <pt x="643" y="1015" on="1"/>
        <pt x="573" y="891" on="0"/>
        <pt x="514" y="616" on="0"/>
        <pt x="514" y="385" on="0"/>
        <pt x="631" y="211" on="0"/>
        <pt x="760" y="211" on="1"/>
        <pt x="968" y="211" on="0"/>
        <pt x="1096" y="440" on="1"/>
        <pt x="1135" y="509" on="0"/>
      </contour>
      <contour>
        <pt x="231" y="509" on="1"/>
        <pt x="231" y="849" on="0"/>
        <pt x="430" y="1140" on="1"/>
        <pt x="575" y="1354" on="0"/>
        <pt x="785" y="1438" on="1"/>
        <pt x="901" y="1485" on="0"/>
        <pt x="1134" y="1485" on="0"/>
        <pt x="1299" y="1426" on="0"/>
        <pt x="1406" y="1326" on="0"/>
        <pt x="1442" y="1256" on="1"/>
        <pt x="1507" y="1128" on="0"/>
        <pt x="1507" y="948" on="1"/>
        <pt x="1507" y="736" on="0"/>
        <pt x="1418" y="518" on="1"/>
        <pt x="1328" y="293" on="0"/>
        <pt x="1156" y="140" on="1"/>
        <pt x="1071" y="64" on="0"/>
        <pt x="839" y="-29" on="0"/>
        <pt x="605" y="-29" on="0"/>
        <pt x="440" y="30" on="0"/>
        <pt x="333" y="131" on="0"/>
        <pt x="297" y="201" on="1"/>
        <pt x="231" y="329" on="0"/>
      </contour>
      <contour>
        <pt x="707" y="1813" on="1"/>
        <pt x="1479" y="1813" on="1"/>
        <pt x="1452" y="1686" on="1"/>
        <pt x="680" y="1686" on="1"/>
      </contour>
    </TTGlyph>
    <TTGlyph name="Omega" xMin="31" yMin="0" xMax="1512" yMax="1489">
      <contour>
        <pt x="1227" y="937" on="1"/>
        <pt x="1227" y="1249" on="0"/>
        <pt x="980" y="1249" on="1"/>
        <pt x="772" y="1249" on="0"/>
        <pt x="644" y="1026" on="1"/>
        <pt x="519" y="805" on="0"/>
        <pt x="519" y="545" on="1"/>
        <pt x="519" y="493" on="0"/>
        <pt x="533" y="387" on="0"/>
        <pt x="630" y="263" on="0"/>
        <pt x="682" y="229" on="1"/>
        <pt x="633" y="0" on="1"/>
        <pt x="31" y="0" on="1"/>
        <pt x="80" y="229" on="1"/>
        <pt x="292" y="229" on="1"/>
        <pt x="235" y="370" on="0"/>
        <pt x="235" y="528" on="1"/>
        <pt x="235" y="541" on="1"/>
        <pt x="237" y="742" on="0"/>
        <pt x="323" y="954" on="1"/>
        <pt x="411" y="1169" on="0"/>
        <pt x="584" y="1322" on="1"/>
        <pt x="670" y="1397" on="0"/>
        <pt x="901" y="1489" on="0"/>
        <pt x="1164" y="1489" on="0"/>
        <pt x="1258" y="1443" on="1"/>
        <pt x="1433" y="1358" on="0"/>
        <pt x="1487" y="1151" on="1"/>
        <pt x="1512" y="1054" on="0"/>
        <pt x="1512" y="964" on="1"/>
        <pt x="1512" y="954" on="1"/>
        <pt x="1510" y="756" on="0"/>
        <pt x="1424" y="542" on="1"/>
        <pt x="1354" y="368" on="0"/>
        <pt x="1236" y="229" on="1"/>
        <pt x="1427" y="229" on="1"/>
        <pt x="1378" y="0" on="1"/>
        <pt x="776" y="0" on="1"/>
        <pt x="825" y="229" on="1"/>
        <pt x="888" y="245" on="0"/>
        <pt x="1063" y="370" on="0"/>
        <pt x="1104" y="454" on="1"/>
        <pt x="1222" y="695" on="0"/>
        <pt x="1227" y="928" on="1"/>
      </contour>
    </TTGlyph>
    <TTGlyph name="Omegatonos" xMin="187" yMin="0" xMax="1668" yMax="1599">
      <contour>
        <pt x="464" y="1192" on="1"/>
        <pt x="452" y="1167" on="0"/>
        <pt x="378" y="1167" on="0"/>
        <pt x="343" y="1173" on="0"/>
        <pt x="320" y="1191" on="1"/>
        <pt x="284" y="1219" on="0"/>
        <pt x="293" y="1242" on="1"/>
        <pt x="410" y="1552" on="1"/>
        <pt x="419" y="1575" on="0"/>
        <pt x="474" y="1598" on="0"/>
        <pt x="498" y="1599" on="1"/>
        <pt x="511" y="1599" on="1"/>
        <pt x="562" y="1599" on="0"/>
        <pt x="589" y="1575" on="1"/>
        <pt x="637" y="1534" on="0"/>
        <pt x="620" y="1492" on="1"/>
      </contour>
      <contour>
        <pt x="1383" y="937" on="1"/>
        <pt x="1383" y="1249" on="0"/>
        <pt x="1136" y="1249" on="1"/>
        <pt x="928" y="1249" on="0"/>
        <pt x="800" y="1026" on="1"/>
        <pt x="675" y="805" on="0"/>
        <pt x="675" y="545" on="1"/>
        <pt x="675" y="493" on="0"/>
        <pt x="689" y="387" on="0"/>
        <pt x="786" y="263" on="0"/>
        <pt x="838" y="229" on="1"/>
        <pt x="789" y="0" on="1"/>
        <pt x="187" y="0" on="1"/>
        <pt x="236" y="229" on="1"/>
        <pt x="448" y="229" on="1"/>
        <pt x="391" y="370" on="0"/>
        <pt x="391" y="528" on="1"/>
        <pt x="391" y="541" on="1"/>
        <pt x="393" y="742" on="0"/>
        <pt x="479" y="954" on="1"/>
        <pt x="567" y="1169" on="0"/>
        <pt x="740" y="1322" on="1"/>
        <pt x="826" y="1397" on="0"/>
        <pt x="1057" y="1489" on="0"/>
        <pt x="1320" y="1489" on="0"/>
        <pt x="1414" y="1443" on="1"/>
        <pt x="1589" y="1358" on="0"/>
        <pt x="1643" y="1151" on="1"/>
        <pt x="1668" y="1054" on="0"/>
        <pt x="1668" y="964" on="1"/>
        <pt x="1668" y="954" on="1"/>
        <pt x="1666" y="756" on="0"/>
        <pt x="1580" y="542" on="1"/>
        <pt x="1510" y="368" on="0"/>
        <pt x="1392" y="229" on="1"/>
        <pt x="1583" y="229" on="1"/>
        <pt x="1534" y="0" on="1"/>
        <pt x="932" y="0" on="1"/>
        <pt x="981" y="229" on="1"/>
        <pt x="1044" y="245" on="0"/>
        <pt x="1219" y="370" on="0"/>
        <pt x="1260" y="454" on="1"/>
        <pt x="1378" y="695" on="0"/>
        <pt x="1383" y="928" on="1"/>
      </contour>
    </TTGlyph>
    <TTGlyph name="Omicron" xMin="235" yMin="-29" xMax="1512" yMax="1489">
      <contour>
        <pt x="1227" y="937" on="1"/>
        <pt x="1227" y="1249" on="0"/>
        <pt x="980" y="1249" on="1"/>
        <pt x="772" y="1249" on="0"/>
        <pt x="644" y="1026" on="1"/>
        <pt x="519" y="805" on="0"/>
        <pt x="519" y="545" on="1"/>
        <pt x="519" y="409" on="0"/>
        <pt x="553" y="343" on="1"/>
        <pt x="621" y="213" on="0"/>
        <pt x="760" y="213" on="1"/>
        <pt x="968" y="213" on="0"/>
        <pt x="1101" y="457" on="1"/>
        <pt x="1221" y="681" on="0"/>
        <pt x="1227" y="928" on="1"/>
      </contour>
      <contour>
        <pt x="235" y="541" on="1"/>
        <pt x="237" y="742" on="0"/>
        <pt x="323" y="954" on="1"/>
        <pt x="411" y="1169" on="0"/>
        <pt x="584" y="1322" on="1"/>
        <pt x="670" y="1397" on="0"/>
        <pt x="901" y="1489" on="0"/>
        <pt x="1164" y="1489" on="0"/>
        <pt x="1258" y="1443" on="1"/>
        <pt x="1433" y="1358" on="0"/>
        <pt x="1487" y="1151" on="1"/>
        <pt x="1512" y="1054" on="0"/>
        <pt x="1512" y="964" on="1"/>
        <pt x="1512" y="954" on="1"/>
        <pt x="1510" y="756" on="0"/>
        <pt x="1424" y="542" on="1"/>
        <pt x="1332" y="311" on="0"/>
        <pt x="1157" y="148" on="1"/>
        <pt x="1073" y="70" on="0"/>
        <pt x="839" y="-29" on="0"/>
        <pt x="579" y="-29" on="0"/>
        <pt x="482" y="20" on="1"/>
        <pt x="310" y="109" on="0"/>
        <pt x="258" y="331" on="1"/>
        <pt x="235" y="431" on="0"/>
        <pt x="235" y="528" on="1"/>
      </contour>
    </TTGlyph>
    <TTGlyph name="Omicrontonos" xMin="305" yMin="-29" xMax="1623" yMax="1599">
      <contour>
        <pt x="477" y="1192" on="1"/>
        <pt x="464" y="1167" on="0"/>
        <pt x="391" y="1167" on="0"/>
        <pt x="356" y="1173" on="0"/>
        <pt x="310" y="1209" on="0"/>
        <pt x="305" y="1230" on="0"/>
        <pt x="305" y="1240" on="0"/>
        <pt x="306" y="1242" on="1"/>
        <pt x="423" y="1552" on="1"/>
        <pt x="432" y="1575" on="0"/>
        <pt x="487" y="1598" on="0"/>
        <pt x="511" y="1599" on="1"/>
        <pt x="524" y="1599" on="1"/>
        <pt x="575" y="1599" on="0"/>
        <pt x="602" y="1575" on="1"/>
        <pt x="655" y="1529" on="0"/>
        <pt x="633" y="1492" on="1"/>
      </contour>
      <contour>
        <pt x="1338" y="937" on="1"/>
        <pt x="1338" y="1249" on="0"/>
        <pt x="1091" y="1249" on="1"/>
        <pt x="883" y="1249" on="0"/>
        <pt x="755" y="1026" on="1"/>
        <pt x="630" y="805" on="0"/>
        <pt x="630" y="545" on="1"/>
        <pt x="630" y="409" on="0"/>
        <pt x="664" y="343" on="1"/>
        <pt x="732" y="213" on="0"/>
        <pt x="871" y="213" on="1"/>
        <pt x="1079" y="213" on="0"/>
        <pt x="1212" y="457" on="1"/>
        <pt x="1332" y="681" on="0"/>
        <pt x="1338" y="928" on="1"/>
      </contour>
      <contour>
        <pt x="346" y="541" on="1"/>
        <pt x="348" y="742" on="0"/>
        <pt x="434" y="954" on="1"/>
        <pt x="522" y="1169" on="0"/>
        <pt x="695" y="1322" on="1"/>
        <pt x="781" y="1397" on="0"/>
        <pt x="1012" y="1489" on="0"/>
        <pt x="1275" y="1489" on="0"/>
        <pt x="1370" y="1443" on="1"/>
        <pt x="1544" y="1358" on="0"/>
        <pt x="1598" y="1151" on="1"/>
        <pt x="1623" y="1054" on="0"/>
        <pt x="1623" y="964" on="1"/>
        <pt x="1623" y="954" on="1"/>
        <pt x="1621" y="756" on="0"/>
        <pt x="1535" y="542" on="1"/>
        <pt x="1443" y="311" on="0"/>
        <pt x="1268" y="148" on="1"/>
        <pt x="1184" y="70" on="0"/>
        <pt x="950" y="-29" on="0"/>
        <pt x="690" y="-29" on="0"/>
        <pt x="594" y="20" on="1"/>
        <pt x="421" y="109" on="0"/>
        <pt x="369" y="331" on="1"/>
        <pt x="346" y="431" on="0"/>
        <pt x="346" y="528" on="1"/>
      </contour>
    </TTGlyph>
    <TTGlyph name="Oslash" xMin="236" yMin="-29" xMax="1511" yMax="1493">
      <contour>
        <pt x="344" y="135" on="1"/>
        <pt x="236" y="272" on="0"/>
        <pt x="236" y="537" on="1"/>
        <pt x="236" y="737" on="0"/>
        <pt x="322" y="948" on="1"/>
        <pt x="417" y="1181" on="0"/>
        <pt x="589" y="1328" on="1"/>
        <pt x="778" y="1489" on="0"/>
        <pt x="1037" y="1489" on="1"/>
        <pt x="1137" y="1489" on="0"/>
        <pt x="1193" y="1466" on="1"/>
        <pt x="1206" y="1493" on="1"/>
        <pt x="1478" y="1493" on="1"/>
        <pt x="1387" y="1348" on="1"/>
        <pt x="1511" y="1209" on="0"/>
        <pt x="1511" y="966" on="1"/>
        <pt x="1511" y="638" on="0"/>
        <pt x="1324" y="348" on="1"/>
        <pt x="1256" y="243" on="0"/>
        <pt x="1087" y="79" on="0"/>
        <pt x="845" y="-29" on="0"/>
        <pt x="623" y="-29" on="0"/>
        <pt x="544" y="-6" on="1"/>
        <pt x="526" y="-29" on="1"/>
        <pt x="242" y="-29" on="1"/>
      </contour>
      <contour>
        <pt x="684" y="223" on="1"/>
        <pt x="692" y="222" on="0"/>
        <pt x="704" y="219" on="1"/>
        <pt x="728" y="213" on="0"/>
        <pt x="834" y="213" on="0"/>
        <pt x="970" y="284" on="0"/>
        <pt x="1066" y="393" on="0"/>
        <pt x="1105" y="464" on="1"/>
        <pt x="1173" y="589" on="0"/>
        <pt x="1227" y="843" on="0"/>
        <pt x="1227" y="998" on="0"/>
        <pt x="1212" y="1067" on="1"/>
      </contour>
      <contour>
        <pt x="1048" y="1241" on="1"/>
        <pt x="986" y="1249" on="1"/>
        <pt x="767" y="1249" on="0"/>
        <pt x="638" y="1011" on="1"/>
        <pt x="520" y="794" on="0"/>
        <pt x="520" y="545" on="1"/>
        <pt x="520" y="469" on="0"/>
        <pt x="531" y="426" on="1"/>
      </contour>
    </TTGlyph>
    <TTGlyph name="Otilde" xMin="231" yMin="-29" xMax="1507" yMax="1947">
      <contour>
        <pt x="1160" y="579" on="1"/>
        <pt x="1225" y="761" on="0"/>
        <pt x="1225" y="917" on="1"/>
        <pt x="1225" y="1245" on="0"/>
        <pt x="980" y="1245" on="1"/>
        <pt x="773" y="1245" on="0"/>
        <pt x="643" y="1015" on="1"/>
        <pt x="573" y="891" on="0"/>
        <pt x="514" y="616" on="0"/>
        <pt x="514" y="385" on="0"/>
        <pt x="631" y="211" on="0"/>
        <pt x="760" y="211" on="1"/>
        <pt x="968" y="211" on="0"/>
        <pt x="1096" y="440" on="1"/>
        <pt x="1135" y="509" on="0"/>
      </contour>
      <contour>
        <pt x="231" y="509" on="1"/>
        <pt x="231" y="849" on="0"/>
        <pt x="430" y="1140" on="1"/>
        <pt x="575" y="1354" on="0"/>
        <pt x="785" y="1438" on="1"/>
        <pt x="901" y="1485" on="0"/>
        <pt x="1134" y="1485" on="0"/>
        <pt x="1299" y="1426" on="0"/>
        <pt x="1406" y="1326" on="0"/>
        <pt x="1442" y="1256" on="1"/>
        <pt x="1507" y="1128" on="0"/>
        <pt x="1507" y="948" on="1"/>
        <pt x="1507" y="736" on="0"/>
        <pt x="1418" y="518" on="1"/>
        <pt x="1328" y="293" on="0"/>
        <pt x="1156" y="140" on="1"/>
        <pt x="1071" y="64" on="0"/>
        <pt x="839" y="-29" on="0"/>
        <pt x="605" y="-29" on="0"/>
        <pt x="440" y="30" on="0"/>
        <pt x="333" y="131" on="0"/>
        <pt x="297" y="201" on="1"/>
        <pt x="231" y="329" on="0"/>
      </contour>
      <contour>
        <pt x="797" y="1844" on="1"/>
        <pt x="805" y="1849" on="0"/>
        <pt x="855" y="1887" on="0"/>
        <pt x="886" y="1907" on="0"/>
        <pt x="910" y="1920" on="1"/>
        <pt x="957" y="1947" on="0"/>
        <pt x="1029" y="1947" on="0"/>
        <pt x="1080" y="1916" on="0"/>
        <pt x="1122" y="1871" on="0"/>
        <pt x="1143" y="1848" on="1"/>
        <pt x="1193" y="1795" on="0"/>
        <pt x="1246" y="1795" on="1"/>
        <pt x="1280" y="1795" on="0"/>
        <pt x="1324" y="1817" on="0"/>
        <pt x="1339" y="1824" on="0"/>
        <pt x="1367" y="1843" on="0"/>
        <pt x="1379" y="1850" on="0"/>
        <pt x="1408" y="1872" on="0"/>
        <pt x="1412" y="1874" on="1"/>
        <pt x="1436" y="1892" on="0"/>
        <pt x="1446" y="1902" on="1"/>
        <pt x="1391" y="1642" on="1"/>
        <pt x="1385" y="1638" on="0"/>
        <pt x="1325" y="1595" on="0"/>
        <pt x="1306" y="1584" on="1"/>
        <pt x="1247" y="1548" on="0"/>
        <pt x="1154" y="1548" on="0"/>
        <pt x="1081" y="1596" on="0"/>
        <pt x="1033" y="1652" on="0"/>
        <pt x="973" y="1700" on="0"/>
        <pt x="919" y="1700" on="0"/>
        <pt x="863" y="1680" on="0"/>
        <pt x="828" y="1659" on="0"/>
        <pt x="763" y="1614" on="0"/>
        <pt x="746" y="1603" on="1"/>
      </contour>
    </TTGlyph>
    <TTGlyph name="P" xMin="115" yMin="0" xMax="1332" yMax="1456">
      <contour>
        <pt x="558" y="824" on="1"/>
        <pt x="629" y="824" on="1"/>
        <pt x="874" y="824" on="0"/>
        <pt x="953" y="876" on="1"/>
        <pt x="1025" y="923" on="0"/>
        <pt x="1046" y="1020" on="1"/>
        <pt x="1052" y="1050" on="0"/>
        <pt x="1052" y="1104" on="0"/>
        <pt x="1032" y="1151" on="0"/>
        <pt x="989" y="1182" on="0"/>
        <pt x="935" y="1202" on="0"/>
        <pt x="894" y="1207" on="1"/>
        <pt x="819" y="1216" on="0"/>
        <pt x="712" y="1216" on="1"/>
        <pt x="641" y="1216" on="1"/>
      </contour>
      <contour>
        <pt x="424" y="1456" on="1"/>
        <pt x="692" y="1456" on="1"/>
        <pt x="886" y="1456" on="0"/>
        <pt x="1011" y="1437" on="0"/>
        <pt x="1115" y="1414" on="0"/>
        <pt x="1184" y="1382" on="0"/>
        <pt x="1259" y="1331" on="0"/>
        <pt x="1281" y="1300" on="1"/>
        <pt x="1332" y="1226" on="0"/>
        <pt x="1332" y="1128" on="1"/>
        <pt x="1332" y="983" on="0"/>
        <pt x="1260" y="861" on="1"/>
        <pt x="1218" y="791" on="0"/>
        <pt x="1121" y="701" on="0"/>
        <pt x="976" y="636" on="0"/>
        <pt x="859" y="604" on="0"/>
        <pt x="774" y="596" on="1"/>
        <pt x="658" y="584" on="0"/>
        <pt x="507" y="584" on="1"/>
        <pt x="383" y="0" on="1"/>
        <pt x="115" y="0" on="1"/>
      </contour>
    </TTGlyph>
    <TTGlyph name="Pdotaccent" xMin="115" yMin="0" xMax="1332" yMax="1921">
      <contour>
        <pt x="758" y="1722" on="1"/>
        <pt x="758" y="1811" on="0"/>
        <pt x="892" y="1921" on="0"/>
        <pt x="1028" y="1921" on="0"/>
        <pt x="1093" y="1839" on="0"/>
        <pt x="1093" y="1806" on="1"/>
        <pt x="1093" y="1702" on="0"/>
        <pt x="958" y="1593" on="0"/>
        <pt x="823" y="1593" on="0"/>
        <pt x="758" y="1677" on="0"/>
      </contour>
      <contour>
        <pt x="558" y="824" on="1"/>
        <pt x="629" y="824" on="1"/>
        <pt x="874" y="824" on="0"/>
        <pt x="953" y="876" on="1"/>
        <pt x="1025" y="923" on="0"/>
        <pt x="1046" y="1020" on="1"/>
        <pt x="1052" y="1050" on="0"/>
        <pt x="1052" y="1104" on="0"/>
        <pt x="1032" y="1151" on="0"/>
        <pt x="989" y="1182" on="0"/>
        <pt x="935" y="1202" on="0"/>
        <pt x="894" y="1207" on="1"/>
        <pt x="819" y="1216" on="0"/>
        <pt x="712" y="1216" on="1"/>
        <pt x="641" y="1216" on="1"/>
      </contour>
      <contour>
        <pt x="424" y="1456" on="1"/>
        <pt x="692" y="1456" on="1"/>
        <pt x="886" y="1456" on="0"/>
        <pt x="1011" y="1437" on="0"/>
        <pt x="1115" y="1414" on="0"/>
        <pt x="1184" y="1382" on="0"/>
        <pt x="1259" y="1331" on="0"/>
        <pt x="1281" y="1300" on="1"/>
        <pt x="1332" y="1226" on="0"/>
        <pt x="1332" y="1128" on="1"/>
        <pt x="1332" y="983" on="0"/>
        <pt x="1260" y="861" on="1"/>
        <pt x="1218" y="791" on="0"/>
        <pt x="1121" y="701" on="0"/>
        <pt x="976" y="636" on="0"/>
        <pt x="859" y="604" on="0"/>
        <pt x="774" y="596" on="1"/>
        <pt x="658" y="584" on="0"/>
        <pt x="507" y="584" on="1"/>
        <pt x="383" y="0" on="1"/>
        <pt x="115" y="0" on="1"/>
      </contour>
    </TTGlyph>
    <TTGlyph name="Phi" xMin="256" yMin="0" xMax="1643" yMax="1454">
      <contour>
        <pt x="992" y="315" on="1"/>
        <pt x="925" y="0" on="1"/>
        <pt x="682" y="0" on="1"/>
        <pt x="749" y="314" on="1"/>
        <pt x="695" y="321" on="0"/>
        <pt x="583" y="341" on="0"/>
        <pt x="498" y="378" on="1"/>
        <pt x="256" y="482" on="0"/>
        <pt x="256" y="708" on="1"/>
        <pt x="256" y="857" on="0"/>
        <pt x="350" y="987" on="1"/>
        <pt x="459" y="1137" on="0"/>
        <pt x="679" y="1220" on="1"/>
        <pt x="805" y="1267" on="0"/>
        <pt x="955" y="1285" on="1"/>
        <pt x="991" y="1454" on="1"/>
        <pt x="1234" y="1454" on="1"/>
        <pt x="1198" y="1283" on="1"/>
        <pt x="1309" y="1272" on="0"/>
        <pt x="1496" y="1184" on="0"/>
        <pt x="1552" y="1128" on="1"/>
        <pt x="1643" y="1037" on="0"/>
        <pt x="1643" y="897" on="1"/>
        <pt x="1643" y="852" on="0"/>
        <pt x="1609" y="692" on="0"/>
        <pt x="1491" y="524" on="0"/>
        <pt x="1415" y="471" on="1"/>
        <pt x="1264" y="364" on="0"/>
        <pt x="1050" y="324" on="1"/>
        <pt x="995" y="315" on="0"/>
      </contour>
      <contour>
        <pt x="1150" y="1057" on="1"/>
        <pt x="1040" y="541" on="1"/>
        <pt x="1118" y="547" on="0"/>
        <pt x="1206" y="581" on="1"/>
        <pt x="1387" y="652" on="0"/>
        <pt x="1416" y="799" on="1"/>
        <pt x="1421" y="820" on="0"/>
        <pt x="1421" y="850" on="1"/>
        <pt x="1421" y="974" on="0"/>
        <pt x="1264" y="1030" on="1"/>
        <pt x="1208" y="1050" on="0"/>
        <pt x="1151" y="1057" on="1"/>
      </contour>
      <contour>
        <pt x="907" y="1058" on="1"/>
        <pt x="645" y="1030" on="0"/>
        <pt x="535" y="904" on="1"/>
        <pt x="479" y="841" on="0"/>
        <pt x="479" y="753" on="1"/>
        <pt x="479" y="626" on="0"/>
        <pt x="654" y="568" on="1"/>
        <pt x="742" y="540" on="0"/>
        <pt x="794" y="540" on="0"/>
        <pt x="797" y="539" on="1"/>
      </contour>
    </TTGlyph>
    <TTGlyph name="Pi" xMin="115" yMin="0" xMax="1446" yMax="1456">
      <contour>
        <pt x="424" y="1456" on="1"/>
        <pt x="1446" y="1456" on="1"/>
        <pt x="1137" y="0" on="1"/>
        <pt x="868" y="0" on="1"/>
        <pt x="1127" y="1217" on="1"/>
        <pt x="642" y="1217" on="1"/>
        <pt x="383" y="0" on="1"/>
        <pt x="115" y="0" on="1"/>
      </contour>
    </TTGlyph>
    <TTGlyph name="Psi" xMin="271" yMin="0" xMax="1346" yMax="1459">
      <contour>
        <pt x="545" y="944" on="1"/>
        <pt x="527" y="881" on="0"/>
        <pt x="527" y="707" on="0"/>
        <pt x="573" y="658" on="1"/>
        <pt x="742" y="1455" on="1"/>
        <pt x="1011" y="1455" on="1"/>
        <pt x="842" y="660" on="1"/>
        <pt x="946" y="739" on="0"/>
        <pt x="989" y="944" on="1"/>
        <pt x="1095" y="1459" on="1"/>
        <pt x="1346" y="1458" on="1"/>
        <pt x="1345" y="1452" on="0"/>
        <pt x="1237" y="944" on="1"/>
        <pt x="1181" y="682" on="0"/>
        <pt x="1026" y="530" on="1"/>
        <pt x="922" y="428" on="0"/>
        <pt x="786" y="395" on="1"/>
        <pt x="702" y="0" on="1"/>
        <pt x="433" y="0" on="1"/>
        <pt x="517" y="393" on="1"/>
        <pt x="389" y="427" on="0"/>
        <pt x="271" y="625" on="0"/>
        <pt x="271" y="736" on="1"/>
        <pt x="271" y="878" on="0"/>
        <pt x="293" y="944" on="1"/>
        <pt x="405" y="1458" on="1"/>
        <pt x="656" y="1458" on="1"/>
      </contour>
    </TTGlyph>
    <TTGlyph name="Q" xMin="234" yMin="-35" xMax="1509" yMax="1495">
      <contour>
        <pt x="1152" y="572" on="1"/>
        <pt x="1228" y="776" on="0"/>
        <pt x="1228" y="1084" on="0"/>
        <pt x="1109" y="1255" on="0"/>
        <pt x="986" y="1255" on="1"/>
        <pt x="778" y="1255" on="0"/>
        <pt x="650" y="1036" on="1"/>
        <pt x="578" y="911" on="0"/>
        <pt x="521" y="639" on="0"/>
        <pt x="521" y="470" on="0"/>
        <pt x="545" y="357" on="0"/>
        <pt x="571" y="309" on="1"/>
        <pt x="626" y="207" on="0"/>
        <pt x="757" y="207" on="1"/>
        <pt x="851" y="207" on="0"/>
        <pt x="898" y="244" on="1"/>
        <pt x="763" y="362" on="1"/>
        <pt x="952" y="559" on="1"/>
        <pt x="1082" y="428" on="1"/>
        <pt x="1114" y="471" on="0"/>
      </contour>
      <contour>
        <pt x="1070" y="80" on="1"/>
        <pt x="917" y="-35" on="0"/>
        <pt x="702" y="-35" on="1"/>
        <pt x="581" y="-35" on="0"/>
        <pt x="396" y="57" on="0"/>
        <pt x="342" y="137" on="1"/>
        <pt x="234" y="297" on="0"/>
        <pt x="234" y="529" on="1"/>
        <pt x="234" y="861" on="0"/>
        <pt x="426" y="1143" on="1"/>
        <pt x="573" y="1359" on="0"/>
        <pt x="784" y="1446" on="1"/>
        <pt x="903" y="1495" on="0"/>
        <pt x="1137" y="1495" on="0"/>
        <pt x="1298" y="1439" on="0"/>
        <pt x="1406" y="1342" on="0"/>
        <pt x="1442" y="1274" on="1"/>
        <pt x="1509" y="1146" on="0"/>
        <pt x="1509" y="970" on="1"/>
        <pt x="1509" y="869" on="0"/>
        <pt x="1450" y="592" on="0"/>
        <pt x="1324" y="337" on="0"/>
        <pt x="1255" y="260" on="1"/>
        <pt x="1370" y="161" on="1"/>
        <pt x="1180" y="-29" on="1"/>
      </contour>
    </TTGlyph>
    <TTGlyph name="R" xMin="115" yMin="-1" xMax="1332" yMax="1455">
      <contour>
        <pt x="558" y="824" on="1"/>
        <pt x="629" y="824" on="1"/>
        <pt x="873" y="824" on="0"/>
        <pt x="953" y="875" on="1"/>
        <pt x="1025" y="921" on="0"/>
        <pt x="1046" y="1019" on="1"/>
        <pt x="1052" y="1047" on="0"/>
        <pt x="1052" y="1109" on="0"/>
        <pt x="1020" y="1162" on="0"/>
        <pt x="967" y="1193" on="0"/>
        <pt x="922" y="1202" on="1"/>
        <pt x="845" y="1216" on="0"/>
        <pt x="712" y="1216" on="1"/>
        <pt x="641" y="1216" on="1"/>
      </contour>
      <contour>
        <pt x="597" y="580" on="1"/>
        <pt x="506" y="581" on="1"/>
        <pt x="383" y="-1" on="1"/>
        <pt x="115" y="-1" on="1"/>
        <pt x="424" y="1455" on="1"/>
        <pt x="692" y="1455" on="1"/>
        <pt x="875" y="1455" on="0"/>
        <pt x="1011" y="1436" on="0"/>
        <pt x="1114" y="1412" on="0"/>
        <pt x="1185" y="1380" on="0"/>
        <pt x="1259" y="1330" on="0"/>
        <pt x="1281" y="1298" on="1"/>
        <pt x="1332" y="1224" on="0"/>
        <pt x="1332" y="1126" on="1"/>
        <pt x="1332" y="1078" on="0"/>
        <pt x="1320" y="1019" on="1"/>
        <pt x="1252" y="706" on="0"/>
        <pt x="931" y="626" on="1"/>
        <pt x="1158" y="-1" on="1"/>
        <pt x="852" y="-1" on="1"/>
        <pt x="657" y="582" on="1"/>
        <pt x="631" y="580" on="0"/>
      </contour>
    </TTGlyph>
    <TTGlyph name="Racute" xMin="115" yMin="-1" xMax="1332" yMax="1945">
      <contour>
        <pt x="558" y="824" on="1"/>
        <pt x="629" y="824" on="1"/>
        <pt x="873" y="824" on="0"/>
        <pt x="953" y="875" on="1"/>
        <pt x="1025" y="921" on="0"/>
        <pt x="1046" y="1019" on="1"/>
        <pt x="1052" y="1047" on="0"/>
        <pt x="1052" y="1109" on="0"/>
        <pt x="1020" y="1162" on="0"/>
        <pt x="967" y="1193" on="0"/>
        <pt x="922" y="1202" on="1"/>
        <pt x="845" y="1216" on="0"/>
        <pt x="712" y="1216" on="1"/>
        <pt x="641" y="1216" on="1"/>
      </contour>
      <contour>
        <pt x="597" y="580" on="1"/>
        <pt x="506" y="581" on="1"/>
        <pt x="383" y="-1" on="1"/>
        <pt x="115" y="-1" on="1"/>
        <pt x="424" y="1455" on="1"/>
        <pt x="692" y="1455" on="1"/>
        <pt x="875" y="1455" on="0"/>
        <pt x="1011" y="1436" on="0"/>
        <pt x="1114" y="1412" on="0"/>
        <pt x="1185" y="1380" on="0"/>
        <pt x="1259" y="1330" on="0"/>
        <pt x="1281" y="1298" on="1"/>
        <pt x="1332" y="1224" on="0"/>
        <pt x="1332" y="1126" on="1"/>
        <pt x="1332" y="1078" on="0"/>
        <pt x="1320" y="1019" on="1"/>
        <pt x="1252" y="706" on="0"/>
        <pt x="931" y="626" on="1"/>
        <pt x="1158" y="-1" on="1"/>
        <pt x="852" y="-1" on="1"/>
        <pt x="657" y="582" on="1"/>
        <pt x="631" y="580" on="0"/>
      </contour>
      <contour>
        <pt x="815" y="1528" on="1"/>
        <pt x="783" y="1528" on="0"/>
        <pt x="750" y="1580" on="1"/>
        <pt x="723" y="1622" on="0"/>
        <pt x="744" y="1675" on="1"/>
        <pt x="747" y="1683" on="0"/>
        <pt x="755" y="1688" on="1"/>
        <pt x="1089" y="1935" on="1"/>
        <pt x="1102" y="1945" on="0"/>
        <pt x="1115" y="1945" on="1"/>
        <pt x="1170" y="1945" on="0"/>
        <pt x="1205" y="1888" on="1"/>
        <pt x="1218" y="1868" on="0"/>
        <pt x="1218" y="1842" on="1"/>
        <pt x="1218" y="1771" on="0"/>
        <pt x="1182" y="1746" on="1"/>
        <pt x="829" y="1533" on="1"/>
        <pt x="821" y="1528" on="0"/>
      </contour>
    </TTGlyph>
    <TTGlyph name="Rcaron" xMin="115" yMin="-1" xMax="1342" yMax="1902">
      <contour>
        <pt x="558" y="824" on="1"/>
        <pt x="629" y="824" on="1"/>
        <pt x="873" y="824" on="0"/>
        <pt x="953" y="875" on="1"/>
        <pt x="1025" y="921" on="0"/>
        <pt x="1046" y="1019" on="1"/>
        <pt x="1052" y="1047" on="0"/>
        <pt x="1052" y="1109" on="0"/>
        <pt x="1020" y="1162" on="0"/>
        <pt x="967" y="1193" on="0"/>
        <pt x="922" y="1202" on="1"/>
        <pt x="845" y="1216" on="0"/>
        <pt x="712" y="1216" on="1"/>
        <pt x="641" y="1216" on="1"/>
      </contour>
      <contour>
        <pt x="597" y="580" on="1"/>
        <pt x="506" y="581" on="1"/>
        <pt x="383" y="-1" on="1"/>
        <pt x="115" y="-1" on="1"/>
        <pt x="424" y="1455" on="1"/>
        <pt x="692" y="1455" on="1"/>
        <pt x="875" y="1455" on="0"/>
        <pt x="1011" y="1436" on="0"/>
        <pt x="1114" y="1412" on="0"/>
        <pt x="1185" y="1380" on="0"/>
        <pt x="1259" y="1330" on="0"/>
        <pt x="1281" y="1298" on="1"/>
        <pt x="1332" y="1224" on="0"/>
        <pt x="1332" y="1126" on="1"/>
        <pt x="1332" y="1078" on="0"/>
        <pt x="1320" y="1019" on="1"/>
        <pt x="1252" y="706" on="0"/>
        <pt x="931" y="626" on="1"/>
        <pt x="1158" y="-1" on="1"/>
        <pt x="852" y="-1" on="1"/>
        <pt x="657" y="582" on="1"/>
        <pt x="631" y="580" on="0"/>
      </contour>
      <contour>
        <pt x="1342" y="1902" on="1"/>
        <pt x="985" y="1558" on="1"/>
        <pt x="749" y="1558" on="1"/>
        <pt x="538" y="1899" on="1"/>
        <pt x="815" y="1899" on="1"/>
        <pt x="905" y="1741" on="1"/>
        <pt x="1071" y="1902" on="1"/>
      </contour>
    </TTGlyph>
    <TTGlyph name="Rcommaaccent" xMin="115" yMin="-365" xMax="1332" yMax="1455">
      <contour>
        <pt x="558" y="824" on="1"/>
        <pt x="629" y="824" on="1"/>
        <pt x="873" y="824" on="0"/>
        <pt x="953" y="875" on="1"/>
        <pt x="1025" y="921" on="0"/>
        <pt x="1046" y="1019" on="1"/>
        <pt x="1052" y="1047" on="0"/>
        <pt x="1052" y="1109" on="0"/>
        <pt x="1020" y="1162" on="0"/>
        <pt x="967" y="1193" on="0"/>
        <pt x="922" y="1202" on="1"/>
        <pt x="845" y="1216" on="0"/>
        <pt x="712" y="1216" on="1"/>
        <pt x="641" y="1216" on="1"/>
      </contour>
      <contour>
        <pt x="597" y="580" on="1"/>
        <pt x="506" y="581" on="1"/>
        <pt x="383" y="-1" on="1"/>
        <pt x="115" y="-1" on="1"/>
        <pt x="424" y="1455" on="1"/>
        <pt x="692" y="1455" on="1"/>
        <pt x="875" y="1455" on="0"/>
        <pt x="1011" y="1436" on="0"/>
        <pt x="1114" y="1412" on="0"/>
        <pt x="1185" y="1380" on="0"/>
        <pt x="1259" y="1330" on="0"/>
        <pt x="1281" y="1298" on="1"/>
        <pt x="1332" y="1224" on="0"/>
        <pt x="1332" y="1126" on="1"/>
        <pt x="1332" y="1078" on="0"/>
        <pt x="1320" y="1019" on="1"/>
        <pt x="1252" y="706" on="0"/>
        <pt x="931" y="626" on="1"/>
        <pt x="1158" y="-1" on="1"/>
        <pt x="852" y="-1" on="1"/>
        <pt x="657" y="582" on="1"/>
        <pt x="631" y="580" on="0"/>
      </contour>
      <contour>
        <pt x="351" y="-238" on="1"/>
        <pt x="355" y="-236" on="0"/>
        <pt x="382" y="-222" on="0"/>
        <pt x="397" y="-215" on="0"/>
        <pt x="425" y="-200" on="0"/>
        <pt x="442" y="-190" on="0"/>
        <pt x="465" y="-175" on="0"/>
        <pt x="481" y="-162" on="0"/>
        <pt x="488" y="-155" on="1"/>
        <pt x="512" y="-133" on="0"/>
        <pt x="512" y="-48" on="0"/>
        <pt x="487" y="-16" on="1"/>
        <pt x="668" y="74" on="1"/>
        <pt x="736" y="0" on="0"/>
        <pt x="736" y="-90" on="1"/>
        <pt x="736" y="-113" on="0"/>
        <pt x="732" y="-133" on="1"/>
        <pt x="709" y="-238" on="0"/>
        <pt x="453" y="-357" on="1"/>
        <pt x="442" y="-363" on="0"/>
        <pt x="437" y="-365" on="1"/>
      </contour>
    </TTGlyph>
    <TTGlyph name="Rho" xMin="121" yMin="0" xMax="1296" yMax="1456">
      <contour>
        <pt x="564" y="823" on="1"/>
        <pt x="694" y="823" on="1"/>
        <pt x="970" y="823" on="0"/>
        <pt x="1012" y="1020" on="1"/>
        <pt x="1017" y="1041" on="0"/>
        <pt x="1017" y="1068" on="1"/>
        <pt x="1017" y="1217" on="0"/>
        <pt x="778" y="1217" on="1"/>
        <pt x="648" y="1217" on="1"/>
      </contour>
      <contour>
        <pt x="430" y="1456" on="1"/>
        <pt x="828" y="1456" on="1"/>
        <pt x="964" y="1456" on="0"/>
        <pt x="1064" y="1421" on="1"/>
        <pt x="1248" y="1357" on="0"/>
        <pt x="1287" y="1190" on="1"/>
        <pt x="1296" y="1152" on="0"/>
        <pt x="1296" y="1108" on="1"/>
        <pt x="1296" y="972" on="0"/>
        <pt x="1213" y="850" on="1"/>
        <pt x="1099" y="682" on="0"/>
        <pt x="883" y="615" on="1"/>
        <pt x="769" y="580" on="0"/>
        <pt x="642" y="580" on="1"/>
        <pt x="512" y="580" on="1"/>
        <pt x="389" y="0" on="1"/>
        <pt x="121" y="0" on="1"/>
      </contour>
    </TTGlyph>
    <TTGlyph name="S" xMin="168" yMin="-29" xMax="1341" yMax="1492">
      <contour>
        <pt x="1057" y="1135" on="1"/>
        <pt x="1032" y="1251" on="0"/>
        <pt x="886" y="1251" on="1"/>
        <pt x="675" y="1251" on="0"/>
        <pt x="641" y="1090" on="1"/>
        <pt x="638" y="1078" on="0"/>
        <pt x="638" y="1033" on="0"/>
        <pt x="686" y="971" on="0"/>
        <pt x="772" y="923" on="0"/>
        <pt x="855" y="886" on="0"/>
        <pt x="908" y="864" on="1"/>
        <pt x="1084" y="792" on="0"/>
        <pt x="1224" y="623" on="0"/>
        <pt x="1224" y="509" on="1"/>
        <pt x="1224" y="461" on="0"/>
        <pt x="1212" y="404" on="1"/>
        <pt x="1170" y="207" on="0"/>
        <pt x="831" y="-29" on="0"/>
        <pt x="414" y="-29" on="0"/>
        <pt x="168" y="191" on="0"/>
        <pt x="168" y="372" on="1"/>
        <pt x="168" y="393" on="0"/>
        <pt x="169" y="404" on="1"/>
        <pt x="446" y="447" on="1"/>
        <pt x="450" y="352" on="0"/>
        <pt x="498" y="286" on="1"/>
        <pt x="550" y="213" on="0"/>
        <pt x="776" y="213" on="0"/>
        <pt x="848" y="266" on="1"/>
        <pt x="943" y="336" on="0"/>
        <pt x="943" y="448" on="1"/>
        <pt x="943" y="533" on="0"/>
        <pt x="858" y="585" on="1"/>
        <pt x="801" y="620" on="0"/>
        <pt x="603" y="703" on="0"/>
        <pt x="515" y="750" on="0"/>
        <pt x="453" y="794" on="0"/>
        <pt x="421" y="827" on="1"/>
        <pt x="357" y="893" on="0"/>
        <pt x="357" y="1002" on="1"/>
        <pt x="357" y="1044" on="0"/>
        <pt x="367" y="1090" on="1"/>
        <pt x="395" y="1220" on="0"/>
        <pt x="486" y="1314" on="1"/>
        <pt x="658" y="1492" on="0"/>
        <pt x="937" y="1492" on="1"/>
        <pt x="1105" y="1492" on="0"/>
        <pt x="1325" y="1318" on="0"/>
        <pt x="1341" y="1186" on="1"/>
      </contour>
    </TTGlyph>
    <TTGlyph name="Sacute" xMin="168" yMin="-29" xMax="1341" yMax="1945">
      <contour>
        <pt x="1057" y="1135" on="1"/>
        <pt x="1032" y="1251" on="0"/>
        <pt x="886" y="1251" on="1"/>
        <pt x="675" y="1251" on="0"/>
        <pt x="641" y="1090" on="1"/>
        <pt x="638" y="1078" on="0"/>
        <pt x="638" y="1033" on="0"/>
        <pt x="686" y="971" on="0"/>
        <pt x="772" y="923" on="0"/>
        <pt x="855" y="886" on="0"/>
        <pt x="908" y="864" on="1"/>
        <pt x="1084" y="792" on="0"/>
        <pt x="1224" y="623" on="0"/>
        <pt x="1224" y="509" on="1"/>
        <pt x="1224" y="461" on="0"/>
        <pt x="1212" y="404" on="1"/>
        <pt x="1170" y="207" on="0"/>
        <pt x="831" y="-29" on="0"/>
        <pt x="414" y="-29" on="0"/>
        <pt x="168" y="191" on="0"/>
        <pt x="168" y="372" on="1"/>
        <pt x="168" y="393" on="0"/>
        <pt x="169" y="404" on="1"/>
        <pt x="446" y="447" on="1"/>
        <pt x="450" y="352" on="0"/>
        <pt x="498" y="286" on="1"/>
        <pt x="550" y="213" on="0"/>
        <pt x="776" y="213" on="0"/>
        <pt x="848" y="266" on="1"/>
        <pt x="943" y="336" on="0"/>
        <pt x="943" y="448" on="1"/>
        <pt x="943" y="533" on="0"/>
        <pt x="858" y="585" on="1"/>
        <pt x="801" y="620" on="0"/>
        <pt x="603" y="703" on="0"/>
        <pt x="515" y="750" on="0"/>
        <pt x="453" y="794" on="0"/>
        <pt x="421" y="827" on="1"/>
        <pt x="357" y="893" on="0"/>
        <pt x="357" y="1002" on="1"/>
        <pt x="357" y="1044" on="0"/>
        <pt x="367" y="1090" on="1"/>
        <pt x="395" y="1220" on="0"/>
        <pt x="486" y="1314" on="1"/>
        <pt x="658" y="1492" on="0"/>
        <pt x="937" y="1492" on="1"/>
        <pt x="1105" y="1492" on="0"/>
        <pt x="1325" y="1318" on="0"/>
        <pt x="1341" y="1186" on="1"/>
      </contour>
      <contour>
        <pt x="911" y="1528" on="1"/>
        <pt x="879" y="1528" on="0"/>
        <pt x="846" y="1580" on="1"/>
        <pt x="819" y="1622" on="0"/>
        <pt x="840" y="1675" on="1"/>
        <pt x="843" y="1683" on="0"/>
        <pt x="851" y="1688" on="1"/>
        <pt x="1185" y="1935" on="1"/>
        <pt x="1198" y="1945" on="0"/>
        <pt x="1211" y="1945" on="1"/>
        <pt x="1266" y="1945" on="0"/>
        <pt x="1301" y="1888" on="1"/>
        <pt x="1314" y="1868" on="0"/>
        <pt x="1314" y="1842" on="1"/>
        <pt x="1314" y="1771" on="0"/>
        <pt x="1278" y="1746" on="1"/>
        <pt x="925" y="1533" on="1"/>
        <pt x="917" y="1528" on="0"/>
      </contour>
    </TTGlyph>
    <TTGlyph name="Scaron" xMin="168" yMin="-29" xMax="1463" yMax="1906">
      <contour>
        <pt x="1057" y="1135" on="1"/>
        <pt x="1032" y="1251" on="0"/>
        <pt x="886" y="1251" on="1"/>
        <pt x="675" y="1251" on="0"/>
        <pt x="641" y="1090" on="1"/>
        <pt x="638" y="1078" on="0"/>
        <pt x="638" y="1033" on="0"/>
        <pt x="686" y="971" on="0"/>
        <pt x="772" y="923" on="0"/>
        <pt x="855" y="886" on="0"/>
        <pt x="908" y="864" on="1"/>
        <pt x="1084" y="792" on="0"/>
        <pt x="1224" y="623" on="0"/>
        <pt x="1224" y="509" on="1"/>
        <pt x="1224" y="461" on="0"/>
        <pt x="1212" y="404" on="1"/>
        <pt x="1170" y="207" on="0"/>
        <pt x="831" y="-29" on="0"/>
        <pt x="414" y="-29" on="0"/>
        <pt x="168" y="191" on="0"/>
        <pt x="168" y="372" on="1"/>
        <pt x="168" y="393" on="0"/>
        <pt x="169" y="404" on="1"/>
        <pt x="446" y="447" on="1"/>
        <pt x="450" y="352" on="0"/>
        <pt x="498" y="286" on="1"/>
        <pt x="550" y="213" on="0"/>
        <pt x="776" y="213" on="0"/>
        <pt x="848" y="266" on="1"/>
        <pt x="943" y="336" on="0"/>
        <pt x="943" y="448" on="1"/>
        <pt x="943" y="533" on="0"/>
        <pt x="858" y="585" on="1"/>
        <pt x="801" y="620" on="0"/>
        <pt x="603" y="703" on="0"/>
        <pt x="515" y="750" on="0"/>
        <pt x="453" y="794" on="0"/>
        <pt x="421" y="827" on="1"/>
        <pt x="357" y="893" on="0"/>
        <pt x="357" y="1002" on="1"/>
        <pt x="357" y="1044" on="0"/>
        <pt x="367" y="1090" on="1"/>
        <pt x="395" y="1220" on="0"/>
        <pt x="486" y="1314" on="1"/>
        <pt x="658" y="1492" on="0"/>
        <pt x="937" y="1492" on="1"/>
        <pt x="1105" y="1492" on="0"/>
        <pt x="1325" y="1318" on="0"/>
        <pt x="1341" y="1186" on="1"/>
      </contour>
      <contour>
        <pt x="1463" y="1906" on="1"/>
        <pt x="1106" y="1562" on="1"/>
        <pt x="870" y="1562" on="1"/>
        <pt x="658" y="1903" on="1"/>
        <pt x="935" y="1903" on="1"/>
        <pt x="1026" y="1745" on="1"/>
        <pt x="1192" y="1906" on="1"/>
      </contour>
    </TTGlyph>
    <TTGlyph name="Scedilla" xMin="168" yMin="-365" xMax="1341" yMax="1492">
      <contour>
        <pt x="1057" y="1135" on="1"/>
        <pt x="1032" y="1251" on="0"/>
        <pt x="886" y="1251" on="1"/>
        <pt x="675" y="1251" on="0"/>
        <pt x="641" y="1090" on="1"/>
        <pt x="638" y="1078" on="0"/>
        <pt x="638" y="1033" on="0"/>
        <pt x="686" y="971" on="0"/>
        <pt x="772" y="923" on="0"/>
        <pt x="855" y="886" on="0"/>
        <pt x="908" y="864" on="1"/>
        <pt x="1084" y="792" on="0"/>
        <pt x="1224" y="623" on="0"/>
        <pt x="1224" y="509" on="1"/>
        <pt x="1224" y="461" on="0"/>
        <pt x="1212" y="404" on="1"/>
        <pt x="1170" y="207" on="0"/>
        <pt x="831" y="-29" on="0"/>
        <pt x="414" y="-29" on="0"/>
        <pt x="168" y="191" on="0"/>
        <pt x="168" y="372" on="1"/>
        <pt x="168" y="393" on="0"/>
        <pt x="169" y="404" on="1"/>
        <pt x="446" y="447" on="1"/>
        <pt x="450" y="352" on="0"/>
        <pt x="498" y="286" on="1"/>
        <pt x="550" y="213" on="0"/>
        <pt x="776" y="213" on="0"/>
        <pt x="848" y="266" on="1"/>
        <pt x="943" y="336" on="0"/>
        <pt x="943" y="448" on="1"/>
        <pt x="943" y="533" on="0"/>
        <pt x="858" y="585" on="1"/>
        <pt x="801" y="620" on="0"/>
        <pt x="603" y="703" on="0"/>
        <pt x="515" y="750" on="0"/>
        <pt x="453" y="794" on="0"/>
        <pt x="421" y="827" on="1"/>
        <pt x="357" y="893" on="0"/>
        <pt x="357" y="1002" on="1"/>
        <pt x="357" y="1044" on="0"/>
        <pt x="367" y="1090" on="1"/>
        <pt x="395" y="1220" on="0"/>
        <pt x="486" y="1314" on="1"/>
        <pt x="658" y="1492" on="0"/>
        <pt x="937" y="1492" on="1"/>
        <pt x="1105" y="1492" on="0"/>
        <pt x="1325" y="1318" on="0"/>
        <pt x="1341" y="1186" on="1"/>
      </contour>
      <contour>
        <pt x="351" y="-238" on="1"/>
        <pt x="355" y="-236" on="0"/>
        <pt x="382" y="-222" on="0"/>
        <pt x="397" y="-215" on="0"/>
        <pt x="425" y="-200" on="0"/>
        <pt x="442" y="-190" on="0"/>
        <pt x="465" y="-175" on="0"/>
        <pt x="481" y="-162" on="0"/>
        <pt x="488" y="-155" on="1"/>
        <pt x="512" y="-133" on="0"/>
        <pt x="512" y="-48" on="0"/>
        <pt x="487" y="-16" on="1"/>
        <pt x="668" y="74" on="1"/>
        <pt x="736" y="0" on="0"/>
        <pt x="736" y="-90" on="1"/>
        <pt x="736" y="-113" on="0"/>
        <pt x="732" y="-133" on="1"/>
        <pt x="709" y="-238" on="0"/>
        <pt x="453" y="-357" on="1"/>
        <pt x="442" y="-363" on="0"/>
        <pt x="437" y="-365" on="1"/>
      </contour>
    </TTGlyph>
    <TTGlyph name="Scircumflex" xMin="168" yMin="-29" xMax="1341" yMax="1906">
      <contour>
        <pt x="1057" y="1135" on="1"/>
        <pt x="1032" y="1251" on="0"/>
        <pt x="886" y="1251" on="1"/>
        <pt x="675" y="1251" on="0"/>
        <pt x="641" y="1090" on="1"/>
        <pt x="638" y="1078" on="0"/>
        <pt x="638" y="1033" on="0"/>
        <pt x="686" y="971" on="0"/>
        <pt x="772" y="923" on="0"/>
        <pt x="855" y="886" on="0"/>
        <pt x="908" y="864" on="1"/>
        <pt x="1084" y="792" on="0"/>
        <pt x="1224" y="623" on="0"/>
        <pt x="1224" y="509" on="1"/>
        <pt x="1224" y="461" on="0"/>
        <pt x="1212" y="404" on="1"/>
        <pt x="1170" y="207" on="0"/>
        <pt x="831" y="-29" on="0"/>
        <pt x="414" y="-29" on="0"/>
        <pt x="168" y="191" on="0"/>
        <pt x="168" y="372" on="1"/>
        <pt x="168" y="393" on="0"/>
        <pt x="169" y="404" on="1"/>
        <pt x="446" y="447" on="1"/>
        <pt x="450" y="352" on="0"/>
        <pt x="498" y="286" on="1"/>
        <pt x="550" y="213" on="0"/>
        <pt x="776" y="213" on="0"/>
        <pt x="848" y="266" on="1"/>
        <pt x="943" y="336" on="0"/>
        <pt x="943" y="448" on="1"/>
        <pt x="943" y="533" on="0"/>
        <pt x="858" y="585" on="1"/>
        <pt x="801" y="620" on="0"/>
        <pt x="603" y="703" on="0"/>
        <pt x="515" y="750" on="0"/>
        <pt x="453" y="794" on="0"/>
        <pt x="421" y="827" on="1"/>
        <pt x="357" y="893" on="0"/>
        <pt x="357" y="1002" on="1"/>
        <pt x="357" y="1044" on="0"/>
        <pt x="367" y="1090" on="1"/>
        <pt x="395" y="1220" on="0"/>
        <pt x="486" y="1314" on="1"/>
        <pt x="658" y="1492" on="0"/>
        <pt x="937" y="1492" on="1"/>
        <pt x="1105" y="1492" on="0"/>
        <pt x="1325" y="1318" on="0"/>
        <pt x="1341" y="1186" on="1"/>
      </contour>
      <contour>
        <pt x="1336" y="1562" on="1"/>
        <pt x="1065" y="1562" on="1"/>
        <pt x="967" y="1723" on="1"/>
        <pt x="810" y="1565" on="1"/>
        <pt x="533" y="1565" on="1"/>
        <pt x="889" y="1906" on="1"/>
        <pt x="1125" y="1906" on="1"/>
      </contour>
    </TTGlyph>
    <TTGlyph name="Scommaaccent" xMin="168" yMin="-503" xMax="1341" yMax="1492">
      <contour>
        <pt x="495" y="-338" on="1"/>
        <pt x="495" y="-327" on="1"/>
        <pt x="451" y="-317" on="0"/>
        <pt x="409" y="-249" on="0"/>
        <pt x="409" y="-218" on="1"/>
        <pt x="409" y="-118" on="0"/>
        <pt x="543" y="0" on="0"/>
        <pt x="688" y="0" on="0"/>
        <pt x="744" y="-88" on="0"/>
        <pt x="744" y="-116" on="1"/>
        <pt x="744" y="-189" on="0"/>
        <pt x="703" y="-262" on="1"/>
        <pt x="644" y="-367" on="0"/>
        <pt x="547" y="-456" on="1"/>
        <pt x="515" y="-485" on="0"/>
        <pt x="489" y="-503" on="1"/>
        <pt x="424" y="-460" on="1"/>
        <pt x="487" y="-379" on="0"/>
      </contour>
      <contour>
        <pt x="1057" y="1135" on="1"/>
        <pt x="1032" y="1251" on="0"/>
        <pt x="886" y="1251" on="1"/>
        <pt x="675" y="1251" on="0"/>
        <pt x="641" y="1090" on="1"/>
        <pt x="638" y="1078" on="0"/>
        <pt x="638" y="1033" on="0"/>
        <pt x="686" y="971" on="0"/>
        <pt x="772" y="923" on="0"/>
        <pt x="855" y="886" on="0"/>
        <pt x="908" y="864" on="1"/>
        <pt x="1084" y="792" on="0"/>
        <pt x="1224" y="623" on="0"/>
        <pt x="1224" y="509" on="1"/>
        <pt x="1224" y="461" on="0"/>
        <pt x="1212" y="404" on="1"/>
        <pt x="1170" y="207" on="0"/>
        <pt x="831" y="-29" on="0"/>
        <pt x="414" y="-29" on="0"/>
        <pt x="168" y="191" on="0"/>
        <pt x="168" y="372" on="1"/>
        <pt x="168" y="393" on="0"/>
        <pt x="169" y="404" on="1"/>
        <pt x="446" y="447" on="1"/>
        <pt x="450" y="352" on="0"/>
        <pt x="498" y="286" on="1"/>
        <pt x="550" y="213" on="0"/>
        <pt x="776" y="213" on="0"/>
        <pt x="848" y="266" on="1"/>
        <pt x="943" y="336" on="0"/>
        <pt x="943" y="448" on="1"/>
        <pt x="943" y="533" on="0"/>
        <pt x="858" y="585" on="1"/>
        <pt x="801" y="620" on="0"/>
        <pt x="603" y="703" on="0"/>
        <pt x="515" y="750" on="0"/>
        <pt x="453" y="794" on="0"/>
        <pt x="421" y="827" on="1"/>
        <pt x="357" y="893" on="0"/>
        <pt x="357" y="1002" on="1"/>
        <pt x="357" y="1044" on="0"/>
        <pt x="367" y="1090" on="1"/>
        <pt x="395" y="1220" on="0"/>
        <pt x="486" y="1314" on="1"/>
        <pt x="658" y="1492" on="0"/>
        <pt x="937" y="1492" on="1"/>
        <pt x="1105" y="1492" on="0"/>
        <pt x="1325" y="1318" on="0"/>
        <pt x="1341" y="1186" on="1"/>
      </contour>
    </TTGlyph>
    <TTGlyph name="Sdotaccent" xMin="168" yMin="-29" xMax="1341" yMax="1921">
      <contour>
        <pt x="834" y="1722" on="1"/>
        <pt x="834" y="1811" on="0"/>
        <pt x="968" y="1921" on="0"/>
        <pt x="1104" y="1921" on="0"/>
        <pt x="1169" y="1839" on="0"/>
        <pt x="1169" y="1806" on="1"/>
        <pt x="1169" y="1702" on="0"/>
        <pt x="1034" y="1593" on="0"/>
        <pt x="899" y="1593" on="0"/>
        <pt x="834" y="1677" on="0"/>
      </contour>
      <contour>
        <pt x="1057" y="1135" on="1"/>
        <pt x="1032" y="1251" on="0"/>
        <pt x="886" y="1251" on="1"/>
        <pt x="675" y="1251" on="0"/>
        <pt x="641" y="1090" on="1"/>
        <pt x="638" y="1078" on="0"/>
        <pt x="638" y="1033" on="0"/>
        <pt x="686" y="971" on="0"/>
        <pt x="772" y="923" on="0"/>
        <pt x="855" y="886" on="0"/>
        <pt x="908" y="864" on="1"/>
        <pt x="1084" y="792" on="0"/>
        <pt x="1224" y="623" on="0"/>
        <pt x="1224" y="509" on="1"/>
        <pt x="1224" y="461" on="0"/>
        <pt x="1212" y="404" on="1"/>
        <pt x="1170" y="207" on="0"/>
        <pt x="831" y="-29" on="0"/>
        <pt x="414" y="-29" on="0"/>
        <pt x="168" y="191" on="0"/>
        <pt x="168" y="372" on="1"/>
        <pt x="168" y="393" on="0"/>
        <pt x="169" y="404" on="1"/>
        <pt x="446" y="447" on="1"/>
        <pt x="450" y="352" on="0"/>
        <pt x="498" y="286" on="1"/>
        <pt x="550" y="213" on="0"/>
        <pt x="776" y="213" on="0"/>
        <pt x="848" y="266" on="1"/>
        <pt x="943" y="336" on="0"/>
        <pt x="943" y="448" on="1"/>
        <pt x="943" y="533" on="0"/>
        <pt x="858" y="585" on="1"/>
        <pt x="801" y="620" on="0"/>
        <pt x="603" y="703" on="0"/>
        <pt x="515" y="750" on="0"/>
        <pt x="453" y="794" on="0"/>
        <pt x="421" y="827" on="1"/>
        <pt x="357" y="893" on="0"/>
        <pt x="357" y="1002" on="1"/>
        <pt x="357" y="1044" on="0"/>
        <pt x="367" y="1090" on="1"/>
        <pt x="395" y="1220" on="0"/>
        <pt x="486" y="1314" on="1"/>
        <pt x="658" y="1492" on="0"/>
        <pt x="937" y="1492" on="1"/>
        <pt x="1105" y="1492" on="0"/>
        <pt x="1325" y="1318" on="0"/>
        <pt x="1341" y="1186" on="1"/>
      </contour>
    </TTGlyph>
    <TTGlyph name="Sigma" xMin="50" yMin="0" xMax="1455" yMax="1425">
      <contour>
        <pt x="1152" y="0" on="1"/>
        <pt x="50" y="0" on="1"/>
        <pt x="127" y="360" on="1"/>
        <pt x="534" y="709" on="1"/>
        <pt x="277" y="1066" on="1"/>
        <pt x="353" y="1425" on="1"/>
        <pt x="1455" y="1425" on="1"/>
        <pt x="1399" y="1163" on="1"/>
        <pt x="575" y="1163" on="1"/>
        <pt x="900" y="708" on="1"/>
        <pt x="394" y="262" on="1"/>
        <pt x="1208" y="262" on="1"/>
      </contour>
    </TTGlyph>
    <TTGlyph name="T" xMin="336" yMin="0" xMax="1589" yMax="1456">
      <contour>
        <pt x="387" y="1456" on="1"/>
        <pt x="1589" y="1456" on="1"/>
        <pt x="1538" y="1216" on="1"/>
        <pt x="1081" y="1216" on="1"/>
        <pt x="823" y="0" on="1"/>
        <pt x="555" y="0" on="1"/>
        <pt x="813" y="1216" on="1"/>
        <pt x="336" y="1216" on="1"/>
      </contour>
    </TTGlyph>
    <TTGlyph name="Tau" xMin="337" yMin="0" xMax="1589" yMax="1456">
      <contour>
        <pt x="387" y="1456" on="1"/>
        <pt x="1589" y="1456" on="1"/>
        <pt x="1539" y="1217" on="1"/>
        <pt x="1082" y="1217" on="1"/>
        <pt x="823" y="0" on="1"/>
        <pt x="555" y="0" on="1"/>
        <pt x="814" y="1217" on="1"/>
        <pt x="337" y="1217" on="1"/>
      </contour>
    </TTGlyph>
    <TTGlyph name="Tbar" xMin="336" yMin="0" xMax="1589" yMax="1456">
      <contour>
        <pt x="387" y="1456" on="1"/>
        <pt x="1589" y="1456" on="1"/>
        <pt x="1538" y="1216" on="1"/>
        <pt x="1081" y="1216" on="1"/>
        <pt x="983" y="754" on="1"/>
        <pt x="1228" y="754" on="1"/>
        <pt x="1177" y="514" on="1"/>
        <pt x="932" y="514" on="1"/>
        <pt x="823" y="0" on="1"/>
        <pt x="555" y="0" on="1"/>
        <pt x="664" y="514" on="1"/>
        <pt x="405" y="514" on="1"/>
        <pt x="456" y="754" on="1"/>
        <pt x="715" y="754" on="1"/>
        <pt x="813" y="1216" on="1"/>
        <pt x="336" y="1216" on="1"/>
      </contour>
    </TTGlyph>
    <TTGlyph name="Tcaron" xMin="336" yMin="0" xMax="1589" yMax="1908">
      <contour>
        <pt x="387" y="1456" on="1"/>
        <pt x="1589" y="1456" on="1"/>
        <pt x="1538" y="1216" on="1"/>
        <pt x="1081" y="1216" on="1"/>
        <pt x="823" y="0" on="1"/>
        <pt x="555" y="0" on="1"/>
        <pt x="813" y="1216" on="1"/>
        <pt x="336" y="1216" on="1"/>
      </contour>
      <contour>
        <pt x="1503" y="1908" on="1"/>
        <pt x="1145" y="1564" on="1"/>
        <pt x="909" y="1564" on="1"/>
        <pt x="698" y="1905" on="1"/>
        <pt x="975" y="1905" on="1"/>
        <pt x="1065" y="1747" on="1"/>
        <pt x="1232" y="1908" on="1"/>
      </contour>
    </TTGlyph>
    <TTGlyph name="Tcommaaccent" xMin="336" yMin="-365" xMax="1589" yMax="1456">
      <contour>
        <pt x="387" y="1456" on="1"/>
        <pt x="1589" y="1456" on="1"/>
        <pt x="1538" y="1216" on="1"/>
        <pt x="1081" y="1216" on="1"/>
        <pt x="823" y="0" on="1"/>
        <pt x="555" y="0" on="1"/>
        <pt x="813" y="1216" on="1"/>
        <pt x="336" y="1216" on="1"/>
      </contour>
      <contour>
        <pt x="429" y="-238" on="1"/>
        <pt x="433" y="-236" on="0"/>
        <pt x="460" y="-222" on="0"/>
        <pt x="475" y="-215" on="0"/>
        <pt x="503" y="-200" on="0"/>
        <pt x="520" y="-190" on="0"/>
        <pt x="543" y="-175" on="0"/>
        <pt x="559" y="-162" on="0"/>
        <pt x="566" y="-155" on="1"/>
        <pt x="590" y="-133" on="0"/>
        <pt x="590" y="-48" on="0"/>
        <pt x="565" y="-16" on="1"/>
        <pt x="746" y="74" on="1"/>
        <pt x="814" y="0" on="0"/>
        <pt x="814" y="-90" on="1"/>
        <pt x="814" y="-113" on="0"/>
        <pt x="810" y="-133" on="1"/>
        <pt x="787" y="-238" on="0"/>
        <pt x="531" y="-357" on="1"/>
        <pt x="520" y="-363" on="0"/>
        <pt x="515" y="-365" on="1"/>
      </contour>
    </TTGlyph>
    <TTGlyph name="Tdotaccent" xMin="336" yMin="0" xMax="1589" yMax="1921">
      <contour>
        <pt x="898" y="1722" on="1"/>
        <pt x="898" y="1811" on="0"/>
        <pt x="1032" y="1921" on="0"/>
        <pt x="1168" y="1921" on="0"/>
        <pt x="1233" y="1839" on="0"/>
        <pt x="1233" y="1806" on="1"/>
        <pt x="1233" y="1702" on="0"/>
        <pt x="1098" y="1593" on="0"/>
        <pt x="963" y="1593" on="0"/>
        <pt x="898" y="1677" on="0"/>
      </contour>
      <contour>
        <pt x="387" y="1456" on="1"/>
        <pt x="1589" y="1456" on="1"/>
        <pt x="1538" y="1216" on="1"/>
        <pt x="1081" y="1216" on="1"/>
        <pt x="823" y="0" on="1"/>
        <pt x="555" y="0" on="1"/>
        <pt x="813" y="1216" on="1"/>
        <pt x="336" y="1216" on="1"/>
      </contour>
    </TTGlyph>
    <TTGlyph name="Theta" xMin="235" yMin="-29" xMax="1512" yMax="1489">
      <contour>
        <pt x="1227" y="937" on="1"/>
        <pt x="1227" y="1249" on="0"/>
        <pt x="980" y="1249" on="1"/>
        <pt x="772" y="1249" on="0"/>
        <pt x="644" y="1026" on="1"/>
        <pt x="519" y="805" on="0"/>
        <pt x="519" y="545" on="1"/>
        <pt x="519" y="409" on="0"/>
        <pt x="553" y="343" on="1"/>
        <pt x="621" y="213" on="0"/>
        <pt x="760" y="213" on="1"/>
        <pt x="968" y="213" on="0"/>
        <pt x="1101" y="457" on="1"/>
        <pt x="1221" y="681" on="0"/>
        <pt x="1227" y="928" on="1"/>
      </contour>
      <contour>
        <pt x="235" y="541" on="1"/>
        <pt x="237" y="742" on="0"/>
        <pt x="323" y="954" on="1"/>
        <pt x="411" y="1169" on="0"/>
        <pt x="584" y="1322" on="1"/>
        <pt x="670" y="1397" on="0"/>
        <pt x="901" y="1489" on="0"/>
        <pt x="1164" y="1489" on="0"/>
        <pt x="1258" y="1443" on="1"/>
        <pt x="1433" y="1358" on="0"/>
        <pt x="1487" y="1151" on="1"/>
        <pt x="1512" y="1054" on="0"/>
        <pt x="1512" y="964" on="1"/>
        <pt x="1512" y="954" on="1"/>
        <pt x="1510" y="756" on="0"/>
        <pt x="1424" y="542" on="1"/>
        <pt x="1332" y="311" on="0"/>
        <pt x="1157" y="148" on="1"/>
        <pt x="1073" y="70" on="0"/>
        <pt x="839" y="-29" on="0"/>
        <pt x="579" y="-29" on="0"/>
        <pt x="482" y="20" on="1"/>
        <pt x="310" y="109" on="0"/>
        <pt x="258" y="331" on="1"/>
        <pt x="235" y="431" on="0"/>
        <pt x="235" y="528" on="1"/>
      </contour>
      <contour>
        <pt x="670" y="867" on="1"/>
        <pt x="1123" y="867" on="1"/>
        <pt x="1072" y="627" on="1"/>
        <pt x="619" y="627" on="1"/>
      </contour>
    </TTGlyph>
    <TTGlyph name="Thorn" xMin="135" yMin="0" xMax="1243" yMax="1456">
      <contour>
        <pt x="515" y="526" on="1"/>
        <pt x="916" y="526" on="0"/>
        <pt x="964" y="750" on="1"/>
        <pt x="969" y="773" on="0"/>
        <pt x="969" y="790" on="1"/>
        <pt x="969" y="961" on="0"/>
        <pt x="607" y="961" on="1"/>
      </contour>
      <contour>
        <pt x="444" y="1456" on="1"/>
        <pt x="712" y="1456" on="1"/>
        <pt x="658" y="1199" on="1"/>
        <pt x="1243" y="1199" on="0"/>
        <pt x="1243" y="853" on="1"/>
        <pt x="1243" y="714" on="0"/>
        <pt x="1170" y="582" on="1"/>
        <pt x="1099" y="454" on="0"/>
        <pt x="945" y="374" on="1"/>
        <pt x="775" y="287" on="0"/>
        <pt x="464" y="287" on="1"/>
        <pt x="403" y="0" on="1"/>
        <pt x="135" y="0" on="1"/>
      </contour>
    </TTGlyph>
    <TTGlyph name="U" xMin="218" yMin="-35" xMax="1469" yMax="1456">
      <contour>
        <pt x="630" y="-35" on="1"/>
        <pt x="428" y="-35" on="0"/>
        <pt x="218" y="194" on="0"/>
        <pt x="218" y="393" on="1"/>
        <pt x="218" y="485" on="0"/>
        <pt x="240" y="586" on="1"/>
        <pt x="424" y="1456" on="1"/>
        <pt x="692" y="1456" on="1"/>
        <pt x="508" y="586" on="1"/>
        <pt x="491" y="504" on="0"/>
        <pt x="491" y="336" on="0"/>
        <pt x="581" y="205" on="0"/>
        <pt x="681" y="205" on="1"/>
        <pt x="839" y="205" on="0"/>
        <pt x="938" y="374" on="1"/>
        <pt x="992" y="467" on="0"/>
        <pt x="1017" y="586" on="1"/>
        <pt x="1201" y="1456" on="1"/>
        <pt x="1469" y="1456" on="1"/>
        <pt x="1285" y="586" on="1"/>
        <pt x="1226" y="306" on="0"/>
        <pt x="880" y="-35" on="0"/>
      </contour>
    </TTGlyph>
    <TTGlyph name="Uacute" xMin="218" yMin="-35" xMax="1469" yMax="1945">
      <contour>
        <pt x="981" y="1533" on="1"/>
        <pt x="973" y="1528" on="0"/>
        <pt x="969" y="1528" on="1"/>
        <pt x="935" y="1528" on="0"/>
        <pt x="901" y="1581" on="1"/>
        <pt x="893" y="1594" on="0"/>
        <pt x="890" y="1620" on="1"/>
        <pt x="885" y="1675" on="0"/>
        <pt x="907" y="1688" on="1"/>
        <pt x="1241" y="1935" on="1"/>
        <pt x="1254" y="1945" on="0"/>
        <pt x="1267" y="1945" on="1"/>
        <pt x="1322" y="1945" on="0"/>
        <pt x="1357" y="1888" on="1"/>
        <pt x="1370" y="1867" on="0"/>
        <pt x="1370" y="1842" on="1"/>
        <pt x="1370" y="1771" on="0"/>
        <pt x="1334" y="1746" on="1"/>
      </contour>
      <contour>
        <pt x="630" y="-35" on="1"/>
        <pt x="428" y="-35" on="0"/>
        <pt x="218" y="194" on="0"/>
        <pt x="218" y="393" on="1"/>
        <pt x="218" y="485" on="0"/>
        <pt x="240" y="586" on="1"/>
        <pt x="424" y="1456" on="1"/>
        <pt x="692" y="1456" on="1"/>
        <pt x="508" y="586" on="1"/>
        <pt x="491" y="504" on="0"/>
        <pt x="491" y="336" on="0"/>
        <pt x="581" y="205" on="0"/>
        <pt x="681" y="205" on="1"/>
        <pt x="839" y="205" on="0"/>
        <pt x="938" y="374" on="1"/>
        <pt x="992" y="467" on="0"/>
        <pt x="1017" y="586" on="1"/>
        <pt x="1201" y="1456" on="1"/>
        <pt x="1469" y="1456" on="1"/>
        <pt x="1285" y="586" on="1"/>
        <pt x="1226" y="306" on="0"/>
        <pt x="880" y="-35" on="0"/>
      </contour>
    </TTGlyph>
    <TTGlyph name="Ubreve" xMin="218" yMin="-35" xMax="1469" yMax="1942">
      <contour>
        <pt x="630" y="-35" on="1"/>
        <pt x="428" y="-35" on="0"/>
        <pt x="218" y="194" on="0"/>
        <pt x="218" y="393" on="1"/>
        <pt x="218" y="485" on="0"/>
        <pt x="240" y="586" on="1"/>
        <pt x="424" y="1456" on="1"/>
        <pt x="692" y="1456" on="1"/>
        <pt x="508" y="586" on="1"/>
        <pt x="491" y="504" on="0"/>
        <pt x="491" y="336" on="0"/>
        <pt x="581" y="205" on="0"/>
        <pt x="681" y="205" on="1"/>
        <pt x="839" y="205" on="0"/>
        <pt x="938" y="374" on="1"/>
        <pt x="992" y="467" on="0"/>
        <pt x="1017" y="586" on="1"/>
        <pt x="1201" y="1456" on="1"/>
        <pt x="1469" y="1456" on="1"/>
        <pt x="1285" y="586" on="1"/>
        <pt x="1226" y="306" on="0"/>
        <pt x="880" y="-35" on="0"/>
      </contour>
      <contour>
        <pt x="1288" y="1676" on="1"/>
        <pt x="1232" y="1607" on="0"/>
        <pt x="1054" y="1516" on="0"/>
        <pt x="894" y="1516" on="0"/>
        <pt x="751" y="1609" on="0"/>
        <pt x="697" y="1754" on="0"/>
        <pt x="697" y="1881" on="0"/>
        <pt x="714" y="1942" on="1"/>
        <pt x="875" y="1942" on="1"/>
        <pt x="905" y="1812" on="0"/>
        <pt x="960" y="1769" on="1"/>
        <pt x="980" y="1754" on="0"/>
        <pt x="1070" y="1754" on="0"/>
        <pt x="1093" y="1768" on="1"/>
        <pt x="1147" y="1801" on="0"/>
        <pt x="1257" y="1942" on="1"/>
        <pt x="1414" y="1942" on="1"/>
        <pt x="1414" y="1940" on="0"/>
        <pt x="1408" y="1911" on="1"/>
        <pt x="1382" y="1792" on="0"/>
      </contour>
    </TTGlyph>
    <TTGlyph name="Ucircumflex" xMin="218" yMin="-35" xMax="1469" yMax="1910">
      <contour>
        <pt x="630" y="-35" on="1"/>
        <pt x="428" y="-35" on="0"/>
        <pt x="218" y="194" on="0"/>
        <pt x="218" y="393" on="1"/>
        <pt x="218" y="485" on="0"/>
        <pt x="240" y="586" on="1"/>
        <pt x="424" y="1456" on="1"/>
        <pt x="692" y="1456" on="1"/>
        <pt x="508" y="586" on="1"/>
        <pt x="491" y="504" on="0"/>
        <pt x="491" y="336" on="0"/>
        <pt x="581" y="205" on="0"/>
        <pt x="681" y="205" on="1"/>
        <pt x="839" y="205" on="0"/>
        <pt x="938" y="374" on="1"/>
        <pt x="992" y="467" on="0"/>
        <pt x="1017" y="586" on="1"/>
        <pt x="1201" y="1456" on="1"/>
        <pt x="1469" y="1456" on="1"/>
        <pt x="1285" y="586" on="1"/>
        <pt x="1226" y="306" on="0"/>
        <pt x="880" y="-35" on="0"/>
      </contour>
      <contour>
        <pt x="1392" y="1566" on="1"/>
        <pt x="1121" y="1566" on="1"/>
        <pt x="1023" y="1727" on="1"/>
        <pt x="866" y="1569" on="1"/>
        <pt x="589" y="1569" on="1"/>
        <pt x="945" y="1910" on="1"/>
        <pt x="1181" y="1910" on="1"/>
      </contour>
    </TTGlyph>
    <TTGlyph name="Udieresis" xMin="218" yMin="-35" xMax="1469" yMax="1865">
      <contour>
        <pt x="630" y="-35" on="1"/>
        <pt x="428" y="-35" on="0"/>
        <pt x="218" y="194" on="0"/>
        <pt x="218" y="393" on="1"/>
        <pt x="218" y="485" on="0"/>
        <pt x="240" y="586" on="1"/>
        <pt x="424" y="1456" on="1"/>
        <pt x="692" y="1456" on="1"/>
        <pt x="508" y="586" on="1"/>
        <pt x="491" y="504" on="0"/>
        <pt x="491" y="336" on="0"/>
        <pt x="581" y="205" on="0"/>
        <pt x="681" y="205" on="1"/>
        <pt x="839" y="205" on="0"/>
        <pt x="938" y="374" on="1"/>
        <pt x="992" y="467" on="0"/>
        <pt x="1017" y="586" on="1"/>
        <pt x="1201" y="1456" on="1"/>
        <pt x="1469" y="1456" on="1"/>
        <pt x="1285" y="586" on="1"/>
        <pt x="1226" y="306" on="0"/>
        <pt x="880" y="-35" on="0"/>
      </contour>
      <contour>
        <pt x="615" y="1666" on="1"/>
        <pt x="615" y="1756" on="0"/>
        <pt x="750" y="1865" on="0"/>
        <pt x="886" y="1865" on="0"/>
        <pt x="951" y="1781" on="0"/>
        <pt x="951" y="1749" on="1"/>
        <pt x="951" y="1647" on="0"/>
        <pt x="816" y="1537" on="0"/>
        <pt x="680" y="1537" on="0"/>
        <pt x="615" y="1621" on="0"/>
      </contour>
      <contour>
        <pt x="1086" y="1666" on="1"/>
        <pt x="1086" y="1756" on="0"/>
        <pt x="1220" y="1865" on="0"/>
        <pt x="1356" y="1865" on="0"/>
        <pt x="1422" y="1781" on="0"/>
        <pt x="1422" y="1749" on="1"/>
        <pt x="1422" y="1647" on="0"/>
        <pt x="1286" y="1537" on="0"/>
        <pt x="1151" y="1537" on="0"/>
        <pt x="1086" y="1621" on="0"/>
      </contour>
    </TTGlyph>
    <TTGlyph name="Ugrave" xMin="218" yMin="-35" xMax="1469" yMax="1945">
      <contour>
        <pt x="992" y="1533" on="1"/>
        <pt x="730" y="1746" on="1"/>
        <pt x="718" y="1756" on="0"/>
        <pt x="718" y="1775" on="1"/>
        <pt x="718" y="1812" on="0"/>
        <pt x="732" y="1840" on="1"/>
        <pt x="771" y="1918" on="0"/>
        <pt x="857" y="1942" on="1"/>
        <pt x="868" y="1945" on="0"/>
        <pt x="892" y="1945" on="0"/>
        <pt x="902" y="1935" on="1"/>
        <pt x="1133" y="1688" on="1"/>
        <pt x="1137" y="1684" on="0"/>
        <pt x="1137" y="1676" on="1"/>
        <pt x="1137" y="1646" on="0"/>
        <pt x="1124" y="1622" on="1"/>
        <pt x="1103" y="1585" on="0"/>
        <pt x="1068" y="1560" on="1"/>
        <pt x="1024" y="1528" on="0"/>
        <pt x="997" y="1528" on="0"/>
      </contour>
      <contour>
        <pt x="630" y="-35" on="1"/>
        <pt x="428" y="-35" on="0"/>
        <pt x="218" y="194" on="0"/>
        <pt x="218" y="393" on="1"/>
        <pt x="218" y="485" on="0"/>
        <pt x="240" y="586" on="1"/>
        <pt x="424" y="1456" on="1"/>
        <pt x="692" y="1456" on="1"/>
        <pt x="508" y="586" on="1"/>
        <pt x="491" y="504" on="0"/>
        <pt x="491" y="336" on="0"/>
        <pt x="581" y="205" on="0"/>
        <pt x="681" y="205" on="1"/>
        <pt x="839" y="205" on="0"/>
        <pt x="938" y="374" on="1"/>
        <pt x="992" y="467" on="0"/>
        <pt x="1017" y="586" on="1"/>
        <pt x="1201" y="1456" on="1"/>
        <pt x="1469" y="1456" on="1"/>
        <pt x="1285" y="586" on="1"/>
        <pt x="1226" y="306" on="0"/>
        <pt x="880" y="-35" on="0"/>
      </contour>
    </TTGlyph>
    <TTGlyph name="Uhungarumlaut" xMin="218" yMin="-35" xMax="1514" yMax="1946">
      <contour>
        <pt x="630" y="-35" on="1"/>
        <pt x="428" y="-35" on="0"/>
        <pt x="218" y="194" on="0"/>
        <pt x="218" y="393" on="1"/>
        <pt x="218" y="485" on="0"/>
        <pt x="240" y="586" on="1"/>
        <pt x="424" y="1456" on="1"/>
        <pt x="692" y="1456" on="1"/>
        <pt x="508" y="586" on="1"/>
        <pt x="491" y="504" on="0"/>
        <pt x="491" y="336" on="0"/>
        <pt x="581" y="205" on="0"/>
        <pt x="681" y="205" on="1"/>
        <pt x="839" y="205" on="0"/>
        <pt x="938" y="374" on="1"/>
        <pt x="992" y="467" on="0"/>
        <pt x="1017" y="586" on="1"/>
        <pt x="1201" y="1456" on="1"/>
        <pt x="1469" y="1456" on="1"/>
        <pt x="1285" y="586" on="1"/>
        <pt x="1226" y="306" on="0"/>
        <pt x="880" y="-35" on="0"/>
      </contour>
      <contour>
        <pt x="1192" y="1493" on="1"/>
        <pt x="1183" y="1484" on="0"/>
        <pt x="1167" y="1484" on="1"/>
        <pt x="1138" y="1484" on="0"/>
        <pt x="1097" y="1516" on="1"/>
        <pt x="1085" y="1525" on="0"/>
        <pt x="1074" y="1554" on="1"/>
        <pt x="1057" y="1598" on="0"/>
        <pt x="1074" y="1615" on="1"/>
        <pt x="1350" y="1927" on="1"/>
        <pt x="1368" y="1946" on="0"/>
        <pt x="1392" y="1946" on="1"/>
        <pt x="1448" y="1946" on="0"/>
        <pt x="1480" y="1914" on="1"/>
        <pt x="1496" y="1902" on="0"/>
        <pt x="1514" y="1847" on="0"/>
        <pt x="1514" y="1826" on="0"/>
        <pt x="1507" y="1791" on="0"/>
        <pt x="1495" y="1779" on="1"/>
      </contour>
      <contour>
        <pt x="803" y="1493" on="1"/>
        <pt x="794" y="1484" on="0"/>
        <pt x="778" y="1484" on="1"/>
        <pt x="749" y="1484" on="0"/>
        <pt x="708" y="1516" on="1"/>
        <pt x="695" y="1526" on="0"/>
        <pt x="677" y="1572" on="0"/>
        <pt x="677" y="1584" on="1"/>
        <pt x="677" y="1607" on="0"/>
        <pt x="685" y="1615" on="1"/>
        <pt x="961" y="1927" on="1"/>
        <pt x="979" y="1946" on="0"/>
        <pt x="1003" y="1946" on="1"/>
        <pt x="1059" y="1946" on="0"/>
        <pt x="1091" y="1914" on="1"/>
        <pt x="1108" y="1901" on="0"/>
        <pt x="1126" y="1849" on="0"/>
        <pt x="1126" y="1836" on="1"/>
        <pt x="1126" y="1799" on="0"/>
        <pt x="1106" y="1779" on="1"/>
      </contour>
    </TTGlyph>
    <TTGlyph name="Umacron" xMin="218" yMin="-35" xMax="1469" yMax="1813">
      <contour>
        <pt x="630" y="-35" on="1"/>
        <pt x="428" y="-35" on="0"/>
        <pt x="218" y="194" on="0"/>
        <pt x="218" y="393" on="1"/>
        <pt x="218" y="485" on="0"/>
        <pt x="240" y="586" on="1"/>
        <pt x="424" y="1456" on="1"/>
        <pt x="692" y="1456" on="1"/>
        <pt x="508" y="586" on="1"/>
        <pt x="491" y="504" on="0"/>
        <pt x="491" y="336" on="0"/>
        <pt x="581" y="205" on="0"/>
        <pt x="681" y="205" on="1"/>
        <pt x="839" y="205" on="0"/>
        <pt x="938" y="374" on="1"/>
        <pt x="992" y="467" on="0"/>
        <pt x="1017" y="586" on="1"/>
        <pt x="1201" y="1456" on="1"/>
        <pt x="1469" y="1456" on="1"/>
        <pt x="1285" y="586" on="1"/>
        <pt x="1226" y="306" on="0"/>
        <pt x="880" y="-35" on="0"/>
      </contour>
      <contour>
        <pt x="636" y="1813" on="1"/>
        <pt x="1408" y="1813" on="1"/>
        <pt x="1381" y="1686" on="1"/>
        <pt x="609" y="1686" on="1"/>
      </contour>
    </TTGlyph>
    <TTGlyph name="Uogonek" xMin="218" yMin="-344" xMax="1469" yMax="1456">
      <contour>
        <pt x="630" y="-35" on="1"/>
        <pt x="428" y="-35" on="0"/>
        <pt x="218" y="194" on="0"/>
        <pt x="218" y="393" on="1"/>
        <pt x="218" y="485" on="0"/>
        <pt x="240" y="586" on="1"/>
        <pt x="424" y="1456" on="1"/>
        <pt x="692" y="1456" on="1"/>
        <pt x="508" y="586" on="1"/>
        <pt x="491" y="504" on="0"/>
        <pt x="491" y="336" on="0"/>
        <pt x="581" y="205" on="0"/>
        <pt x="681" y="205" on="1"/>
        <pt x="839" y="205" on="0"/>
        <pt x="938" y="374" on="1"/>
        <pt x="992" y="467" on="0"/>
        <pt x="1017" y="586" on="1"/>
        <pt x="1201" y="1456" on="1"/>
        <pt x="1469" y="1456" on="1"/>
        <pt x="1285" y="586" on="1"/>
        <pt x="1226" y="306" on="0"/>
        <pt x="880" y="-35" on="0"/>
      </contour>
      <contour>
        <pt x="816" y="-217" on="1"/>
        <pt x="676" y="-344" on="1"/>
        <pt x="658" y="-335" on="0"/>
        <pt x="593" y="-293" on="0"/>
        <pt x="561" y="-273" on="0"/>
        <pt x="537" y="-249" on="1"/>
        <pt x="491" y="-203" on="0"/>
        <pt x="478" y="-151" on="0"/>
        <pt x="478" y="-120" on="0"/>
        <pt x="480" y="-112" on="1"/>
        <pt x="504" y="0" on="0"/>
        <pt x="632" y="95" on="1"/>
        <pt x="775" y="5" on="1"/>
        <pt x="732" y="-32" on="0"/>
        <pt x="712" y="-85" on="0"/>
        <pt x="705" y="-120" on="0"/>
        <pt x="719" y="-140" on="1"/>
        <pt x="737" y="-165" on="0"/>
        <pt x="804" y="-211" on="0"/>
      </contour>
    </TTGlyph>
    <TTGlyph name="Upsilon" xMin="375" yMin="0" xMax="1557" yMax="1456">
      <contour>
        <pt x="375" y="1456" on="1"/>
        <pt x="659" y="1456" on="1"/>
        <pt x="855" y="919" on="1"/>
        <pt x="1279" y="1456" on="1"/>
        <pt x="1557" y="1456" on="1"/>
        <pt x="947" y="705" on="1"/>
        <pt x="797" y="0" on="1"/>
        <pt x="528" y="0" on="1"/>
        <pt x="678" y="705" on="1"/>
      </contour>
    </TTGlyph>
    <TTGlyph name="Upsilondieresis" xMin="375" yMin="0" xMax="1557" yMax="1921">
      <contour>
        <pt x="631" y="1722" on="1"/>
        <pt x="631" y="1811" on="0"/>
        <pt x="766" y="1921" on="0"/>
        <pt x="902" y="1921" on="0"/>
        <pt x="966" y="1839" on="0"/>
        <pt x="966" y="1806" on="1"/>
        <pt x="966" y="1702" on="0"/>
        <pt x="832" y="1593" on="0"/>
        <pt x="696" y="1593" on="0"/>
        <pt x="631" y="1677" on="0"/>
      </contour>
      <contour>
        <pt x="1102" y="1722" on="1"/>
        <pt x="1102" y="1811" on="0"/>
        <pt x="1236" y="1921" on="0"/>
        <pt x="1372" y="1921" on="0"/>
        <pt x="1437" y="1839" on="0"/>
        <pt x="1437" y="1806" on="1"/>
        <pt x="1437" y="1702" on="0"/>
        <pt x="1302" y="1593" on="0"/>
        <pt x="1167" y="1593" on="0"/>
        <pt x="1102" y="1677" on="0"/>
      </contour>
      <contour>
        <pt x="375" y="1456" on="1"/>
        <pt x="659" y="1456" on="1"/>
        <pt x="855" y="919" on="1"/>
        <pt x="1279" y="1456" on="1"/>
        <pt x="1557" y="1456" on="1"/>
        <pt x="947" y="705" on="1"/>
        <pt x="797" y="0" on="1"/>
        <pt x="528" y="0" on="1"/>
        <pt x="678" y="705" on="1"/>
      </contour>
    </TTGlyph>
    <TTGlyph name="Upsilontonos" xMin="375" yMin="0" xMax="1557" yMax="1456">
      <contour>
        <pt x="375" y="1456" on="1"/>
        <pt x="659" y="1456" on="1"/>
        <pt x="855" y="919" on="1"/>
        <pt x="1279" y="1456" on="1"/>
        <pt x="1557" y="1456" on="1"/>
        <pt x="947" y="705" on="1"/>
        <pt x="797" y="0" on="1"/>
        <pt x="528" y="0" on="1"/>
        <pt x="678" y="705" on="1"/>
      </contour>
    </TTGlyph>
    <TTGlyph name="Uring" xMin="218" yMin="-35" xMax="1469" yMax="1942">
      <contour>
        <pt x="630" y="-35" on="1"/>
        <pt x="428" y="-35" on="0"/>
        <pt x="218" y="194" on="0"/>
        <pt x="218" y="393" on="1"/>
        <pt x="218" y="485" on="0"/>
        <pt x="240" y="586" on="1"/>
        <pt x="424" y="1456" on="1"/>
        <pt x="692" y="1456" on="1"/>
        <pt x="508" y="586" on="1"/>
        <pt x="491" y="504" on="0"/>
        <pt x="491" y="336" on="0"/>
        <pt x="581" y="205" on="0"/>
        <pt x="681" y="205" on="1"/>
        <pt x="839" y="205" on="0"/>
        <pt x="938" y="374" on="1"/>
        <pt x="992" y="467" on="0"/>
        <pt x="1017" y="586" on="1"/>
        <pt x="1201" y="1456" on="1"/>
        <pt x="1469" y="1456" on="1"/>
        <pt x="1285" y="586" on="1"/>
        <pt x="1226" y="306" on="0"/>
        <pt x="880" y="-35" on="0"/>
      </contour>
      <contour>
        <pt x="913" y="1692" on="1"/>
        <pt x="913" y="1664" on="0"/>
        <pt x="954" y="1610" on="0"/>
        <pt x="1043" y="1610" on="0"/>
        <pt x="1115" y="1674" on="0"/>
        <pt x="1127" y="1730" on="0"/>
        <pt x="1127" y="1771" on="0"/>
        <pt x="1086" y="1825" on="0"/>
        <pt x="997" y="1825" on="0"/>
        <pt x="913" y="1752" on="0"/>
      </contour>
      <contour>
        <pt x="786" y="1668" on="1"/>
        <pt x="786" y="1791" on="0"/>
        <pt x="892" y="1876" on="1"/>
        <pt x="973" y="1942" on="0"/>
        <pt x="1164" y="1942" on="0"/>
        <pt x="1254" y="1827" on="0"/>
        <pt x="1254" y="1765" on="1"/>
        <pt x="1254" y="1646" on="0"/>
        <pt x="1148" y="1558" on="1"/>
        <pt x="1070" y="1493" on="0"/>
        <pt x="877" y="1493" on="0"/>
        <pt x="786" y="1605" on="0"/>
      </contour>
    </TTGlyph>
</ttFont>
